<mxfile host="Electron" modified="2024-09-22T04:12:25.387Z" agent="Mozilla/5.0 (Windows NT 10.0; Win64; x64) AppleWebKit/537.36 (KHTML, like Gecko) draw.io/24.1.0 Chrome/120.0.6099.109 Electron/28.1.0 Safari/537.36" etag="-NMuVrKHJfDUc1yRg1M0" version="24.1.0" type="device">
  <diagram name="ページ1" id="1WB8yAt17iDIGemUTdg0">
    <mxGraphModel dx="1028" dy="1273" grid="1" gridSize="10" guides="1" tooltips="1" connect="1" arrows="1" fold="1" page="1" pageScale="1" pageWidth="827" pageHeight="1169" math="0" shadow="0">
      <root>
        <mxCell id="0" />
        <mxCell id="1" parent="0" />
        <mxCell id="Saw2sSsg1X3_uLdd9VW2-1" value="" style="shape=image;imageAspect=0;aspect=fixed;verticalLabelPosition=bottom;verticalAlign=top;image=data:image/jpeg,/9j/4AAQSkZJRgABAQEAYABgAAD/2wBDAAIBAQIBAQICAgICAgICAwUDAwMDAwYEBAMFBwYHBwcGBwcICQsJCAgKCAcHCg0KCgsMDAwMBwkODw0MDgsMDAz/2wBDAQICAgMDAwYDAwYMCAcIDAwMDAwMDAwMDAwMDAwMDAwMDAwMDAwMDAwMDAwMDAwMDAwMDAwMDAwMDAwMDAwMDAz/wAARCAHWA4kDASIAAhEBAxEB/8QAHwAAAQUBAQEBAQEAAAAAAAAAAAECAwQFBgcICQoL/8QAtRAAAgEDAwIEAwUFBAQAAAF9AQIDAAQRBRIhMUEGE1FhByJxFDKBkaEII0KxwRVS0fAkM2JyggkKFhcYGRolJicoKSo0NTY3ODk6Q0RFRkdISUpTVFVWV1hZWmNkZWZnaGlqc3R1dnd4eXqDhIWGh4iJipKTlJWWl5iZmqKjpKWmp6ipqrKztLW2t7i5usLDxMXGx8jJytLT1NXW19jZ2uHi4+Tl5ufo6erx8vP09fb3+Pn6/8QAHwEAAwEBAQEBAQEBAQAAAAAAAAECAwQFBgcICQoL/8QAtREAAgECBAQDBAcFBAQAAQJ3AAECAxEEBSExBhJBUQdhcRMiMoEIFEKRobHBCSMzUvAVYnLRChYkNOEl8RcYGRomJygpKjU2Nzg5OkNERUZHSElKU1RVVldYWVpjZGVmZ2hpanN0dXZ3eHl6goOEhYaHiImKkpOUlZaXmJmaoqOkpaanqKmqsrO0tba3uLm6wsPExcbHyMnK0tPU1dbX2Nna4uPk5ebn6Onq8vP09fb3+Pn6/9oADAMBAAIRAxEAPwD97KKKK8c7AooooAKKKKACiiigAooooAK8h/aD/azl+CHxS8J+C9J+G3j/AOJfibxfpWqa3b2fhmXSIfslnp82nw3Es0mpX9mn+s1K1CqjOxy5wAua9erwH4i/8pSPg7/2Svx3/wCnfwbVLcTD/hsX4if9Go/H3/wb+CP/AJoaP+GxfiJ/0aj8ff8Awb+CP/mhr36ii/kB4D/w2L8RP+jUfj7/AODfwR/80NH/AA2L8RP+jUfj7/4N/BH/AM0Ne/UUX8gPAf8AhsX4if8ARqPx9/8ABv4I/wDmho/4bF+In/RqPx9/8G/gj/5oa9+oov5AeA/8Ni/ET/o1H4+/+DfwR/8ANDR/w2L8RP8Ao1H4+/8Ag38Ef/NDXv1FF/IDwH/hsX4if9Go/H3/AMG/gj/5oaP+GxfiJ/0aj8ff/Bv4I/8Amhr36ii/kB4D/wANi/ET/o1H4+/+DfwR/wDNDR/w2L8RP+jUfj7/AODfwR/80Ne/UUX8gPAf+GxfiJ/0aj8ff/Bv4I/+aGj/AIbF+In/AEaj8ff/AAb+CP8A5oa9+oov5AeA/wDDYvxE/wCjUfj7/wCDfwR/80NH/DYvxE/6NR+Pv/g38Ef/ADQ179RRfyA8B/4bF+In/RqPx9/8G/gj/wCaGj/hsX4if9Go/H3/AMG/gj/5oa9+oov5AeA/8Ni/ET/o1H4+/wDg38Ef/NDR/wANi/ET/o1H4+/+DfwR/wDNDXv1FF/IDwH/AIbF+In/AEaj8ff/AAb+CP8A5oaP+GxfiJ/0aj8ff/Bv4I/+aGvfqKL+QHgP/DYvxE/6NR+Pv/g38Ef/ADQ0f8Ni/ET/AKNR+Pv/AIN/BH/zQ179RRfyA8B/4bF+In/RqPx9/wDBv4I/+aGj/hsX4if9Go/H3/wb+CP/AJoa9+oov5AeA/8ADYvxE/6NR+Pv/g38Ef8AzQ0f8Ni/ET/o1H4+/wDg38Ef/NDXv1FF/IDwH/hsX4if9Go/H3/wb+CP/mho/wCGxfiJ/wBGo/H3/wAG/gj/AOaGvfqKL+QHgP8Aw2L8RP8Ao1H4+/8Ag38Ef/NDR/w2L8RP+jUfj7/4N/BH/wA0Ne/UUX8gPAf+GxfiJ/0aj8ff/Bv4I/8Amho/4bF+In/RqPx9/wDBv4I/+aGvfqKL+QHgP/DYvxE/6NR+Pv8A4N/BH/zQ0f8ADYvxE/6NR+Pv/g38Ef8AzQ179RRfyA8B/wCGxfiJ/wBGo/H3/wAG/gj/AOaGj/hsX4if9Go/H3/wb+CP/mhr36ii/kB4D/w2L8RP+jUfj7/4N/BH/wA0NH/DYvxE/wCjUfj7/wCDfwR/80Ne/UUX8gPAf+GxfiJ/0aj8ff8Awb+CP/mho/4bF+In/RqPx9/8G/gj/wCaGvfqKL+QHgP/AA2L8RP+jUfj7/4N/BH/AM0NH/DYvxE/6NR+Pv8A4N/BH/zQ179RRfyA8B/4bF+In/RqPx9/8G/gj/5oaP8AhsX4if8ARqPx9/8ABv4I/wDmhr36ii/kB4D/AMNi/ET/AKNR+Pv/AIN/BH/zQ0f8Ni/ET/o1H4+/+DfwR/8ANDXv1FF/IDwH/hsX4if9Go/H3/wb+CP/AJoaP+GxfiJ/0aj8ff8Awb+CP/mhr36ii/kB4D/w2L8RP+jUfj7/AODfwR/80NH/AA2L8RP+jUfj7/4N/BH/AM0Ne/UUX8gPAf8AhsX4if8ARqPx9/8ABv4I/wDmho/4bF+In/RqPx9/8G/gj/5oa9+oov5AeA/8Ni/ET/o1H4+/+DfwR/8ANDR/w2L8RP8Ao1H4+/8Ag38Ef/NDXv1FF/IDwH/hsX4if9Go/H3/AMG/gj/5oaP+GxfiJ/0aj8ff/Bv4I/8Amhr36ii/kB4D/wANi/ET/o1H4+/+DfwR/wDNDR/w2L8RP+jUfj7/AODfwR/80Ne/UUX8gPAf+GxfiJ/0aj8ff/Bv4I/+aGj/AIbF+In/AEaj8ff/AAb+CP8A5oa9+oov5AeA/wDDYvxE/wCjUfj7/wCDfwR/80NH/DYvxE/6NR+Pv/g38Ef/ADQ179RRfyA8B/4bF+In/RqPx9/8G/gj/wCaGj/hsX4if9Go/H3/AMG/gj/5oa9+oov5AeA/8Ni/ET/o1H4+/wDg38Ef/NDR/wANi/ET/o1H4+/+DfwR/wDNDXv1FF/IDwH/AIbF+In/AEaj8ff/AAb+CP8A5oaP+GxfiJ/0aj8ff/Bv4I/+aGvfqKL+QHgP/DYvxE/6NR+Pv/g38Ef/ADQ0f8Ni/ET/AKNR+Pv/AIN/BH/zQ179RRfyA8B/4bF+In/RqPx9/wDBv4I/+aGj/hsX4if9Go/H3/wb+CP/AJoa9+oov5AeA/8ADYvxE/6NR+Pv/g38Ef8AzQ0f8Ni/ET/o1H4+/wDg38Ef/NDXv1FF/IDwH/hsX4if9Go/H3/wb+CP/mho/wCGxfiJ/wBGo/H3/wAG/gj/AOaGvfqKL+QHgP8Aw2L8RP8Ao1H4+/8Ag38Ef/NDR/w2L8RP+jUfj7/4N/BH/wA0Ne/UUX8gPAf+GxfiJ/0aj8ff/Bv4I/8Amho/4bF+In/RqPx9/wDBv4I/+aGvfqKL+QHgP/DYvxE/6NR+Pv8A4N/BH/zQ0f8ADYvxE/6NR+Pv/g38Ef8AzQ179RRfyA8B/wCGxfiJ/wBGo/H3/wAG/gj/AOaGj/hsX4if9Go/H3/wb+CP/mhr36ii/kB4D/w2L8RP+jUfj7/4N/BH/wA0NH/DYvxE/wCjUfj7/wCDfwR/80Ne/UUX8gPAf+GxfiJ/0aj8ff8Awb+CP/mho/4bF+In/RqPx9/8G/gj/wCaGvfqKL+QHgP/AA2L8RP+jUfj7/4N/BH/AM0NH/DYvxE/6NR+Pv8A4N/BH/zQ179RRfyA8B/4bF+In/RqPx9/8G/gj/5oaP8AhsX4if8ARqPx9/8ABv4I/wDmhr36ii/kB4D/AMNi/ET/AKNR+Pv/AIN/BH/zQ0f8Ni/ET/o1H4+/+DfwR/8ANDXv1FF/IDwH/hsX4if9Go/H3/wb+CP/AJoaP+GxfiJ/0aj8ff8Awb+CP/mhr36ii/kB5D+z5+1nL8b/AIpeLPBerfDbx/8ADTxN4Q0rS9buLPxNLpE32uz1CbUIbeWGTTb+8T/WabdBldkYYQ4IbNevV4D8Ov8AlKR8Yv8AslfgT/07+Mq9+oe4BRRRUjCiiigAooooAKKKKACiiigAooooAK8B+Iv/AClI+Dv/AGSvx3/6d/Bte/V4D8Rf+UpHwd/7JX47/wDTv4Nqo7iZ79RRRUjCiiigAooooAKKKKACiiigAooooAKKKKACiiigAooooAKKKKACiiigAooooAKKKKACiiigAooooAKKKKACiiigAooooAKKKKACiiigAooooAKKKKACiiigAooooAKKKKACiiigAooooAKKKKACiiigAooooAKKKKACiiigAooooAKKKKACiiigAooooAKKKKACiiigAooooAKKKKAOA8Q/tXfC3wjrHh3T9W+JPgHTL/xfqtzoWg2134htIZtb1C2uhaXNnao0gM9xFckQSRRhnSUhGAbiuv8ADXizS/GenSXmj6lYaraQ3VzYST2dwk8aXFtPJb3EJZSQJIp4pYnXqjxurAMpA/Ej/gvF+zZ42/bTn1jQfhath4nvpNf8SaFJez32j+GG8QXEuoeBFSEzHVbOLVo7W7iGkC4a2uDFcWNnYzW5u4otRr27xpoXwQ+Ov7Deg+Ita8N/8LV1/Wfip4+g8GT+GfDcHje+tdDv/iRK2ra1ZWD6fqlrNbw2iW8rXL2cg2vHBFNFJexl9fZqyZHNqfqT4T8WaX488Labrmh6lYazoms2sV/p+oWFwlxa31vKgeKaKVCVkjdGVlZSQwIIJBrP+KHxX8LfA/wLfeKPGniXQPCHhnTPL+2avreoQ6fY2nmSLFH5k8rKibpHRBkjLOoHJAr85f8Ag3h8P/BXXvhb4a8YW2p/AK7/AGgdU8Km71C38C6noEeqWekXsOkzXMN7p+kabpq2/l3sEYMNxDdSWrsUF44lZa3/AIS/s++KfEf7b2pav8NZf2JNW8TaB/a9z4u+JGg/AWYX3h7xC08cDaZLdx+IN8moXEc+ovcqs3nW6wp9oRRfQF1yJOw7n6N1n+LPFml+A/C2pa5rmpWGjaJo1rLf6hqF/cJb2tjbxIXlmllchY40RWZmYgKASSAK4D40+BPi1rPimDUPhv8AEfwh4ZtJLVbe90zxT4Lk8Q2odHdlntmtr+wmikcSFZRLJOjCGDy0gYTNPyH7R3hPzv2UbO1+OvxR8A6D4Zs9VtLnx5ra6d/wjui63p63gePTGW8vp0t7e6k+yWtys8twl1byXcASM3SNDNhnv1FfktF+z27/ALKn7VV54R+Fl/8AC7UfH3w2n8IaN4Y8AfCjUNE0z4im00PxSYtTmtLjTkn0+S7uLyaL7DJtuIJdK09ftl3BqNp9q99+MHwf8e+G/hV498PeNdHv/iH4z8Ua/wCH/EXiHxdoOhXDaf4w8H2niKxl1PQxYB7h7aOz0ua+txo4ef8AtGG4nmi+2Xd5qUUVcgrn3ZRX56fDf4R+GpP2yfhRrXwW+EHi/wCH/wAKNO8aWU97Cvg278IaNFfp4V8cQ3d2NFnsbWa3kIvNHhl1Fw0V0ZbG3Rg9myn9C6lqw07hRXk//CYfHL/onXwo/wDDi6h/8pKP+Ew+OX/ROvhR/wCHF1D/AOUlcn1uHaX/AIDL/I+g/wBW8X/PS/8AB9D/AOWHrFFeT/8ACYfHL/onXwo/8OLqH/ykrW8D+JPitf8Aii1i8SeDPh9pOitv+03emeM7zULqLCMV2QSaXAr5faDmVcAk8kbS1iYN2Sf/AIDL/Izq8P4qnB1JSp2SvpWot6dkqjbfkk2+h6FRRRXQeIFFFFAHgPw6/wCUpHxi/wCyV+BP/Tv4yr36vAfh1/ylI+MX/ZK/An/p38ZV79VS3EFFFFSMKKKKACiiigAooooAKKKKACiiigArwH4i/wDKUj4O/wDZK/Hf/p38G179XgPxF/5SkfB3/slfjv8A9O/g2qjuJnv1FFFSMKKKKACiiigAooooAKKKKACiiigAorzT9jH4mah8af2PPhR4x1a4e71XxZ4N0jWb2d4kiaee4soZpHKIAiks5OFAUZwBivS61rUatGpKjWi4zi2mnumtGn5p6GlamqdSUIyUkm1dbPzV7Oz3Wi0CiiisjMKKKKACiiigAooooAKKKKACiiigAooooAKKKKACiiigAooooAKKKKACiiigAooooAKKKKACiiigAooooAKKKKACiiigAooooAKKKKACiiigAooooAKKKKACiiigAooooAKKKKACiiigAooooAKKKKACiiigAooooAKKKKACiiigD5y8Nf8ABRyw13X5JLr4X/E7RvAqeNLnwCvji8bRW0aTVItak0JFEEOoyaj5c2potujmzABlSSTy4g8i7/wD/bYT9oPUfD91p3wy+J2meCPGlqL/AML+NLy20+bRtft5IDc20wS1vJr2zjntlaVGv7a2AOyKQx3EkUD+I/DX/gj/AP8ACBftBXHjH+1fhDB5/j/UfHX/AAkGjfDD+zfiEftWsz6r9gbxD/aMm63bzvsM4+yDz7AywYj8zeuh8Iv+CVeqfDb42/AvXrzxR8MdT0T9nq1Gi+GLqH4cPbeM7vRodH1DSrTT73WzqUiyRol8Z5RFZxRyzxb1ihDbRo+UnU9e8WftG/FOfxTqWgeFf2evF813BdS29jr/AIn8T6HpXhi7SNz+/ea0u77Uo45EUmIf2azl3iWRIVLvH69beLNLvPFN5ocWpWEut6dawX93p6XCNdWtvO8yQTSRA7ljke2uFRiAGMEoBJRsfIfgr/gjd8GfEHx7vvF3i79nn9nLQ9E0O1vtC8PeHtC8K2N7a6rb3Fxby/2rqXm2MKi82WsMcNvHGwtRJe/6Tci6At/o345fso/C39p7+y/+FlfDXwD8Q/7E83+zv+Em8PWmrf2f5uzzfJ+0Rv5e/wAuPdtxu8tM52ik7D1D9qH45f8ADOXwL1zxXDpf9vatb/Z9P0PRvtP2X+3dXvLiKz03T/PKOsH2m9uLaDznXy4vO3uQisR5DrH/AAVI8N/DvR/idJ8Q/APj/wCGGrfDDwrH4vl0XxBdaFLfeIrN7XWboR6d9i1K5imuPK0HUmMTyRsFgLn5Azr6drPwO0v4N/BzSdL+E3wv+GIu/BV01/4T0C42eHdG0q4mMsdzNDLbWVybSRoLu9y0VuxkM8iMVWV2HgWhf8EsfEGj/s2fFz4eL4+8IQR/GPQLvw7qN1a+D7zy/D1lLpuo2UOn6THPqszWel2z3NrcQWBkkhgc6osIijvoksRcvUWp7d4v/bS8LeFfDvjDV4bDX9a0nwnqtl4aivdPgha38Qa9dXw09NHsZJJUWS4S9ktrWWVzHaQz3Bie4V7a8W25/wAH/wDBQPR9W+Lnh74feJPAnj/wB488R6rb6fBoetjTLiaCC403Wb+2vpJrC9ubf7PKugapCFWVp1lgXfCkciStQ8Y/8E8NLtvBl74V+Hmq2Hw88EPdaZ4h03wvaaKkmjaHr+l6pZ6nY3dpBHJCILOWe0H22xiKJck+bDJZ3El1PdGj/sbePfFfxt8E/EH4ifFOw8Q634L1+HVINM0Lw7caRoBt4tH1/TlWK0n1C7aG8kfXpJJroTMJY7Czi8lDGZWPdsGp9G0UUVBQUV5P/wAMYeEP+gx8WP8Aw6Pib/5Po/4Yw8If9Bj4sf8Ah0fE3/yfXNzYj+Vf+BP/AOROH2mM/wCfcf8AwN//ACB6xRXk/wDwxh4Q/wCgx8WP/Do+Jv8A5PrW8D/syeHPh74ptdYsNS+IVxd2m/y49T8e67qdq25GQ77e5vJIX4Y43ocHDDDAENSr31irer/+RKjPF8y5oRt/if8A8gj0Kiiiug7AooooA8B+HX/KUj4xf9kr8Cf+nfxlXv1eA/Dr/lKR8Yv+yV+BP/Tv4yr36qluIKKKKkYUUUUAFFFFABRRRQAUUUUAFFFFABXgPxF/5SkfB3/slfjv/wBO/g2vfq8B+Iv/AClI+Dv/AGSvx3/6d/BtVHcTPfqKKKkYUUUUAFFFFABRRRQAUUUUAFFFFAHiH/BMv/lG7+z7/wBk18Of+mu2r2+vEP8AgmX/AMo3f2ff+ya+HP8A0121e319Dxd/yPcb/wBfan/pbMcP/Cj6IKKKK+eNgooooAKKKKACiiigAooooAKKKKACiiigAooooAKKKKACiiigAooooAKKKKACiiigAooooAKKKKACiiigAooooAKKKKACiiigAooooAKKKKACiiigAooooAKKKKACiiigAooooAKKKKACiiigAooooAKKKKACiiigAooooAKKKKAPy1+Kv7QPj3RPgJ/wUAvfh34isNc1vwja60Z5JviTcR3Xg23S31xmurJINd15re8ieKMxWxs9BDGPGIzCIrf0/wD4K6/F749/Cn9lv4YeONO1D/hWOraF4qlvPGUvg661HX9O0PT47S9kkuru7XRLtpNP+xRTxMJtGdIb69sLgyKliy3P0boX/BOn4QeHdO+Llnb+Gb9rT452t3YeM4LjxDqdzHqNvdT6jcXEMKyXDCyjefVtRlK2nkgPdyMAGwRv/tL/ALFnwl/bJ07R7X4qfDrwh4+j8PXSXmmNrWmx3Mlg6zwTsI3Ybljke2hEsYOydE8uVXjLIdeZXJs7HyH/AMEVPil8WviT8Y/jXpnxA8b/ABO8SaL4MurQ6fa+IrWRbe0utTD3txZyyX3hnRb43lttWdEQfZYrLWrKJIVEMbk8e/FH4geK/j3D4Q8T+Ff267qPxna6p4js/BVhr/w40K1NhZ3FokqxanpeoW2pwx202oWAUDUVllBCyNPH54b6t/Z9/YB+CH7KHjrXfE3w0+E/gHwLr/iT5b+/0TRILOZojHbxm3jKKPJtz9lgcwRbYmlVpShkd3br/hz8CvDXwr8U+Jtc0m1v31vxhdfatU1DUtVu9UupQHkeO2jluZZGgs4nnnaG0iKW8JuJjHGhlfcnJXugs7HP/Gn41+NvhR4pgi0b4OeL/iXol5aq8d34W1jR4rqzuFdxLHcwaneWSrGUMJikhlnLnzxIkAjjafA+NN58Qv2gf2YoNH8PeGPF/wANPEPxAul0LVJL7VLC31bwTpckrpfaglxY3dxGl59jjl+xPbvcFLu4smmjWJbgxe3Vz/xQ+GunfF/wLfeHdWuNftLDUPL82XRNdvtDvk2SLIPLu7KWG4i+ZAD5ci7lLK2VZlM3GfAmoftO/GjwH+z7+1f4m8PeN/H/AImsPhd4AkK3XxG0rRdK13wJ4qtdG1rUL62jt7DTIrfUPLV/DLqzeZZTR3cssF3cKhjf0/xZ+1z8Qrv4VeN9R1Ca/wDhr46vPGnhPwdD4KvLWwuNQ8C6RrHiK20mHWRMpngvby6t7ue5SZXn0+Ga0S08qaWxv2uffdK/Ym+DOheFotDsvhH8MbPRILV7CPT4PC1jHax27pfo8IiEQURsmq6opUDBGpXgIxcS7uv8afCjwt8SPO/4SLw1oGvfaNKvNCl/tHT4brzdPvPK+12bb1ObefyIPNiPySeTHuB2riuZCsz5TuPiv8QvgH+3D8NvhLc/F2/+IOl69r+nXGpNrulWEWvi1u/D/jacwSvZafa2Qszc+H7KSEwqboSQ3gmfyZIEP2ZXAfC/9lH4W/A/R7HT/Bfw18A+ELDTNVk12zttE8PWmnw2moSWrWkl5GkUahLhrZ3gMoAcxOyE7SRXf1Laew0eIf8ADwXwH/0Afjf/AOGY8Yf/ACso/wCHgvgP/oA/G/8A8Mx4w/8AlZXt9Fe/9ZyL/oGrf+Dof/M5lar3X3f8E8Q/4eC+A/8AoA/G/wD8Mx4w/wDlZW58OP2xPCXxU8Z2eg6ZpHxTtb6+3+VLrHwy8SaNZLsRpD5l1eWEUEfCkDfIu5iqjLMAfU6KzrYjJnTkqWHqqVtG60Gk+ja9grryur90NKrfVr7v+CFFFFeEahRRRQB4D8Ov+UpHxi/7JX4E/wDTv4yr36vAfh1/ylI+MX/ZK/An/p38ZV79VS3EFFFFSMKKKKACiiigAooooAzvFvi3TPAXhXUtc1vULPSdG0a1lvr++u5lht7OCJC8ksjsQFRVUkknAAJryrxv/wAFAvhN8P8A4IeEPiJf+JLyfwt49sV1Tw/Jpug6jqV7qdobb7WbhLK2gkuvKS3HmSO0QES8uVrs/j38IvC3xp+G93pfi/w7o3ifS7Q/2hFZarZpd2wuIlZopTG4Klkb5lJB2sFYYIBHwB8D/jF4V/Zd+EP7FXxI+JGs6d4Z+H8PwIv/AA8+r6lII7KDUp7PQ7uG3Z2+USz29jdiNc5kMRRQWIBS+CpJ7xtb5xqSt6ycFFdm/tXsaRhdxS63/OO3ond/pa7+1Piv+3n8JvgpceGU8QeLokTxdaxajp9xYWF1qVsllLJFFHfXM1tFJHaWbSTxKLq4aODL/f4OLnjH9tH4a+Avjxpnw11TxFJB4u1WW3t44U0u8ms7ae4WVra3ub1ImtbWecQyeVFPKkkuBsVsjP5nXjj9mT9k/XvBXxGVtD8W/Ff9lzw94M8F6Rfrtu9b1mIarbyaRbRty92kuqaeDAmWAk3YwjEenfFnXLXwn8Sfif8ABzVb6Bfi18Qfi78P/EnhjSXk3X2s6bbR6AZ7+3B+d4Lb+x9T82RQRF5DbiN67u76tD6x7K+nNa/f94oWXnFNye+z0S1WEmlG6kn7t79F7kZcz1+FuTS1+y9X0+49A/bR+Gvij9oK5+F9j4ikn8Y2rXEJh/su8Wxmnt445bi1ivjELSa6ijlR5LeOZpo1JZkAViOT+Iv/AClI+Dv/AGSvx3/6d/BtfLHwV8V6dqXx3+F/wigvIJPip4D+PXjTxf4k0ZW/0/S9GnTXpodRmX76208WracscrDbI1wqAkqwHtPhPw58UtA/4KkfDH/hZXjHwD4s834V+Nv7O/4Rnwdd+HvsuNX8Ieb532jU77zt2Y9u3ytmx879w2c6ivZxnfdffondeWtl6FVfdrSprVJv8JSjZ+doqXpJer+vKKKKyGFFFFABRRRQAUUUUAFFFFABXPfFv4k2PwZ+FPibxhqkV3PpvhTSbrWLuK1VWnkht4XmdYwzKpcqhABYDOMkda6GvE/+CllxJaf8E5fj/LE7xSxfDfxE6OhwyMNMuSCD2NduXYCpjsXSwVKXLKpKMU3snJpJv0ua0KlGnUjUxEXKCacktG0t0n0bWwz/AIJl/wDKN39n3/smvhz/ANNdtXt9eIf8Ey/+Ubv7Pv8A2TXw5/6a7avb69Ti7/ke43/r7U/9LZyYf+FH0QUUUV88bBRRRQAUUUUAFFFFABRRRQAUUUUAFFFFABRRRQAUUUUAFFFFABRRRQAUUUUAFFFFABRRRQAUUUUAFFFFABRRRQAUUUUAFFFFABRRRQAUUUUAFFFFABRRRQAUUUUAFFFFABRRRQAUUUUAFFFFABRRRQAUUUUAFFFFABRRRQAUUUUAFFFFABRRRQAUUUUAFFFFABRRRQAUUUUAFFFFABRRRQAUUUUAeA/Dr/lKR8Yv+yV+BP8A07+Mq9+rwH4df8pSPjF/2SvwJ/6d/GVe/VUtxBRRRUjCiiigAooooAKKKKACiiigAooooAK8B+Iv/KUj4O/9kr8d/wDp38G179XgPxF/5SkfB3/slfjv/wBO/g2qjuJnv1FFFSMKKKKACiiigAooooAKKKKACvEP+Cmn/KN39oL/ALJr4j/9NdzXt9eIf8FNP+Ubv7QX/ZNfEf8A6a7mvoeEf+R7gv8Ar9T/APS0Y4j+FL0Yf8Ey/wDlG7+z7/2TXw5/6a7avb68Q/4Jl/8AKN39n3/smvhz/wBNdtXt9HF3/I9xv/X2p/6Www/8KPogooor542CiiigAooooAKKKKACiiigAooooAKKKKACiiigAooooAKKKKACiiigAooooAKKKKACiiigAooooAKKKKACiiigAooooAKKKKACiiigAooooAKKKKACiiigAooooAKKKKACiiigAooooAKKKKACiiigAooooAKKKKACiiigAooooAKKKKACiiigAooooAKKKKACiiigAooooAKKKKACiiigAooooA8B+HX/AClI+MX/AGSvwJ/6d/GVe/V4D8Ov+UpHxi/7JX4E/wDTv4yr36qluIKKKKkYUUUUAFFFFABRRRQAUUUUAFFFFABXgPxF/wCUpHwd/wCyV+O//Tv4Nr36vAfiL/ylI+Dv/ZK/Hf8A6d/BtVHcTPfqKKKkYUUUUAFFFFABRRRQAUUUUAFeIf8ABTT/AJRu/tBf9k18R/8Aprua9vrxD/gpp/yjd/aC/wCya+I//TXc19Dwj/yPcF/1+p/+loxxH8KXow/4Jl/8o3f2ff8Asmvhz/0121e314h/wTL/AOUbv7Pv/ZNfDn/prtq9vo4u/wCR7jf+vtT/ANLYYf8AhR9EFFFFfPGwUUUUAFFFFABRRRQAUUUUAFFFFABRRRQAUUUUAFFFFABRRRQAUUUUAFFFFABRRRQAUUUUAFFFFABRRRQAUUUUAFFFFABRRRQAUUUUAFFFFABRRRQAUUUUAFFFFABRRRQAUUUUAFFFFABRRRQAUUUUAFFFFABRRRQAUUUUAFFFFABRRRQAUUUUAFFFFABRRRQAUUUUAFFFFABRRRQAUUUUAFFFFAHgPw6/5SkfGL/slfgT/wBO/jKvfq8B+HX/AClI+MX/AGSvwJ/6d/GVe/VUtxBRRRUjCiiigAooooAKKKKACiiigAooooAK8B+Iv/KUj4O/9kr8d/8Ap38G179XgPxF/wCUpHwd/wCyV+O//Tv4Nqo7iZ79RRRUjCiiigAooooAKKKKACiiigArxD/gpp/yjd/aC/7Jr4j/APTXc17fXiH/AAU0/wCUbv7QX/ZNfEf/AKa7mvoeEf8Ake4L/r9T/wDS0Y4j+FL0Yf8ABMv/AJRu/s+/9k18Of8Aprtq9vrxD/gmX/yjd/Z9/wCya+HP/TXbV7fRxd/yPcb/ANfan/pbDD/wo+iCiiivnjYKKKKACiiigAooooAKKKKACiiigAooooAKKKKACiiigAooooAKKKKACiiigAooooAKKKKACiiigAooooAKKKKACiiigAooooAKKKKACiiigAooooAKKKKACiiigAooooAKKKKACiiigAooooAKKKKACiiigAooooAKKKKACiiigAooooAKKKKACiiigAooooAKKKKACiiigAooooAKKKKACiiigDwH4df8pSPjF/2SvwJ/6d/GVe/V4D8Ov+UpHxi/7JX4E/8ATv4yr36qluIKKKKkYUUUUAFFFFABRRRQAUUUUAFFFFABXgPxF/5SkfB3/slfjv8A9O/g2vfq8B+Iv/KUj4O/9kr8d/8Ap38G1UdxM9+oooqRhRRRQAUUUUAFFFFABRRRQAV4h/wU0/5Ru/tBf9k18R/+mu5r2+vEP+Cmn/KN39oL/smviP8A9NdzX0PCP/I9wX/X6n/6WjHEfwpejD/gmX/yjd/Z9/7Jr4c/9NdtXt9eIf8ABMv/AJRu/s+/9k18Of8Aprtq9vo4u/5HuN/6+1P/AEthh/4UfRBRRRXzxsFFFFABRRRQAUUUUAFFFFABRRRQAUUUUAFFFFABRRRQAUUUUAFFFFABRRRQAUUUUAFFFFABRRRQAUUUUAFFFFABRRRQAUUUUAFFFFABRRRQAUUUUAFFFFABRRRQAUUUUAFFFFABRRRQAUUUUAFFFFABRRRQAUUUUAFFFFABRRRQAUUUUAFFFFABRRRQAUUUUAFFFFABRRRQAUUUUAFFFFABRRRQB4D8Ov8AlKR8Yv8AslfgT/07+Mq9+rwH4df8pSPjF/2SvwJ/6d/GVe/VUtxBRRRUjCiiigAooooAKKKKACiiigAooooAK8B+Iv8AylI+Dv8A2Svx3/6d/Bte/V4D8Rf+UpHwd/7JX47/APTv4Nqo7iZ79RRRUjCiiigAooooAKKKKACiiigArxD/AIKaf8o3f2gv+ya+I/8A013Ne314h/wU0/5Ru/tBf9k18R/+mu5r6HhH/ke4L/r9T/8AS0Y4j+FL0Yf8Ey/+Ubv7Pv8A2TXw5/6a7avb68Q/4Jl/8o3f2ff+ya+HP/TXbV7fRxd/yPcb/wBfan/pbDD/AMKPogooor542CiiigAooooAKKKKACiiigAooooAKKKKACiiigAooooAKKKKACiiigAooooAKKKKACiiigAooooAKKKKACiiigAooooAKKKKACiiigAooooAKKKKACiiigAooooAKKKKACiiigAooooAKKKKACiiigAooooAKKKKACiiigAooooAKKKKACiiigAooooAKKKKACiiigAooooAKKKKACiiigAooooA8B+HX/KUj4xf9kr8Cf8Ap38ZV79XgPw6/wCUpHxi/wCyV+BP/Tv4yr36qluIKKKKkYUUUUAFFFFABRRRQAUUV5F+0x+0B4r+GHi/wP4U8BeEdA8ZeL/G9xeGO21rxBPodjY2dpB5s9zJcQ2V4/DvbxBRFy1wvzAA0Aeu0V8v/tLf8FAfEn7PepX1nB8ObDxLP4C8I23jj4kNbeJWhi8OabLNLGwsC1oW1CcC1vpVjkW0DR2vLo0ipUnxB/4KJ3HhP413mn6b4Kh1j4a+GvEeieEfE/i0655FxpupaukDWot7LyGFzAhvdPE0rTwlPteVSXy3q405SajHdu348v3N6J7NtWeom7J36K/4J/N2adlrqtNT6crwH4i/8pSPg7/2Svx3/wCnfwbWL4I/4KDXvi79oLS9Fk8Dx2fw28TeKtX8C6D4t/tvzLu+1vTI53njksPICxWrtZX8cU4uHdntRuiRZFatr4i/8pSPg7/2Svx3/wCnfwbQk7KXRr9Pw9HqEtJOD3X6O35pr1TW6Z79RRRUDCiiigAooooAKKKKACiiigArxD/gpp/yjd/aC/7Jr4j/APTXc17fXiH/AAU0/wCUbv7QX/ZNfEf/AKa7mvoeEf8Ake4L/r9T/wDS0Y4j+FL0Yf8ABMv/AJRu/s+/9k18Of8Aprtq9vrxD/gmX/yjd/Z9/wCya+HP/TXbV7fRxd/yPcb/ANfan/pbDD/wo+iCiiivnjYKKKKACiiigAooooAKKKKACiiigAooooAKKKKACiiigAooooAKKKKACiiigAooooAKKKKACiiigAooooAKKKKACiiigAooooAKKKKACiiigAooooAKKKKACiiigAooooAKKKKACiiigAooooAKKKKACiiigAooooAKKKKACiiigAooooAKKKKACiiigAooooAKKKKACiiigAooooAKKKKACiiigDwH4df8pSPjF/2SvwJ/6d/GVe/V4D8Ov+UpHxi/7JX4E/8ATv4yr36qluIKKKKkYV5j8ZP2xvh18CfE6aBrmvT3niqS2W+Xw14f0q88Q+IGtGYoLr+zdPinvPswdSpn8ry1bALAkA+nV8//ALc3jfxN+z74F0bxN4D0HW5Y73xfZXfjNvC3hw6vrN5Ypbup220UE0kzSvBZWjyLGzxW8jsrR+UrpLlZq+zaX3tL9bvd6aJlxjzXtvZv7lf8bWW2vU3fht+3x8Lfid45sfC8Wuat4Z8UawWGlaN4y8N6n4R1HXNqlpPsNvqtvbS3gjVcubdZBGCu/buGfY6+Tf8Agn1cfGfx6niXR/jzBfeIYrbT/D+sGTW9AtLODTtelR7y906x8qGNLmzsWFj5Vw3muJvOBndo8R/WVdFan7N8vX1uv6+9PdOxhCfNqtvT+v0a2eoUUUViaBXzN+3n8DtE+JvjnwfrHiH9miD9oqx0nT9RsYYvt+lyyaLLO9q+Tp2qz29lNHJ9nXM/mtPE0SBI2WR2X6ZopOKe/wDWjXqt+hSk1sfnV8RP2NPjl4C+Fmp+ErTQ5vijrHxc+CmlfCvXvEaazaww+GtStTeQyahd/a5Y57i1aHVZpN0CTTs1ngx/vQR1XxJ/ZL+JMHxV8YfD3R/B9zqngT4l+PvCXjiXxt/adlHa6DBpUemC7tJ7d5lunuHOiQiEwwSRn7cN7x+U2fuuiun6zP2ntvtXu/P31NJ+Skla2tlZt6kSvJavppto+WMbrztFeWm258P/AAs/Zi+JmlfHfwd4K1DwZPZeBPhv8U/EnxLi8atqdk9prdvqKalJbWMNusxu0uVm1mVZTLAkQWxLJI5lUDpPCf7Nnh39nn/gqR8Mf7A1Hx/f/wBr/Cvxt5//AAk3jrW/E/l+Xq/hDb5P9p3dx5GfMbd5WzfhN27YuPryvAfiL/ylI+Dv/ZK/Hf8A6d/BtZqb5VHsvvdrXfnovLyCo3ObqS3f6ycv/SpN/PtY9+ooorMYUUUUAFFFFABRRRQAUUUUAFeIf8FNP+Ubv7QX/ZNfEf8A6a7mvb68Q/4Kaf8AKN39oL/smviP/wBNdzX0PCP/ACPcF/1+p/8ApaMcR/Cl6MP+CZf/ACjd/Z9/7Jr4c/8ATXbV7fXiH/BMv/lG7+z7/wBk18Of+mu2r2+ji7/ke43/AK+1P/S2GH/hR9EFFFFfPGwUUUUAFFFFABRRRQAUUUUAFFFFABRRRQAUUUUAFFFFABRRRQAUUUUAFFFFABRRRQAUUUUAFFFFABRRRQAUUUUAFFFFABRRRQAUUUUAFFFFABRRRQAUUUUAFFFFABRRRQAUUUUAFFFFABRRRQAUUUUAFFFFABRRRQAUUUUAFFFFABRRRQAUUUUAFFFFABRRRQAUUUUAFFFFABRRRQAUUUUAFFFFAHgPw6/5SkfGL/slfgT/ANO/jKvfq8B+HX/KUj4xf9kr8Cf+nfxlXv1VLcQUUUVIwr5+/wCCi+i/ELxD8KPC9n4B0bx54igl8VWR8U6Z4N12z0HWb7RQsrTpDf3F3aG2PmCEloJlmcAxho1kaVPoGvmz9sa6079oTxPovw+8J+JvBF18TvAOv2HjRvAfie/ewh8UWdvyPNURSzG1WSaOWO7igniju7SNSGaN1VWvOKe14t9dE03p1SW66rTS5Suoyt/LLy1aaVn0d2rPo7M4H9kPxb8X/hB8bfE2i3PwL/aHi+FWuS6Wugv4r8c6B4mvNBuD5qahc3F1ca/cXv2Y5t2WFHuSvlSsiqZPKr7Rr5P+BF3/AMM3ftKeLta+KutfDH4f+LfjldafHofw88La9Pq7anc2qtFcaonmW1rPdXMqzQLcPHZhYYLKFpJGVWZPrCtqjbSb+/7tL+X397bLGKSk0v8AL528/wAd1fdlFFFZGgUUUUAFFFFABXgPxF/5SkfB3/slfjv/ANO/g2vfq8B+Iv8AylI+Dv8A2Svx3/6d/BtVHcTPfqKKKkYUUUUAFFFFABRRRQAUUUUAFeIf8FNP+Ubv7QX/AGTXxH/6a7mvb68Q/wCCmn/KN39oL/smviP/ANNdzX0PCP8AyPcF/wBfqf8A6WjHEfwpejD/AIJl/wDKN39n3/smvhz/ANNdtXt9eIf8Ey/+Ubv7Pv8A2TXw5/6a7avb6OLv+R7jf+vtT/0thh/4UfRBRRRXzxsFFFFABRRRQAUUUUAFFFFABRRRQAUUUUAFFFFABRRRQAUUUUAFFFFABRRRQAUUUUAFFFFABRRRQAUUUUAFFFFABRRRQAUUUUAFFFFABRRRQAUUUUAFFFFABRRRQAUUUUAFFFFABRRRQAUUUUAFFFFABRRRQAUUUUAFFFFABRRRQAUUUUAFFFFABRRRQAUUUUAFFFFABRRRQAUUUUAFFFFABRRRQB4D8Ov+UpHxi/7JX4E/9O/jKvfq8B+HX/KUj4xf9kr8Cf8Ap38ZV79VS3EFFFFSMK4X4k/DX4Z/tVaFqnhTxfoHgX4kab4f1KOLUtG1ixtdYg02+EEc8azQSq6xz+RcxSKGUN5dwjD5XBPdV+M//BRD4jfEbwJ8YvH+q+E9S8f+HfiXp/x+1+58Kad4G8NN4th1K8i+D1qumPL5mlT7biXNtG1vhVWK+1FgZlsxe29RgpaMXM1qj9W/gf8AssfDD9mSHUY/ht8OPAfw+j1do2v18NeH7TSRemPcEMogjTeV3NjdnG446mu9r81f2X/FmqeM/wBrXwPeeJNS+J2q+Hofjn8RLCyn1i4eeyTxNbSeLrexhsGuiZRpcXh6K9iuFg/0ZLqPSVtgJV1gD9Kqc731dxRtbQKKKKgoKKKKACiiigArwH4i/wDKUj4O/wDZK/Hf/p38G179XgPxF/5SkfB3/slfjv8A9O/g2qjuJnv1FFFSMKKKKACiiigAooooAKKKKACvEP8Agpp/yjd/aC/7Jr4j/wDTXc17fXiH/BTT/lG7+0F/2TXxH/6a7mvoeEf+R7gv+v1P/wBLRjiP4UvRh/wTL/5Ru/s+/wDZNfDn/prtq9vr56/4JMeONL+IX/BMX4B3+j3X2u0g8CaRpkknlvHtuLS1jtbhMMAfknhlTOMHblSVIJ+haXFjTzzGNbe1qf8ApbNIUp0oqlVTjKOjT0aa3TXRoKKKK+fKCiiigAooooAKKKKACiiigAooooAKKKKACiiigAooooAKKKKACiiigAooooAKKKKACiiigAooooAKKKKACiiigAooooAKKKKACiiigAooooAKKKKACiiigAooooAKKKKACiiigAooooAKKKKACiiigAooooAKKKKACiiigAooooAKKKKACiiigAooooAKKKKACiiigAooooAKKKKACiiigAooooA8B+HX/KUj4xf9kr8Cf+nfxlXv1eA/Dr/lKR8Yv+yV+BP/AE7+Mq9+qpbiCiiipGFfGf7RHwX+Hfw0/aF8ZeLNV/aV8X/CK7vrq2+ImqxNbeFn0bwvcGwtfDUF+b3VdHuTp8l1BD9miElyhuCt8sKsqXAT7Mr8hv2/fDd18eP27NL0L4X/ABZ8A+KvE2hardatPpngbxR4QtfiBf6hD4o8H3lzpF5YX4EM9xp9h4euJra5bY5TSba2uwRbu+o6U1dkyPr34H+NPDfiX46fDeDSv2otA/aDh1X7Xr+nafq2i6Fr+qWkUVvf2I1TTLzQoLNNNtxJ9stJ7y7huYpHIs45LeWYrN9eV+U3/BL3Tl8bfGr4ReKfCv7QP/CwvFlj4q+IE3i3wQ3i3wPq82geE9av9T1H7bOmjRlzcT6nB4aklaC4ljiluJI0WOFmRf1ZpTVmEQoooqCgooooAKKKKACvAfiL/wApSPg7/wBkr8d/+nfwbXv1eA/EX/lKR8Hf+yV+O/8A07+DaqO4me/UUUVIwooooAKKKKACiiigAooooAK8Q/4Kaf8AKN39oL/smviP/wBNdzXt9eIf8FNP+Ubv7QX/AGTXxH/6a7mvoeEf+R7gv+v1P/0tGOI/hS9GVP8Agm1oNj4T/ZmvdI0uytNN0rR/H/jjT7CytIVht7K2h8WavHDBFGoCpGkaqiooAVVAAAAr3qvEP+CfX/JB9e/7KV4+/wDUw1mvb6XFumeY1L/n7U/9LZVKcpU4yk7toKKKK+fNAooooAKKKKACiiigAooooAKKKKACiiigAooooAKKKKACiiigAooooAKKKKACiiigAooooAKKKKACiiigAooooAKKKKACiiigAooooAKKKKACiiigAooooAKKKKACiiigAooooAKKKKACiiigAooooAKKKKACiiigAooooAKKKKACiiigAooooAKKKKACiiigAooooAKKKKACiiigAooooAKKKKAPAfh1/wApSPjF/wBkr8Cf+nfxlXv1eA/Dr/lKR8Yv+yV+BP8A07+Mq9+qpbiCiiipGFeA+LP+Cfmj6t4F8M6RoXjrx/4Kv/CHj/XPiNpet6QdMmvoNQ1eTWHu4it5ZXFu1vt1y9RFaEuqiL5yylm9+op3EeQ/An9i3wt8D/gr8IfBUl/r/i+H4G7P+ET1TW54UvrTy7C60yHzPskVvDL5dheTW43RHK7XbdKPNr16iii9wCiiikMKKKKACiiigArwH4i/8pSPg7/2Svx3/wCnfwbXv1eA/EX/AJSkfB3/ALJX47/9O/g2qjuJnv1FFFSMKKKKACiiigAooooAKKKKACvEP+Cmn/KN39oL/smviP8A9NdzXt9eIf8ABTT/AJRu/tBf9k18R/8Aprua+h4R/wCR7gv+v1P/ANLRjiP4UvRh/wAE+v8Akg+vf9lK8ff+phrNe314h/wT6/5IPr3/AGUrx9/6mGs17fRxd/yPcb/19qf+lsMP/Cj6IKKKK+eNgooooAKKKKACiiigAooooAKKKKACiiigAooooAKKKKACiiigAooooAKKKKACiiigAooooAKKKKACiiigAooooAKKKKACiiigAooooAKKKKACiiigAooooAKKKKACiiigAooooAKKKKACiiigAooooAKKKKACiiigAooooAKKKKACiiigAooooAKKKKACiiigAooooAKKKKACiiigAooooAKKKKAPAfh1/wApSPjF/wBkr8Cf+nfxlXv1eA/Dr/lKR8Yv+yV+BP8A07+Mq9+qpbiCiiipGFFFFABRRRQAUUUUAFFFFABRRRQAV4D8Rf8AlKR8Hf8Aslfjv/07+Da9+rwH4i/8pSPg7/2Svx3/AOnfwbVR3Ez36iiipGFFFFABRRRQAUUUUAFFFFABXiH/AAU0/wCUbv7QX/ZNfEf/AKa7mvb68Q/4Kaf8o3f2gv8AsmviP/013NfQ8I/8j3Bf9fqf/paMcR/Cl6MP+CfX/JB9e/7KV4+/9TDWa9vrxD/gn1/yQfXv+ylePv8A1MNZr2+ji7/ke43/AK+1P/S2GH/hR9EFFFFfPGwUUUUAFFFFABRRRQAUUUUAFFFFABRRRQAUUUUAFFFFABRRRQAUUUUAFFFFABRRRQAUUUUAFFFFABRRRQAUUUUAFFFFABRRRQAUUUUAFFFFABRRRQAUUUUAFFFFABRRRQAUUUUAFFFFABRRRQAUUUUAFFFFABRRRQAUUUUAFFFFABRRRQAUUUUAFFFFABRRRQAUUUUAFFFFABRRRQAUUUUAFFFFAHgPw6/5SkfGL/slfgT/ANO/jKvfq8B+HX/KUj4xf9kr8Cf+nfxlXv1VLcQUUUVIwooooAKKKKACiiigAooooAKKKKACvAfiL/ylI+Dv/ZK/Hf8A6d/Bte/V4D8Rf+UpHwd/7JX47/8ATv4Nqo7iZ79RRRUjCiiigAooooAKKKKACiiigArxD/gpp/yjd/aC/wCya+I//TXc17fXiH/BTT/lG7+0F/2TXxH/AOmu5r6HhH/ke4L/AK/U/wD0tGOI/hS9GH/BPr/kg+vf9lK8ff8AqYazXt9eIf8ABPr/AJIPr3/ZSvH3/qYazXt9HF3/ACPcb/19qf8ApbDD/wAKPogooor542CiiigAooooAKKKKACiiigAooooAKKKKACiiigAooooAKKKKACiiigAooooAKKKKACiiigAooooAKKKKACiiigAooooAKKKKACiiigAooooAKKKKACiiigAooooAKKKKACiiigAooooAKKKKACiiigAooooAKKKKACiiigAooooAKKKKACiiigAooooAKKKKACiiigAooooAKKKKACiiigAooooA8B+HX/KUj4xf9kr8Cf+nfxlXv1eA/Dr/lKR8Yv+yV+BP/Tv4yr36qluIKKKKkYUUUUAFFFFABRRRQAUUUUAFFFFABXgPxF/5SkfB3/slfjv/wBO/g2vfq8B+Iv/AClI+Dv/AGSvx3/6d/BtVHcTPfqKKKkYUUUUAFFFFABRRRQAUUUUAFeIf8FNP+Ubv7QX/ZNfEf8A6a7mvb6+b/8AgrJ8NrH41fsSar4I1SW7g0rxz4o8J+Gb+W0ZVuIba+8S6XaTPEzKyiQRzMVLKwDAZVhkH3+E21nmDcVd+1p/+loOWnL3a0uWL3dr2XV20vZdLq50P/BPr/kg+vf9lK8ff+phrNe314h/wT6/5IPr3/ZSvH3/AKmGs17fVcXf8j3G/wDX2p/6WzHD/wAKPogooor542CiiigAooooAKKKKACvENA/aO/42ReK/hFfaz/zTXRfF+iaT9k/6imrWmo3HnBP+wWmx390X/Wmvb6+If8AnZE/7tr/APdor7LhDLKGOhj4V18GHnNPS6lCUJK107XtZ215W1dXObETcXBrukfb1FFFfGnSFFFFABRRRQAUUUUAFFFFABRRRQAUUUUAFFFFABRRRQAUUUUAFFFFABRRRQAUUUUAFFFFABRRRQAUUUUAFFFFABRRRQAUUUUAFFFFABRRRQAUUUUAFFFFABRRRQAUUUUAFFFFABRRRQAUUUUAFFFFABRRRQAUUUUAFFFFABRRRQAUUUUAFFFFABRRRQAUUUUAeA/Dr/lKR8Yv+yV+BP8A07+Mq9+rwH4df8pSPjF/2SvwJ/6d/GVe/VUtxBRRRUjCiiigAooooAKKKKACiiigAooooAK8B+Iv/KUj4O/9kr8d/wDp38G179XgPxF/5SkfB3/slfjv/wBO/g2qjuJnv1FFFSMKKKKACiiigAooooAKKKKACvEP+Cgv/JB9B/7KV4B/9TDRq9vrxD/goL/yQfQf+yleAf8A1MNGr6HhH/ke4L/r9T/9LRjiP4UvRh/wT6/5IPr3/ZSvH3/qYazXt9eIf8E+v+SD69/2Urx9/wCphrNe30cXf8j3G/8AX2p/6Www/wDCj6IKKKK+eNgooooAKKKKACiiigAr4h/52RP+7a//AHaK+3q+If8AnZE/7tr/APdor9C8Pv8AmZf9glb/ANtOPGfY/wASPt6iiivz07AooooAKKKKACiiigAooooAKKKKACiiigAooooAKKKKACiiigAooooAKKKKACiiigAooooAKKKKACiiigAooooAKKKKACiiigAooooAKKKKACiiigAooooAKKKKACiiigAooooAKKKKACiiigAooooAKKKKACiiigAooooAKKKKACiiigAooooAKKKKACiiigDwH4df8pSPjF/2SvwJ/wCnfxlXv1eA/Dr/AJSkfGL/ALJX4E/9O/jKvfqqW4goooqRhRRRQAUUUUAFFFFABRRRQAUUUUAFeA/EX/lKR8Hf+yV+O/8A07+Da9+rwH4i/wDKUj4O/wDZK/Hf/p38G1UdxM9+oooqRhRRRQAUUUUAFFFFABRRRQAV4h/wUF/5IPoP/ZSvAP8A6mGjV7fXiH/BQX/kg+g/9lK8A/8AqYaNX0PCP/I9wX/X6n/6WjHEfwpejD/gn1/yQfXv+ylePv8A1MNZr2+vEP8Agn1/yQfXv+ylePv/AFMNZr2+ji7/AJHuN/6+1P8A0thh/wCFH0QUUUV88bBRRRQAUUUUAFFFFABXxD/zsif921/+7RX29XxD/wA7In/dtf8A7tFfoXh9/wAzL/sErf8Atpx4z7H+JH29RRRX56dgUUUUAFFFFABRRRQAUUUUAFFFFABRRRQAUUUUAFFcPr/xl/sP9pHwp8Pv7O83/hJ/DWteIvt/2jb9m/s660m38ny9p3eZ/am7duG3yMbW35XuK6a2Fq0YU6lRWVRc0fNc0o38vei1r2vtYlSTbS6BRRRXMUFFFFABXxf/AMHCfiO58Jf8Egvi3qNoUFxbNorLvXcrA63p4II9CCR688EGvtCviH/g45/5Qy/GT/uCf+nzT6+18NcuwuYcXZVl+OpqpRq4mhCcJK8ZQlVjGUZLqmm011Qvr+JwP+3YObhVpe/CUXZxlHWMk+jTSafc+3qKKK+KGFFFFABRRRQAUUUUAFFFFABRRRQAUUUUAFFFFABRRRQAUUUUAFFFFABRRRQAUUUUAFFFFABRRRQAUUUUAFFFFABRRRQAUUUUAFFFFABRRRQAUUUUAFFFFABRRRQAUUUUAeA/Dr/lKR8Yv+yV+BP/AE7+Mq9+rwH4df8AKUj4xf8AZK/An/p38ZV79VS3EFFFFSMKKKKACiiigAooooAKKKKACiiigArwH4i/8pSPg7/2Svx3/wCnfwbXv1eA/EX/AJSkfB3/ALJX47/9O/g2qjuJnv1FFFSMKKKKACiiigAooooAKKKKACvEP+Cgv/JB9B/7KV4B/wDUw0avb68Q/wCCgv8AyQfQf+yleAf/AFMNGr6HhH/ke4L/AK/U/wD0tGOI/hS9GH/BPr/kg+vf9lK8ff8AqYazXt9eIf8ABPr/AJIPr3/ZSvH3/qYazXt9HF3/ACPcb/19qf8ApbDD/wAKPogooor542CiiigAooooAKKKKACvgvx/q+qeCf8Ag4x8Iaqmj/bNB8S/B+38EXF/9rSP+zry4vdc1e3/AHeC8nmRaDeLwAq4yzg7Ef70r4h+OP8Ayma+Hv8A3K//AKY/ijX6D4fq6zL/ALBK3/tpz15qLg5RUtet+qavo1qt10utU1dP7eooor8+OgKKKKACiiigAooooAKK8s8XfEfWdL/ba+H3hGC82eHtc8EeJ9YvbTyUPn3Vnf8Ah6K2k3ld67EvrobVYK3m5YEqpX1Ou3E4KpQp0as2rVYuS9FOUNfO8H30t6Exkm2l0/4cKKKK4igooooAKKKKAPEPHv8Ayki+FH/ZNfGn/p08J17fXiHj3/lJF8KP+ya+NP8A06eE69vr6HOv9zwH/Xp/+n6xjT+Kfr+iCiiivnjYKKKKACviH/g45/5Qy/GT/uCf+nzT6+3q+If+Djn/AJQy/GT/ALgn/p80+v0Lwj/5LrJf+wvDf+noHHmH+61f8MvyZ9vUV55+yP8AF++/aD/ZR+GPj3VLa0s9S8b+E9K1+7t7UMIIJruzindI9xLbA0hAyScAZJr0OvhcVhauGrzw1dWnBuMlo7NOzV1daPs7HZ7v2Xdd+/nrZ/egooornAKKKKACiiigAooooAKKKKACiiigAooooAKKKKACiiigAooooAKKKKACiiigAooooAKKKKACiiigAooooAKKKKACiiigAooooAKKKKACiiigAooooAKKKKACiiigDwH4df8AKUj4xf8AZK/An/p38ZV79XgPw6/5SkfGL/slfgT/ANO/jKvfqqW4goooqRhRRRQAUUUUAFFFFABRRRQAUUUUAFeA/EX/AJSkfB3/ALJX47/9O/g2vfq8B+Iv/KUj4O/9kr8d/wDp38G1UdxM9+oooqRhRRRQAUUUUAFFFFABRRRQAV4h/wAFBf8Akg+g/wDZSvAP/qYaNXt9fMn/AAUV+GH/AAt34k/ss6V9u/s/7J8Z7PWvN8nzd/8AZ+ha3f8AlY3LjzPs3l7s/Lv3YbG0+/ww3DM6eJirujzVbfzexi6vLfpzcnLfW172drFQp0qk40q8+SEmouVr8qbScrLV2TvZb2sdZ/wT6/5IPr3/AGUrx9/6mGs17fXz1/wTi8V/2n8PfiZ4fn03VtL1PwZ8WfGVjexX9v5Bl+163datbTRgncYpLPUrWRGYLuD7lBQq7fQtPixqWd4yS2dWo15pzbT9GtU+q1M4UpU6cYzWtov70mvwYUUUV8+UFFFFABRRRQAUUUUAFfEPjn/is/8AgqL4e8Tf8e39g/ErS/h59m+/5/2LwD4p1v7Zv427/wDhJfJ8rB2/Yt+8+bsj+3q+If8Am/D/ALuU/wDePV+heH3/ADMv+wSt/wC2nHjPsf4kfb1FFFfnp2BRRRQAUUUUAFFFFAHgXxT8T6boP/BTH4K2t9qFjZXWtfD7xtZadDPOscl/Ot94YnMUSkgyOIYZpCq5OyKRsYUke+18Q/t2f8pmv2Dv+6gf+mOCvt6vtOKcDHD5Zk9VO/tcNKT8rYvFQt90E/mctCV51F2l/wC2xYUUUV8WdQUUUUAFFFFAHzN8f/i7pvw2/wCCp/7N2jX0F9LdfEDwj450DTmgRWjhnjbQdRLSksCqeTp8ygqGO9oxjBLL9M18EftO6Hq3i/8A4Lt/s+6lca440P4eacttYaOLSPabnXdH8YtdXJmGJMhPDtmgQ7l5JGw7t/3vX3PGWCpYTB5TSj8bwqlPtedevONv+4coJ/3r77nNQd3N36/dZJa/df0a66BRRRXwx0hRRRQAV8w/8Fh/hRH8ef2DdY8DS3SWMXjPxX4Q0J7l7f7Qtut14o0qAuY9y7wu/O3cM4xkZzX09XiH/BQX/kg+g/8AZSvAP/qYaNX0XCDaz3BNO376nto/jj1WwnXnR/fU/ijqtE9Vrs7p+jVu4f8ABMv/AJRu/s+/9k18Of8Aprtq9vrxD/gmX/yjd/Z9/wCya+HP/TXbV7fS4u/5HuN/6+1P/S2ZYf8AhR9EFFFFfPGwUUUUAFFVNa1+x8N2aXGo3tpYQSTw2qS3MyxI000qwwxgsQC8kroir1ZnVRkkCrdF+hXLLl5raf1/mgooooJCiiigAooooAKKKKACiiigAooooAKKKKACiiigAooooAKKKKACiiigAooooAKKKKACiiigAooooAKKKKACiiigAooooAKKKKACiiigAooooA8B+HX/AClI+MX/AGSvwJ/6d/GVe/V4D8Ov+UpHxi/7JX4E/wDTv4yr36qluIKKKKkYUUUUAFFFFABRRRQAUUUUAFFFFABXgPxF/wCUpHwd/wCyV+O//Tv4Nr36vAfiL/ylI+Dv/ZK/Hf8A6d/BtVHcTPfqKKKkYUUUUAFFFFABRRRQAUUUUAFfN/7YPxJsdL/bO/ZM8HyRXZ1LXfGmuaxBKqr5CQ2fhXWIZVY7twctfwlQFIIV8kYAb6Qr5v8Aj18NrH4if8FOP2dby9lu4pfA/hfxr4msBAyqs1z/AMSTTNkuVOY/J1S4bC7TvSI7sBlb3eHOb63Pk39lX+72NS/4GtH6vzf7Vfls7W/ms+T5c/LfyOh/ZR/5Lx+01/2Uqz/9Q/w1Xt9eIfso/wDJeP2mv+ylWf8A6h/hqvb604n/AN8h/wBecP8A+mKZyUPh+b/NhRRRXzxsFFFFABRRRQAUUUUAFfEP/N+H/dyn/vHq+3q+If8Am/D/ALuU/wDePV+heH3/ADMv+wSt/wC2nHjPsf4kfb1FFFfnp2BRRRQAUUUUAFFFFAHwt+1xNfeNf+C2/wCyxHDb2kOm/DSDVGvJ3uW8+8m8QaLr/kJHEE2hIl8M3JdzJkm5iAU4Yj7pr89f24/FeufD7/gqb4A8QaLpv2+Ow134bWOpyyW8ksFhaak/xA0l5pChHl/NqEccbMdvnSwqQxYI36FV9/x3LloZVhYfDTwkLetSpVrSV+/NVbtuouPkRRoS9lLFaJSnKNk9bwjBN231utdm722sFFFFfAFhRRRQAUUUUAfnr+2x8T/+FRf8Fa/hhqv2H+0Pteu/D/RfK87ytn9oW3xHsPNztbPl/afM24+bZtyudw/QqviH9sj/AJOq8cf90N/9WJqdfb1foHHCdWjgcTfSNGnSt/hpU6vNfz9vy26cl7+9ZZ4epS9k6Sh7/NKTlfdOyUbbLlcZO/Xms/hQUUUV+fmgUUUUAFfN/wDwUj1HxFfaN8FPCnhqwtNRufGfxg8Lw3sczBHisdNum165ljYuqh0i0h3w27cquiqXZK+kK8Q/au/5Lx+zL/2Uq8/9Q/xLXv8ADCtmUK63pKdVecqUJVYp/wB1yglK1m4t2aeqPaqmm3FSunHX+8uW/TVXvHpdK6a0Mn/glHq+qXn/AATw+Fela7o/9g694I0k+CNVsPtaXX2e80SeXSLj94g2NmWydvkLKN2FdwA7fQteIf8ABPr/AJIPr3/ZSvH3/qYazXt9PixWzzGJ/wDP2p/6WyYTU4qcYqKfRXsvJXbdl5tvu2FFFFfPlBRRRQB8gf8ABXf4g6h4EX9mKC0vr61s/EXx/wDCmk6lDbyFVvoWN1KkUoyAyC4igkwf4oVOMqK+v6/Nz/g5y+IGofCb9kz4L+KtJvU03VfDXxm0PVbK8dEdbWeCz1KWOQq4KEKyA4YFTjkEV+kdfX53lOHo5JluYU4WnVVVSdtJclR29ZJSs3vy8q2SOt18TPBxpVJp04znyr7SbjT5vSL05fNSCiiivkDkCiiigAooooAKKKKACiiigAooooAKKKKACiiigAooooA8Z/Zt+LUfjP8AaE/aF8MTayl3qHgzxlp8cemvf+dNp1lceG9HniYQk5hhknN4V4CvIk5GW349mr4h/YT/AOUzX7eP/dP/AP0xz19vV9VxjkmHyrH08LhvhlQwtTr8VbDUq097/bqSt2WistCY4ypiV7Sruvd2S0h7i2t0S13e7u7sKKKK+VKCiiigAooooAKKKKACiiigAooooAKKKKACiiigAooooAKKKKACiiigDwH4df8AKUj4xf8AZK/An/p38ZV79XgPw6/5SkfGL/slfgT/ANO/jKvfqqW4goooqRhRRRQAUUUUAFFFFABRRRQAUUUUAFeA/EX/AJSkfB3/ALJX47/9O/g2vfq8B+Iv/KUj4O/9kr8d/wDp38G1UdxM9+oqpqOv2Oj3lhb3d7aWs+qzm1sopplR7yYRSTGOME5dxFFK+1cnbG7dFJFupuW4ySTa32/L8wooooJCiiigAooooAKKKKACvmS58V654n/4LKWehtpufDXgf4MXF9HqEVvJ8t3rGuQo8M0uSgzHoaNEuFY7bk5cAbPpuvjL/gn74t1T4n/8FEv2tfFl3FrkWi395oejeHV1K7SXFnpMur6Tc+RGksgggOq2WquqEIzeYZGQGTn38oSp4PGYlvlagoQenxTnG8dWvioqstE3a+nVdmCoubqVeVSVOLk077O1NNW6xnOMley0+T7L9lDxXrlj/wAFDf2rvB9/pv2bRRf+FvGOlXclvJHJe/btFTTptrMdskSPogCsg4czKSSuB9N183+HviTY6B/wV48X+D5orttS8WfB/Q9Ys5UVTBHDpmtaxDOshLBg7Nq1sUAUghJclcKH+kKniD361KtF3jKlSs+/LTjTkv8At2cJQ9YsyxMZRqcsqfI7R09YpqX/AG+mp/8AbwUUUV4RgFFFFABRRRQAUUUUAFfm/wDsy+ONU+IX7VOpX+r3X2u7g/bA8SaZHJ5aR7be0+Hd/a26YUAfJBDEmcZO3LEsST+kFfk9+zve6p4i8O+I/ib4K1zSTpmj/tuz6hc3MUiXK3+l6j5XhphbMFeOTzRqcb7sqBE7sjF0Td9xwPUdKpjJS2q0KlCK/mrVEpU4Jd5KnOzfupqzacop+vhsFHFZfUgrKUalGTk9oU/fhJuVnZc06d0rt7qLUW1+sNFFFfDnkBRRRQAUUUUAFFFFAHxD+2R/ydV44/7ob/6sTU6+3q+If2yP+TqvHH/dDf8A1Ymp19vV+h8Yf8i7B/L/ANRcGceH+OX9fakFFFFfnh2BRRRQAUUUUAfEP7ZH/J1Xjj/uhv8A6sTU6+3q/PX9pv4n/wBr/tHftAa1rFj/AMI74a+Hni34K+FpNavJtljd/Z/E1vrNxOZmVUj8qPWoldNzbFRJGYCUKv6FV+gcXTUsuwlvL/1FwaM1hatGb9ot0muq1vJarS9pK63V7OzCiiivz80CiiigArxD9q7/AJLx+zL/ANlKvP8A1D/Ete318h/tp69fD/gqT+xbo0N7drYz3/jLVLqyWZlgmMGgPCkzJnazobxlUkFgJ3xwWr3eHanJipt/8+q6++jURvhsFLFzdKLtZSl/4BFza+ajY9N/4J9f8kH17/spXj7/ANTDWa9vrxD/AIJ9f8kH17/spXj7/wBTDWa9vrTi7/ke43/r7U/9LZxYf+FH0QUUUV88bBRRRQB+fv8AwcNfC7Tf2hP2WdP8HXDXEl14fsvEvxLnhhKo0Vlo3hvUoxcFpFKFV1LUdIiaNf3pW6LIAI5JI/0Cr5s/ag+F2m/HH9sXwl4K1lrhdI8YfB3x/ol80BUSiC5vfC0MhTerLu2ucblYZ6gjiuy/4J5eJ9S8a/sA/A3WdZ1C+1bV9W+H2gXt9fXs7T3N7PJp1u8kssjks7uzFmZiSSSScmv0LO5SrcLZfFbUeb5+2qVdl0t7B373XYyhKzcebq9LbWUNb9b326cvmew0UUV+emoUUUUAFFFFABRRRQAUUUUAFc98TfiTY/Cnw3bapqMV3NBdatpujotsqs4mv76CxhYhmUbBLcIWOchQxAYgKehr5N/4Le/F++/Z8/4Js+L/AB7pdtaXmpeCNe8La/aW90GME81p4k0udEk2kNsLRgHBBwTgivXyDJa+cZphsowztUxFSFOOz96clFbuK3fVpea3Lp1qNKaq4hXhF3krtXS3V0m1p1SbXZ7H1lRXkn7C/wC1PH+2t+yt4U+J0WjpoEXihbp0sUvvtqwrDdzW4Im2JvDeVu+6Mbsc4yfW68aElKKkuvdNP7nqvRnVmWX4jAYurgMUrVKUpQkrp2lFtNXi3F2a3Tae6bQUUUVRxBRRRQB+Lnwz+PN/pP8Awd2+LdM8MaxYz6B45iOiazJbeVcpdpY+GFeS2EnzbGiv7FVk2EOslq0bEYkQ/tHX5I+H/gfY+D/+Cnn7OfxwkuLtLa18afFTwzrzPIrQWcMvjLV9N0t44lXzGeXU/EUMDkFgolicqiRzSD9bq/ZvGetllfF5dLLUr0sNDD1ZJWbrYaU6Hv8A9/2MKLf9yUOjRjh/rSpR9vfld3C+vuuTbt5e09p87rXcKKKK/GTYKKKKAPCP+CnP7VTfsT/sEfE/4lw/bv7Q8P6OYtMe0hilkhv7qRLSzkKy/IUS5nhZ9wb5FbCOcI3q3wy+JNj8VvDdzqmnRXcMFrq2paO63Kqrmawvp7GZgFZhsMtu5U5yVKkhSSo+UP8AguzpcfxO/Yz8PfCWQvbD46/ETwz4E/tBDufSVm1GO6e6WL/lsUSzb5NycMWLAKQZv+CE37YI/bU/YPXxRc2L6d4it/FWtL4ggW2MFqt/eXbas/2YNI7m38vUYtpdt3UHONx+uqZFCpwzSzfDU25wrVIVnrZQlCi8PpslzLEJzSs5csW27Jev9W5cvdSta7lFw2u0/aRqXdrvWNO0G7xXNJRUZOT+yqKKK+RPICiiigArntS+JNjpfxW0XwfJFdnUtd0m/wBYglVV8hIbOayhlVju3By1/CVAUghXyRgBuhr84P8AgpZ+23rPwE/4K8/ATSdMtruTTvCHw98ZeK9Zt4NQ8hNehfSb2eGymxG2xBNogkVjuBbB2Zh59HLMpr5jVnRw8oxcKdWq3K9uWjTlVmrpP3pRg4wVrObjFtXuetkuBWLxHsnCU7ppKPLfnl7lP4pR0VSUOfW6hzSs0mfo/RWT4C8caX8TvA2jeJNDuvtui+IbCDU9PufLeP7RbzRrJE+1wGXKMpwwBGeQDWtXmpqSutjzatKdKbpVU4yi7NPRprdNdGgooopmYUUUUAFFFFABRRRQB4D8Ov8AlKR8Yv8AslfgT/07+Mq9+rwH4df8pSPjF/2SvwJ/6d/GVe/VUtxBRRRUjCiiigAooooAKKKKACiiigAooooAK/Pn/gs/+3VJ/wAE7Pj18GPiDY2Hh7UNWvvDni7w5DHq9y8MaR3D6LNvXa67ttxa2rMOrIroGjLiRZ/hN8RfFc/xt+HPxSn8Y+L7q7+Ivxl8V/DrUtBn1m4fQItHsxrMVmkFgW+zRTRPo1vJ9oSMTSGa4DuyuFDf+CrP7IH/AA25/wAFBf2b/BdxD/xKf+EJ+Il3f3m//kE/u9ChtbvYJI2l8u9mtD5at83Rhs3kZYmH7i7UntpCShK+jtzOM0t1zPlatdeZ9rwBiMswnEdF53CEsPH2nOppyi48tSDfKpQbkpRbppSjJyUWrN2PhE/8FnfGd14t8LeJ7W/16+XTPidq3jx9Jvr6O+tl0y6t4Le2022u5Ud40S3l1OH5IkRRdJIqlwNn058Zf+C9c3wv8W6jpGkaraeK30jVtaeG6stOintLtRc+IoLG2mlDxrJbhf8AhHJlktvmaNbndKznYeG/4KWf8ERPAngP/hQH9ht4S0b+2b/w78KtQ+w+Dre3+3Xcv2nzdbl2SDzJX2rujbLNgZmOK+ZPCv8AwRh1Xx/r3jvw94E1W+1vxB4S1/xJo9lpNvM2mxaodJv9GgkkVnu1igEiavJNs5C/ZdoLmQFPma1DBYSpVp08Zib3Vl9XpPS3li1d/CtI667bP+08DS4E4mwGEzGvg8NTpqNRO9WrH7cvinLCWUItzd3NcqtzSfLdfTo/4LOap49/4J82EviTxjq1v8VdF13VNJv20m4SxvtVt73QtYjsL4RwrBGIoLya1DiMuY2tIpT88kQPoV3/AMHAuh6To/i/7VqWranfzfEkf8I//YuiRrDB4TtrnTt3mfamQ+bd2y3+M7pFlkbP2dfK2/K/7W//AAQl1v8AYx+FXxG8a3XjPxLqegeHLaKPTLyI20cV3M93o0UckkU8lzKFcX2qR7F2YbTo3LbZVU/OHwZ/YZ8c/tDfAX4leMvCWu6peS/DJbW61O1eOwRYrCW3v5prwtIE3CH7Eg8pAzv53GNnOdTCVKeIjh6eZ04c0V/Fp4hTSSabkqVOtHSz1hOd7cy952Xdl/CvhxnWWVM8p4GU8NCs1elPDqkpVJ05Rpx9rKjOMXKcIqM6dLlUvZtciu/1t8Q/8HEXw00yXw3dWdjd6hBN4bi1HXtPht5vPtNTlu7GNrC2nkVEle3t31GV2eNIpTDAqTKXYDW+GP8AwXA8AaF8YNT8JeLfE9prME/iSTSNM1LT7ZFgtlm13WIknuLpmjtTYwafHpDeahZiLhmJlIk8v81/A/8AwRz+N/8AwsPUNB8fT6R4D/s//hH/ADJ/sUGqf8hjW4tKtvlh1D/r8l6n/jz2ts81GrJ+Mn/BKv4t+E/2ufEvwn8DahpHj+78P3+n6Yt9/Zselfabi70qXU0Ty5r4hf3Ftd87yP3HJDOinXkx8bVp5hQ1dkuTFavX7P1e9/dfSyt5nz68N/CjEKrluGp1bxg6kqntsK1GCdNp+2dX2aivbQuubmlGcbt8qt+pP7Mf/Bdr4PeIvA2laX448SatY6/oXhPT77xBr93pixWOo6g0dpHcw20UJM8kouJ3ysduECwzOp8tAx8S1D/gvjpeo/Er4Nsl5q0mgR+LNZ1LxhJcW72Ullpdxd31rplu4t96z/ZrK4juZY1jkDvb222UyCQj84f2e/2M/iP+0h8Lvip4r0K80h7D4VaEmtX3/EvA87MozF892hGLaO9n3Kr5+ybMbpUrof2o/wBgz4q/Ar9pbwl8NLmz8O23ibxfpOhtptjbWpCXN1dQxW8iF21CVVf7ctxGzmRY2ZGdFjiZFXmnLEzw8KizKhy6a8mK197T/mH7xt31fc+hwvhN4dYbOcTgJ4Ss6zU3KnKrhF7NKj79l7VOPuYiNXT3VywaS5Hf9atN/wCC5vgPxz8WLK38LXH9p+Gl0L+3tStJNIuI9Yt0ttJ12/1GBWd1tzLE1lpSLhmRjczbXcfPF6F8U/8Agrv8JtA8L/FXS9H8WaTp/wASvh5Ya4sOieIYZLSO6v8AT3mhjiWQlYp/OlRCkUU3muj/AHVYME/GbXv+CbPx9+D37M3i34r6ldx+FdP8NawfDd0+n/Z/Pmge4vNL1LEi3jkKlxGloyGJxKt4zDMaMT4j4i+E+p6v4bt/GniGXWdftfEuqXtq+pavq0t9Jqt9AtvNdNMkkjFn/wBMgkLuuGaXKklW29sszw+Cw/NmGOUpz1UaNGrJqO3NL231dRV9I8rnfW6iuVy+HxXglw9mWYw/1ZwFatQo2pyl9ZwaTrwtN03ac+d+zd6iUYtae+2pRj9peAv+Di74saR8OV+HkLade620EenS+M2g/tO68LW6xWVsLr7PK6re3oEF9N5dxNia4ukLNHDCYpPrf/g20+D3jHwN8E/FXiHWba7j8F6/aabYeEJZtQS4T7PZ3OqLcRRx72eFEuJnbDKoZpXYbtzGvlL4Uf8ABFvX9X8dJ4E17UbHwu03iPSPDo1QaeLuXTrx/C13rl5ZJFFeLEUhxbQs5UiQmN4pECSxP+q3wP8A2X/iV+zf8LtM8F+C/GPwn0bw1o3m/Y7P/hA9VuPJ82V5n+eXXnc5kkc8scZwMAAVvQzLEYtUMPRoSp4fD828k6lSq/dcqrtFWjG6pwStTT0c5Tqzn+feLPFXDWV5Ri8uyPAv61mTozm1Gj7KFCF6kPYuOIm1OU7c7bfPafNGmlTjH4S/4OffhBqnhPWPgv8AHHwtYXdvrnhW/l0q61iyuil5Ft/0izigUSKySKDfyrJGM7o1DHPlCvMdP/4OK/iI3wEtrHwzaaNdeINaW9vbvX76OWcabPc3+pTNHaRvM4aKGGawSETcQm2ljeOVShX7u/4KVfsy+PPjN+xv41k8d+Kfhlr+m+DdJvvE9pBa+C9TsJ47q1sbjZJHKutMocK7geZHJHlgWjfGK+Yv22v+Dd/WfGvhL4h+NfDWtaP4l+KHivxHN4jkXR9MufD9zevdXBM1sskurNZrDGZ5Z1aWF5iUCGUg7a9TFV447D/VcXKrRlS/h1KcYVP3c25SpzhzwdlPmq05wcp806kXGXNB0/L4A4/yCjlOX4LP8q+tL2k42qzpwj7SLjyT9o6jXLyTjTqxqKFJRp0mmlGpz++/sC/8FufA3xz+Fz2fj1tW8OeJfA3hM6z4q1y+jtxpd15EsFs0sRiIcyzyTxMsCQD55DGm8hN54G/4Lo+D/Fmjm4h0r7XaW/xJs/B97rFzONI0u20vULnUjZamrSmSRvLs7FHmSZYBvdsFVGB+VFj/AMEl/jz4u/aG+J3gTwBa3Hi9/hpqg06+m1a3s9MlaN5J/st0sclxB8lxFF5qgGQbSpDEMCeT/bf/AGevGP7EX7RHiz4SweL7Dxdpej3NhdXZ+wz6RDqEjWImilMQnuFDxC8kRSdx2vJgrvIrw3DGU6UeXMMPK3u3arw5pWb5earQhTTTi4tuSje95JNM/ZsB4V+Hmc4+pToYPEU61eMa6oc9CboUrw5pSjh8RVmlKNaMoRvdxceWEuSZ+7f7MH/BV/4TftQ3WuW2l6v9ku9Fv4LQJJHJ/piXery6bYyRIyLM3mE2Ukn7rZB/aMCPJuD7ee0b/gr78NNZ0n4y3mneJPD2uv8AD/ST4m0K2haazTWNM/s3TpEElzIjRJcPqN29p5WBKrbEMJdTn8B/h9ZfEFpdR8R+HLCztZ/A8EOuz39rrj28+mKLu3t4p428pX3i4uLcDy8sCwbgKSO28H/s4/GN/A2kavDpekaJ4a+JGha9fWVy/iN1h1u00SNr29heOKFn+WSzTYsyKrSpEwOF3rnTln84Rivq7avdrE4bW/up/wAayV2l6+tjqxn0fPDzCYqvWq4rERpycVCEqNa8XFKrUjf2PNKXsoTkkrSVNt7R53+/Pxe/4KIeA/CfivR/COheJdJn8c6vrunafBpd9a3EX2m3bxJHol+YmYIryxOl7tVXJ/0cybXiBJ1dA/4KA/DKz+Gvw31nxp4v8KeA9W+JGhWOuWuk6nrMSyWyXNo1yC7tsxEPLljE7qiM6BAd7qh/nj8R/F/4v/tH/HbVPF9jZ2zeKoZdV8W2kWneIJrYaMsL3esXP2JpVBhWNvtMyKJN28kgl2ycLX/FXj34l+Bh4k1bT/FuuaL4Q+weGIrm+1S2n/sxJY7qS0s4le5LLFstroqqDYm0/dLLnolUzhfvY/V2ndL/AGrDdLNtr211o/T1szy6f0buFvZU8JicTXhNWlN/V67mnU5oQgn7FQcXNK11zOSkk1zI/pE8O/t7fCzW/hTqHjC48UWmkabofhvSvFWtRXv+v0S11OFprOOcR71+0SKuBAjPIS0eFPmxl+Jl/wCCt/wVT4O/DzxuniDfpPxF12Lw9DC01tDdaJcEAzvfRyzL5MVtuj86RS4UTQuu9JUZv5+PA/xB+K3xb8SQeBPDg8SXUvj2XTdEl0++8RC2ttXeFooNOtpAJHR1iOxYvNwkQQYKgcbNh8A/jV4ki0jw5D4bs7iCfVtHttPsG8Sr5C33iC0W4sCqlNiPdW9tGWfjaIUWUqVUUSlnsoxdNYd3X/QVhnrfyrae6tnr12seBjfBnw8ynGVMNm+LxqlFxnaOBxsoqk6dn70cK0/30tJc1lFKD9+5+vv7VX/BbnwF8AfjX8NtaWHxTquian4D/tnUtKtrq3jWyXVJ9LuLZrpPOKrdW9jBeSBGH/L1CqyBJ3kTxrXNH8TfBH/g1T0zVf8ASNF1+1i07xzYvb3nlzW0dx4sh1i1eOaIko/kyxMrDDKxGQjAgfmRpnwR+Jv7QmqeEp75mv4PGOsJ4Q0K3S+jmfU7m1j0+JLOSacgpEkdzaxhSscYjkVQ5CMF/fa28FT+Iv2PPD/wY8afs/8AxY8WeGtK0LTNFvP+Jn4esP7R+wrBsl/da2HjzJAj7RIcdCWGc/TcP5+srs5yjiKqqU6zjBz9nD2afLSlNQ96U+ZuUqUpwikuWUnJ8v5/4m4bhbIaGWYfA08RSpqp+8dTD1VVqRpzlzThTqKKUYOcoRhVUKk5aTUIw1peG/8Aguj+zZ4o1XUkg8b3EWmabbNd/wBqz6ZOlteR5s1TyE2+fKztdsAiRFgLO5dgsapJJ734S/ay+GXj3xzp/hvRPHvhTVta1iwGp6ZbWmpRS/2rbmS6jZ7VlJW42PZ3IcRFjH5R3hQVz/NHqH7HXxU+E3xb0D4eDRbSfVvEt/JpmjaXealEsqzrqM2meStwjSRlFvLW5iHmbcBAdxQqx7X9oPQf2i/2GPiP4M0vxhps/gzxP4X0Qjw+dF8TQi/stNuLy8ZzFPbADLTT3uQ8oYhyudm0V5NX69LEynl9SjWwza5Zyq06Ekm9I1IVqkHCaXxXvC+sJzg1M+kq+FfAGMVDL8JiMbQx04y9yWExNaEnGNvaQnSwrU6ftPilePLB+/GnOEov+gbUP+CgfwY0u88YwT/ETw9G/gPSbXXdYPmMUSxuoopbeeBgu26SRZ4Av2cyZa4hT78iK3b6r8dfB+ieOYvDd34j0mDWpd6/ZnnA8t1ksI/Kdvuxys+qaeEich5PtcWxWBr+YTxX4q8e+H9H02/1XT/Fq2njjQolt5H1S2k/tPS7a5NrFE4FyT5UU+mhEikAC/ZIiqhVjNe2/tD/ALVHxu+J3jnxjrC+HvFvhr7DfyfE6eS28RW732n6frEmhPYRtcLdL5sUPlaL5KIgeJlViq+WBFzU6+aOEnNULq1v9pw+zu9f338tvxex72P+jVkccTQpYXHVuSSmpylQq6TiqcEor2KbvWc4tWbV4Qb5tZf0HeBPjr4P+J2sXNh4f8R6Tq13bYby7ecN9oQ21ldebCek0XkajYuZYiyD7TGC244rJ8e/tZfDL4Y+BtZ8Sa5498KWWi+Hr+fSdQuf7Sik+z38MbSS2O1CWa7CKx+zqDKccITX8/nizx/+0h/wTO+P3hX/AISjT/HHh/xFpcFtq9npc3ia2u7S9sVeGAQTC1vipt5F0y3heLeuY7SFcBUjx4jr/wC0B438VaFe6Zqk3jjUtN1LVn167tLrVY5oLrUXUq97IjXBVrhlJBlILkEgmiviMzppwlGgpq+jxWGVu1/31/U5cH9HHh+pFZlPNJvA8sJe1jQrNNXam1P2XIlZLlequ7O9tf6fLX9obwpcfFbxN4POqWkOpeEoNIk1KWW5hWCCbVJp4bO1J37luHaFSI2UFhc2+3d5gAt+CPjr4P8AiX458R+G/D3iPSdc1rwh5S61bWM4n/sx5ZJ41ilZcqsu+2mDRE702jcqhlz/ADm/s9/t2fFnwx4m8Q+M9Ot/Hfja61SXSbzXZdZ0vV9UQzaZcR6tavcuh5eKPSpxudzttku9pUAutT9mP/goF8V/2Tviz/wszwxb+MNZXWr25bUpNXW7j0nxNeCJ/MF15k0Bu5oftizcsxRp43J+fnpjTz+E08VgJ0qab551F7OEVzWX7yo4093FfF7z0V7o8zOfADh/CYLE14Z3RdSEKfsoqalzVHCDmpxXNOKbVTlulZOLeikj7R1b/gpBN+0HYftZfHCLSLuTw54C1b4SzaNpN1NFDLFY6b4pmvGilmjQhHkLSTuW8zyhc43OiKT+pfw0/aq8KfEfU/iKI9Y8PQab8PJ7WSfUF1eGWCbTrjSrXUYtRZuFit2WeZVckowtXYP1C/kt/wAE/P2ebPT/APglr+074A+Inw4+JVv8UviNc3EEmk2XhDXrh4Ht9LtZ9IgkkhgaGKVLiTzfnKbhMpcNEUz8L/Bv9tL4h/ByPWrW71PxPI/iDw9J4b1iFpLu80/WbRrCfTYi6wNhvs8EhaBJVAhIjwpVcH63P8di8TgKOGwMo4mrh3FVIU5KUpN0KVOUqUVrVhCpRanKndRjySXuSUj5/IeCOCeLM3zLC5XiY4dJ/wCztyXK6a9lKPO1NqEpU/aOLqWc5TfM+eDiv6XPAn7Vvw6+J/xRufBnh3xbpOteJbSwGqSWdm7S4tDFZTJcBwNjRPHqFqUcMVk3uELGKUJ1nivx7ofgP+zf7c1nSdG/tm/i0vT/ALddx2/267lz5VvFvI8yV9rbUXLNg4BxX81/wk/4KY+LPgl8Yj440C2NrrTaFovhxsaRqSRvaaWdM8tTsKsfOTS4Y5hu2uk06hVDjbrfE3/grd8Sfi7+zr4P+Hmuahq93/whGur4j0/xM9nq0niJ7tGuTEz3bu2fL+0sEKqrKIosN8vPx1N8Qezlz5ZX5tbWo1Lb6L4d7an1mM+jRgPrlFYTN6HsWoKblWpuSbg3OUbNLljO0VHWTTvfQ/fiz/bL8H3/AO0BqPwziGrN4q0nXbXQbuL7MBDE9zo1zq8E/mFsGJoLS4j4y4ljwUCMsh1vB37Vvw68d/8ACUf2f4t0lf8AhC7/AFLTta+2O1l9hl07yftzHzwm6KD7RBvmXMS+anz8iv5uvFv7fXjvxV8TG8YR+J/HGjeIpoNOjnvtMGqW891NY6cNOiupJOXa4aAzB5C2SbmfG1ZCtM+Mn7dniD4uaXr8V1b39lF4g8R6z4o1C30rS7+AX02pyWM09swclWgWXTrZ40c/K67mZiFK401xNKTissrN8ztelNKzfu3bVlbq3p6HsVfo0cOt0W84pQj7OHO1VhJxqKN6rUd5xlLSnGLTS3bP6XvD/wAevA3izwvd65pfjPwpqWi6fYHVLrULTV7ea1trQPOhuHlVyqxb7a5XeTtzbyjOUbHxJ+1B/wAFvvhlL+zd8PfEvhTUtW+3+JvFmnz3+i295FFr2kaXYakk1408UMjovnx24hWGSaMTR3hbJVZFr8ivhB+3r8Rfgr8NfEfhPStO1ifRfE9g+l3UF3dqyx2jWmqW5t0VbtVEW/V7m52FSv2hIpMZDB/P/hV4E8SfHf4neGfCMFm2kjxXrEGj77aaO41JVnlEK+TGzwwCYllK77hUBI3MBkjOp/aNeEU62HpRek5fWKE3G+t4whUlUnomkoxbu0t2jn4c8JuB8srV80xVfEY6lRqRlS9hh8RO6UJNxrOFKUafvOMnKbjHlhvZs/Q79mX4beK/jN/wbo/tLX1zLdiZ/EU/ibS7nWGm23dj4fttGykblWLxr/Y01vGFO0eUse6Padn0B4n/AODhjwvH+zRpXiXRLjRL/wAc6rrXiCFvDgsZpZtL0+KfWINJe62T+XFOz2+lvcR+eXMVxK8cYV4iPdbfwn4mtf2A0+BC/Bv4qmzj+H48BDU3fwy6mMad9h88wHWzkY+byzJ7b+9fgd8Zv2KPip+wJ45fwn440S0tdQ1mAa7BHd6rFJcGKSSSLc0luZ0bLQN1KtlWJXBFfoGb5vl+N4bxGDwtT2WJpSp/V/ark56SjClyOpJqnCcKcIylzzXtH8Dk00/zDw8xWQcUcWzr59SqVKE61arKnQo16jTnFtyVOFF1Z05zStyU06VveUVJH9E/gH/gpz8HvEHw1+HGua9458KeGrv4iWBmit5NUWe10y7itLe5urK4uwohhlhFzEpWcxMxdQF3MFroPCf7d3w48afG288CWOuWj6lZwJdC7+2WpsriGWPSGtZI3EpZkum1m2jgbbiWSKdVztXf/Ob4r034m+Hvg7bWOu+E9UtvDXhy9stTEKXemyLa3WvabFdwMGWbzHE9pp8bYPEfk4YRu5Vq/h749/EvwJZzeILC18cWKa7BBoSav50G9106WwuYYILlpi0b2zW+nMvlMrRqsI4RgD+fSqZzSn7Or9X03tisNrbR/wDL63xbNaWP2v8A4lt4TxVOVfAYuu+fm5V7Cu4xcpKdNr9zzaUGm4Su3LXm5Xp/Qf4f/wCCrPwY8Q/tLaz8Kxr93Y+ItBn1S2vbm+s2ttOhbToVmui1w+FVFUXXzvtX/QZySFaBpuTP/Baj4MaF8M5fE2v6ld6ZBcQXF9olvDC1xP4jtl1HVrK3a2jKpIryDSmd/OSOOE3UCPLls1+HVl8fviH4++L3xN+KOl+CoJ9U1Cy1jUdfWa4ggsNPttaZtMuJUH2hpcI+qqIwvmMCULBlV6wf7f8AiD8fLPwx4cs/Dvh2d/AvhvUIbZYdVeJ3sbeXUNYuZZGkj2s6LNcnC4ysaKFZ/vZyeecvPGWG1clFfWcNr8NtPb3767N6dGceN8E+AMuqwpY769yxjSdWUMJi6nI1GpKqnKnhJQjf91pLWMG5LRpn73fEL/gsf8HvB/wu1/xHZar/AGl/Zf8Ab9pYo0ix2+sahpctnELSGZPM8z7T9vtZYpIlkQQNJI5TynUfGv8AwSi+J+s/8FKf+Cx3jj44+IdJRLL4e+FHtNPt01R5YvDM19JHDZW8alwzlrS31J5PkEZkmaTYjSIB8A+IP2Pv2g7jw94J0aXQbPTdN8YT6Xc+HkOvQ3sby69HMljLFAWRI5Ln+zWDNIV2i1QSgfuwf0q/4N3/ABvrXwm/Yv8AFdlpPw5+IHjxb3xzeXtxqenXujpH5rWNgvlsLu+tnDKqJwkewKVAJO4D2sqxLwdV180rQdZwkqdKk/aWclyTqVJQUqfL7N1IxjGo6inKM5RjFJv4LjHB8KZBwnjZcJUsRVlVlGnVr1qGIpJUpT51SpxlThJScow5pSgoSjGUFKfvROe/Zo/4Ka3X/BPv/got8ffg98Wri4g8CXfxB1PXtPu5rs3X/CKwah5+qo6QQRSySJdtdwYjDIIiWYrvM2f0A/Zu/wCCg/wy/ax+MXjjwX4I1n+1L/wN5TTXW6IWuroxZZJbIhy88UUgCPLsCZkiKs6yKx/JH/gv/wDs0+MdT/aAtvjtp3w/174d6br9lZ6Bqcmv6lp92NY1OOO5MW6C0vrjy1FtDEFdNoBifKkvlvmf4U+Lvjf+yvceOLnw5ozaNe3Hg6wu9W1HR/EPlalpGkXt1pV3bXVvIrQ/NK8thGyhmYR3UgZBhimubYrEYvHLE4CtTlGSUqkatSFGrGah+8bdZ0ozVWcZVYOm52UuSVpLlOvJ+DeDeKsgoYr2eIw+PqwhThKnhsRPCyl7SEeb93SqckqcZRozU5wUnyzScpOT/oG/Y0/4KD/DL9ujwub3wXrPk6tD5rXXh7U2ig1izSN0UyvArvmI+ZERKjMmZApYOGRdbS/27vgrrviiLRrD4r/D7UL+awu9T22mvW08cdvaoslw7yI5SPZGxkw7AlI5XAKxSFf5uvgF+1X43/Zn8aXev+D7PxFpWpXuk32jyywXscBMN1A8JbMVyjb42ZJoyThZoInwdgFdD+z7b+NdG+GvxB+Jfh3wdq99aeCrD+xdYedtP+y2lprdpe6Y0rE3yTGUGUCNY4pFyxaQoqBZfEw+IzeUIQ/2dy15v9qw2y1ul7btdv0Pts6+jTwzh8TisSsXiKeHfIqCeHrX9pUbhGnKTo7Obpxi7XlzWeup/RfpP7Zfws8QaF/amneOvD2p6a/iS08IQXdlcfaYLzVrpYGhtIHTKzuVuIyTEWVAJC5XypNnJ+K/+Ci3w08P/BnwN8S4NctJ/hx4z1a70069ciazSzW3stRnaQQyRCWR2m08wLEFDO0q7Nx2q/8APN8HrD4o+PP7B/4Q7RfFrf2Z4ssNO0f7PrNna/Ydc1Hd9laHddL5Usv9n8zLgL9mj3OuErrPBv7Unj34yfsyeH/2b7Lwfq+tfbvHVpq3hqSTUrZJLa4mimtTYqJLjylikluVkUgxhHaZm3eblKjWzea19grrT/acO7yTWn8bbdPrtqjKv9G7hnD1LQxdeqoTj7VOhVi6dGUZ3m/3XxxfJUjdqPKpRcZ6N/r98Bv29fDv7ZX/AAV/tdD8IRWmoeHfAHwu1e5ttetb4zJqy6ndeGZwGhMatbvG0EsZR2Lbo5AQjIyir/wQG+PXgaz/AOCW/wAIfDEvjPwpF4l07T5vtekvq9ut9a+fq0sUG+EvvXzJLm3RMgbmniAyXUH5w/4NwfEGmfBP4afFDxt4jXxvcan411LT9KGmaL4J1bW7XTIrCCSVSbyytpY2kd9Qk3RttZAin5ldTXwz8UPiT4q/Yu/4KDeOr/wt4X1HSNJ0jxvLrehaQ1hJo0DaauprqVhZXNhK1vJHbqI7R0iwoCLCQEKDH3GNzVSyeOApYijOrS9le9WnCL1rSqqFSUlTm6VStyLlk/aQi6kHOKcz8cocOcI43iTM+HKOJeHoU+R05N80pTpR5L1IfxIe1TlOXupUqjVOSp3jBfvd4t/4KNfCzw/8dNI+H1p4s8Pajrsmrajp+ur9v8pPDcNhpc1/c3M7lTGEjKRRNudQGeYbi1tMi+3a1r9j4bs0uNRvbSwgknhtUluZliRpppVhhjBYgF5JXRFXqzOqjJIFfy1+M/2hfEHxR8e+LviedP8AEuj3XibVLqbV7jTdHv4bazm1QXLyWZkCttWWP7UgjaRt8aSjLgMa+kfFX/BdH4gax4J8AWLXGr6/f6Bv1PXJta0e/Mep6oPEcWsQOEiZUMUUdlZwxjYhiSa7jQKrRsvyNCnxHGVWOKy2vo3y2pTaa2tdJ373Wj1t0P0fiL6OeTuOAeRZrRldKOIU6sOaMmpTclskrWgouzT5W73bP3t8KfFfw7428JeFtc07VrR9N8bQQ3OhSTE276osts10gjjkCuXMCPJs27gsbkgbWxz3hj9qDwf4s8Q+LLK31HyLTwTYf2hq2p3gFrY2yLe6nYzAySFSPJn0m7DsyhNoRlZlJI/nx/Z2/wCCt3xJ/Zzn0H7PqGr+LLTwtfwX2j2XiWz1a/tdK8nT7/T1hgjDoIojBqEmVTHMEHIVCrcR4h/b68d+IPDcOljxP44sIJNJn0fVWsxqkT+JIZr6/vpG1A8i5dpdSugS4wVfBBJZmhy4h5IyWV1763XsanZW15e936I0p/Rmy36zWoyzmh7O8OSftYbOUnO8b3bUVCK2TlJu1kf0+a9r9j4V0K91TVL2003TdNge6u7u6mWGC1hRSzySOxCqiqCSxIAAJNcRq37UHg/TfjTZfD+LUf7R8VT39vp93aWgEn9kvcWGoX8BuWJATfBptwQo3ON0JKhJFevwP8Cf8FQvGHi/9mr4qeC/GfxR8SKJPDNxNpsuv6zfQXery3Or6BDPaK9zIBMqWkN0REg3CO5vSco74zPhh/wVavNL/an/AOFgeI/EtmU134haT4116XTdRb7akNn9rhaxtTJccW5tL+4gEMjEGNYk3BAwborUuIk6TWV4iMZ2d3RqbXknb3e6tf17HkYD6O+A9ljfb5vQqVKKnGKjVgk58tKVNu7u04Tm2lZ8yir6s/pFrJ8H+PdD+IWnNd6BrOk65aJ5W6fT7uO5jXzYIriPLISPngmhlX1SWNh8rAn+fH4gf8FtfG/jL9mvSPCdv8TNU0rxLDrq31/rNl4iuILh7S30qxsLWFJxdFz5skV3c3Ksu155EkUgs6jJ+CH/AAV41r4F/staz4H0jxkIdauddS+stTTVpFkW0k0O50iWGSVbhW/0dBp0lqqrtje2DE4jjSqf9t+0UVlmI5bXb9lU+74Tkp/Rul9RnWqZthva86jGKqQ2vZyb5tuqt01P6Oqqadr9jrF5f29pe2l1PpU4tb2KGZXezmMUcwjkAOUcxSxPtbB2yI3RgT/Ob8Qf+Cx/jjxP+zl8PvDNt8WfGdn4n8JajqqXupaZ4ju/tWvWt09o9oJ3jnaW4mil+1oMqFSIwhcneazNe/4Kh/GX4p6xrX9h+IviHo1/rOu6t4x1D/hGI9at5pfNtrfzUfYzE2lpbWC+UGz5MQkyxUfK5xz5RUo5ViWna37mpq7JtL3d43V/+Ci8L9GyE7/WM8wkLOd71I+6ozahNrm+GpGLku11fZn9F8vxX8O2/wARW8JS6taQeIhBbXKWUxMbzrcC8MIjLALI7Lp962xCWVbd2YBcE/E//Bfvx1bfFj/gnf4x+FPha3u9e8ceOvG/h/4eadYQhIQusSz2WrRwvJM0aBGtVVvMUsqmRdxULIU/LP4Y/wDBSTx38LPFWpv451X4nalqWpaTJdWOqahbapNrenzPoOsW2lSW80xDR2+7XDcblydpWSP0f2/9hv8AbV+Jv7Un/BWPwX8RvF+g+O7Hwc0174vvbDQtA1a50qV49DuNBjvrfTk86dxvYQPchGAdHTcBkL9LwRmub5TnGGzvF4SdD6rUVZOtFwg3S9+nFuXLdzqKEOWL5mnJpaNr5/jjwVyrIcFiMZVzOjWoqimnCrG86rtdRtey5VUlFvROME2+ZJ/Wn/Bt7+1J4e/4dh+FfB3iTWdB8P654M8TXnhOKC/1qEXGpTXV3PdWqpGxUhpDJPDHGu7f9jkKk4Kr9aaz/wAFB/hlD4G8A+JND1n/AITHRfiJ4s07wbp9zoTRT/Y7+9jMkS3Su6NBtTaZEYeam9cx5Nfg/wD8FB7nxd+zx+3z8T59B/4WBa+H/F/ipPiDodw9hdeG5vOlMkqzC0uzDKr21zLeRx3AX5mMrLsLsK810T9tXxv4e+C+l/DfSLLXdK0zRPFj+NoZbSGOC8j1IW0EEM63fmgL5SIfLETBgzyFs7Y9nDxdmea5tnmMzLCxoSjWlOu+StQSpqq1U5ZRdX92qfP7OTnopJK92k/oOHvC3gLM8BRzKnmrs1DmjLndkouM5uSp3m5T5Zx5UtJO6S+H+kDx5+3L8JvhxPpial430mT+2LC/1O0fT1k1GOW3stPj1K5cvbrIq7bKaGdQxBkSWMoH3DJ8Kf22Ph18YZ/Ddnpet7da8T2GmX0OlSRM11Z/2jp91qNrDcGPfHFK1rZXMhUvwEU5xLEX/nm8c/tra3c/EKx1TQtB8RPptn4Mg8MLYanLbmCCaXwvbaDqFxHGl1tV3WElHzlhFAXU7dgqeJPF3xu/Zv1iTULr/hYfhm/07Xbnw01zZ+JLdZodQ0e2S0eEPDdk/wCjW18sCODsEU7pGxXeK+XdfNOdyX1dwT1ticNt3v7bdu9j6vCfRy4dxOX0XDGV1Wr0lOm3QqtSm7ytGKo3cI03Fyacm3qmoux/QHef8FJvhJpfxF1bw/eeJbS1TRYIry51VriCTTktpxo32a5MkcjMtvO2t2ypMyiM+RdEsqRbm8+/bo/4K9+AP2TPhT4e1HSzd+JNd+IfhubXfCiW9ujwRq0KtZz30Mk0NxFbyvIMYXcRFMBhkxX4OfCnwl8Q/wBrP4u6T4U8OeGPEXijxbqsAtbCC51OxR5IbS1O2MSz3KoqRW8G1VLABY1VegFJ4g8D/Gf49/B+18WaobpvC3h2wbS/7RuPEH2250iws5LGFrS3jkwY1jk1axRQmVX7SzIDscq6EM2rxlKtVw9GlfWp9Yoz5FvJ8lOpOpPlj0hCUrtLeUU+zHeCvAWQY3C/XamLxNRKPNQjhcRepKScaauqNqaqVIytKpKEJRhKKvyza/XPU/jD4i+HH/BBzRPi14q0K0Os3/jzSvig2mWtwIoLuC/+IVvrVuI3zKYklguIiA254xIA43qy19D3n/BYj4H6X4S0vxBd67dx6FfQaRJd31vHHfpos2pW2o3ENrdpaySyR3CDTZUljVGKNNB1UuycZ+1b8LvFXxY/YQj+CXgL4G/ELwnY6ZHoNjokupzeGtWtdIttMvrKaIvBPq7i78uK1GIpyVmKhJG2uzV+EC2PxF0X4RWd/PY2CeF/EOqSW2ItakS2vr+whiZ2MHlkhoo9RXazjgXLhWPz19bxfn1bH03UyuUF+/r1HGtOFJ8tT2fI71JQjLWLU1GTcXb+ZM/FvCDhnhDiSjiHn0cTCopxUfq2GxVb3Wm3G1KjW5GoqbpOSfNad7qDP6KPhr/wVF+FnxFXUNUbWrTQvCUOk2WrWWrarP8AZnvobjXL/RTN5BG+K3S4tICZnICrfRGUQ4Neg/tN/tTeHf2T9J8M6v4tuLTTfDutatNpt7qVzcGNNNVNNvr0SBArNM7tZrCsS4ZmnXbubCN/Nvpvh74y623gvw5Y6c123xF0+PTPDemp4nKx6paSatMiWoDII44m1OCV9kpRBKvmnGQ57rxH+218aP2yfBfhP4P6pY+IvF895q2n22lvqOqpPe3d8J9QWEtNcXpjDyHVTEzkL+7tbQEgREt8lTlm/sL1PYcz+H/asLrJWbTXtr2aas/XVvb9Uj4GcJ5hmHt8qr4lYanKXto1MJjKUoUmnGM4yq4eF5wnCo57w5ly8qSaf7sWv/BUj4Ja7+zr40+J+h+L/wDhIPDXgLy01aOzsZ0vo5ZWVLeMW8yRv++kdUSRgsRYPlwI5Ctr9kD9vrwp+1teeNbezuvD2nz+GPGd54U06KHXob19fhiiaaC9hACnZPFFcuirvBW1mYOwRiv87cXiPxf4O+AK3llb+OLHw7451a50rUrCG8tItO1NtOSzuI/MVbzdM8bXobEsKqmUKO7M4iZZ+Pvix+zl4rit9H/t7wRevbafrsTweI/sUri5sWltZ1No0g3fY75sEsHVbqVCBucVjTqZ1zxnU+r8sUuZfWsKr32tet2adt9G9lp7mb/R74Mw+W4r6piMVKrKb9i/qmLqyjGHJGSlTo0Lyaqc6lJQaSlD4Xq/2C+In/BRr4Tf8FCf2+/2cPhZ4UsdW8R6ToHjufxbLrdwklhay3Fj4d1Sa1EEZ2zvtuHDN5ixjNsF2ypISOs/YV0z/hh7/goF8U/g54m8T/brPX/BPgvxH4fuWl+z2Cpa2dv4Yk8yOR8Q3l1d2kAWOPzN6eSpkLhUr4K/4N/vhTq+o/tT678UL3wPrvjab4d6d9l0nTfDs9iv9nXWoI8X2yaa9vrQMwghu4VRYpBtuXJZCqbu3/4L++JfG/h79o34cfEzQdA+Inw11vW/D83h69i1TXdPtor2LTr+DULOS3bTZ7mQPFcXLu/msq7ktWQbo2avuMPmlOWVqlWrUniPq7hzKVqSl9Z9t7N1Xam3yrlUuZw9o0lO2p+J5xl+Sw4zfBWT08ZDAz5eZTw1edfnVFyVZUVT9qvsyko04P2ad6dkfe3hX/gt58BPE/wSk8ctq/iHTbOz1ax0e/0+60aU3unTXclwImk8vfEyeTa3E5MUjkRxEYMrJE3q/gX9vv4SePfglF4/t/HHh630KODTJtUEmoQSz+Hm1CSOK3iv1hdxbP5smxy5CoUkJYKjMP5rdUvfGfg3wHoyaj4f1+x0fxpbR67b2sWo2sltfCCe7slnKCf70cqXsamRVcBnIAWTLXvDn7Rvinwn8HfFPgew0bV7fRfGV/p19qvl3EKSXP2EXPkwttuArRb7kyMrq3zwwsCpTn4ONbO6U/Z4h4Z2T2xWG31s7qu009NtLarof0HmP0aODcVRdXKK2LV6sd6FZ2p80VUh/AVpw/eW5k3dRjLVSv8A0iXH7ePw0XSfCGo22sXd9pvjTxJpvhSxu4dPmVI77UdNTUrISK6q4SWCa3+YK21rhA+zbIUP2V/24vAH7Wcuu2XhzxF4eudd8P6tqVhPpdrqaXM8lta3bQRX0Ywpkt5omt5RLGGjBnEe9mU1/P58Xfiz8brD4a/DrxpqWmeLfDvg/wAQ/ZpvCg0zXLeO1lu9BtLXSft6QLeM0N2iW8IMzKjEklMLgDiPAXxI+JfwK0Kz8ceFU8ceEYNdnvNCh1TR9agsp7lrdbSe4gYxXKybALi0Y7htYlcZKHbu62bQrLmVDlWr/wBpwydnazX777r9/Q8Ol9G3hrE5ZL6vjKyryfLB+wryj7SDmqkJWoq7i1KMlH3oum9rSv8A0NWH/BTn4PaTdXWn+LfHPhTwlr9pruq6LJplxqiyzQfY9XOmpLNhR5Hm5hnCyBdsTyPlo4JZV+Bv2ofAniP/AIKi6x+1tcWHgHUf+E1+HF9ofwu8Ja1ojS289w8Wua3DfxxznARJNJ1eKO8jZ2hMcpkfYpVY/wA/LqHxz+1544+InxEbwZqn+l3up63qh0+SwWG3vZbLU9WWJUmvVcQlbC6JcGRo44yQssnlxSfqx/wQYuNe+A/7AFnc2Xws+JXi658deINS8Q3+oafqOgf2f5olFikdsLi+tpwiQWMCt5sW4yiVgSjLX1PDOa5pltPEY6denTk4qNJ0qtKrUc41aVTn5acqnLGHJfmklHmaiub3rfnXijwfwtwLhsPicHTrYjESqwdWFShXjRpxcZydJ1OSF/axvBwlKUp0+afu2TfpX/BMb9vfwH4a/wCCcPwrsPGl/wD8IX4j8EaLP4M1fQ72C4e/s7vw9pvmX4aHyhJmO1t1mkAQiJ5VgLGXCt7Jf/t3eFLH9s+D4UXOueHtHnt4Ly1vItUvIbe7utRK6JNYR2oMuWSeLU7hQpTfJJayBOI2Lfir+3R8Jvjf+zl+0D8WvHen2GpWHw/1bxzrVpFDrt/Yxz6NqHiLTjd39l9nt5ruJvMsrlV+0IclVjyySIqR8P8AHn4D/tNfCmzg+MfjzS7qGc+JH0SLxPc+NReaiNWsJZ4NokTfcB4XsJVWT7o8hdrYKE8vFOJzDFZpicVgJUalOVR1FJ1qVN8knzNThUnCcZJvlleKjzJ8rlFqTx4Y4G4CxOFw2JxmIxVKWIpShGn9SxlVfWJK8VSlTw0o1IRg+dLnlUacXJRaaP3N+F//AAVQ+Enxb+BGueP9L1O7hsdGgv5o9LvfItdV1ZrDTINSvYrS3eUGZ4IpwjkHaHRiGMZWRvYvA/x68DfE7UbW08N+M/CniG7vbB9UtoNM1e3u5Li0SdrdrhFjclohOrRFx8odSudwxX8zPgTx78T/AIReDdP8SQaVpE/hrVP+Ei8PWEV3rUslqlxdaXDZ6i6QrGCkotr21PmEAMVizvEZUHwl/ay+LHwQg1T/AIRu+Gm3eoaF/wAI5bXsHiG8hutGtDqEOoMtpJGimHfPE24D5SLif5dz7h8/QxOaRssR7Dz/ANqwy6J/8/uv+TPoc58GOE66qSyWrj173u82W5jJfFKLjJrCJ3hZOVrXbnGysj+i/wCJ37dPgD4M/H66+Hnie8u9H1Kz8GXHjl72ZENpJYwPKJo4wrmeW4VIJpvLjib93E7AnaRVTS/+CinwevdAi1K48a6Tp1pP9rmjknmWSM2lvrS6L9vaSIvGlpLePGI5nZVZGL8LHL5f84vi/wDaH+LHxC8ULrmv+IdU1zWksJdLXUNQ8U3lzdLaSpKkluJXiLeU6TTKyZ2kSyAjDHOV/wALK8d/2P8A2f54+wfYP7L+zf29ceT9k+0/a/s+zyceV9p/f7MbfN+fG7mspYzNeaXL9Xtra+Kw3la/771Pt8D9GHh3EYPD1KuIxKk1BzthcTG+kua0Z0OaDd4u01dNNNI/df8Abz/4Lf8Agn9mTw34Y/4QGG0+I2r+I52ulaOWSHTk063vprS4kWfbiR5JbW5ihaMOnyGY7kEaT+x/CH/gqZ8CvjV451jw1pXj/SbfWtD/ALRkuIr5vs9vJb2Ukiy3MV0f9GliMUZuFMcrHyMuyqEkCfhl8Cf2F/jZ+1Z+zJ4w+Jlh/wAIlH4K+E9hdx41bxJc+YyW8UmoXFtZxJaybdvnGQh/LRnushiTIV5P44fs4/GP9jrUYbzWNL0jTbTVr/XfDlhqumeI3Meq/YZ5NO1FUCwiZYiWeMiVE8xJCNpUkUKlxJCX1qaoezaTt9Zw1ktm0/bdX1d+htPwV8LcXR/1fwmMrxx9KVSPMqVZynNpTjCcXR5X7OmruFNRlbmk3oz+lDx18aND+HvxA8E+GL+f/idePr+5sdKto3j8xvs9nPdzTMjMG8pEhCMyBsPPCCAHyOe8W/th/DjwrK1vH4u8PazqUPiTTvCU+m6ZqlrcXtrqN9di1igki8wMrqwmd0PziO2nYK3lkV/P54a+P37TuieMvB3xWv8AVdU8TyeBbAeNNKn1zxrdXscennVF0qbKt+8EU90gtpYkKvIhJI8v5qydF8M/tGPo/gfUrOzH/F9PFkeqeHdR/wCEnT7dreuWFzNapcfaCnnwSx3F/KN8jRhml3kttDL3SqZo7+zjR7/7zhtItJJ/xesn+XU+Qw/0dMjp8v13Mpe77rtQrpSqxlUnUhrTuuTDxUmvivGUnaKbX7QfsTftM6H+1P8A8FN/2lNW8KvDqPhrwx4T8FeGLTWbaVpbXWJYLrxLcTyRMUUYSS7Mfyl1YRrIrFZFr7Gr8jf+DZLwz4m8DfGf9oXSfE1pHp1w3hzwNq9vaw332qLyL2PWrqGYEABWkgkhYjG4DaGwQVH65V6OE+seyX1rl5+vLJSj8pRbTsuqbP528RMoyzK+IcTl+TOUsPTcVFzTUpe5G8mmlbmleS0Wj0SQUUUV0HxYUUUUAFFFFABRRRQAUUUUAFFFFAHg/g//AIJ9+FvBn7Rn/CwIfEXjK6tLXWNQ8SaX4SuLm2OgaLq9/D5N5qFuiwC586VXuDtkuHiVry4ZI0Z8jxvxp+2v4Y1b9vb4a+NLfwf8fZPDOgeAPFmiX95/wpHxmPIvL3UfDU1rF5Z0ve2+PT7s7lUqvk4YqWQN9uUVSlZKPRKy9P6/DQTV5OXV6v8AP8Xq+7be7Z4D/wAPJ/h3/wBC78ff/DF+N/8A5U0f8PJ/h3/0Lvx9/wDDF+N//lTXv1FGgangP/Dyf4d/9C78ff8Awxfjf/5U14N+0P8AtQ6T8S/+F7/2N4M+Olz/AMLC+F1r4S0HzPg74tg+16lH/bu+F/M01fJUf2hafvZtkR8xsOfLk2fe9eRftBft1fDD9l3xJFpPjTX7+wvDYjVbr7FoWoapFo9iZDEL2/ltIJY7C1Lq4E900UR8qXDYjfbz4ihGslT6u9v/AAFr8rv5HuZDnVXLKzxFOKl8O/8AdqU6i+9wS+Z4l8Of+Ch/w+8Q/tHeNPG+m6P8adT8LapoOl+Gre+svg54vuQdR0vUtcTULZkTTC6PBJcRxtvUDzBIgJeKRUv+Hf25PCWmftP+MPFk3hT48roOteFtC0mznHwU8ZM8lzaXesS3CGIaX5iBUvbYh2UK+8hSxRwvbfDf45fBz9lPx5a/B+28W6hPrvinxFqOvR+dY3F3awXuvalf6uttNfwQfY7ZpZZrgW0M8iSyokYXzWO5voWmsPFJNXspSfz1uvlcmrnk6jqpxV6lKnT9FD2dpfP2Xpq7bH5z/sY/Ffw3+zF+17+0b4qn8I/H9PBvxT1bTtY0G8l+D/iu5nu5iLua/VoYdM82BI7m6ZEE8aFkClTJgucP9s34u/8AC8f2n/BXizwz4D+N99oOheKfA+rXs8vwl8UWjxW2k3evy37iKbT0kcxpqNmVRFLS+YwjEhjkCfppRXnvKaX1dYdNpKTl97bt8rn2FLxLxsc7lnlSmpVJUaVJ3b19nTpU+b1l7JSfS7Z8X/tuftWfD79p/wDZI+IPgS38FfHnV9T8QaLPHpNpJ8GPGtkkuoxjzbLdM+mRogF1HCxMjrH8vznZurV/ap/bk8JfF39mD4j+E9A8KfHm817xP4W1PSdNgk+CnjK2Se5uLSWKJGll0tY4wXdQXdlVc5YgAmvruiu2phoTc31lHl+6/wDmfKYHiCvhoYWktY4erKqld25peyvp0v7KN2tX8keA/wDDyf4d/wDQu/H3/wAMX43/APlTR/w8n+Hf/Qu/H3/wxfjf/wCVNe/UV1aHganyJ+1T+3J4S+Lv7MHxH8J6B4U+PN5r3ifwtqek6bBJ8FPGVsk9zcWksUSNLLpaxxgu6gu7Kq5yxABNd7/w8n+Hf/Qu/H3/AMMX43/+VNe/UVmoRVRz7pL7r/5ndPGylg4YNrSEpyv/AI1BW+XJ+J8ieHf25PCWmftP+MPFk3hT48roOteFtC0mznHwU8ZM8lzaXesS3CGIaX5iBUvbYh2UK+8hSxRwvnH7UH7QXhv44/tifAjxVH8P/jTrfgLwRB4ntfFgvfgv4rCLDqOnJawxm1m00SXSSMHRlijkCry+1Tmv0CormrYOFSl7J7cyl90+e36Hu5ZxXXwWYf2jTiub2M6O7VlPDSw3NfulLmXnpsflr+zZ4l0z4Ef8E6/i18Kofhz8b9N8SeNtFlj06wX4VeK7mK61G48MafZ3W65+wvDEG1SK8GZJFjCgOpEDRsfsHXv+ChPwt8VaFe6XqnhD45alpupQPa3dpdfAXxrNBdQupV45EbSCrIykgqQQQSDX0TRSweBp4eHs47Wt+Lf6mnFPGGLzzFPGV1yzc5VL3bfNKNOLd3rf92nfe7Z+Zf7DHxd/4UB8QvDmpeK/Afxv0+z0zws+k3Lw/CXxReFLk6L4OsggWDT3Zh5+iaku9QVxAjZ2TwNJ3v8AwU4/ah0n9qz9h7xv4B8C+DPjpq3irXvsH2G0uPg74t06OXyb+2nkzPc6bHCmI4nPzuMkADLEA/e9FYRyuEcJUwl3aaav6qx6uI8Q8TV4kwXEbpR58LKnJRu7S9nU9ok3vq9GfjxHoL+F/wDgpN8SfiR4f+GPxqt/hz4tv9D1Oyuz8MvExmuLiLX9C1XU3a2kszcx/wDHlqMgDxqGKKkQJkhRvpD/AIah0n/hoT/hJP8AhDPjp/Y//C0f+Et87/hTvi3d/Zv/AAhX9jed5f8AZvmbvt/7vytvm7f3uzyv3lfe9FZUMmpUm+V7z5vxbt+J6Oc+K2OzKnCNekrxw/1du7ba9nSpubv9p+yTfm2fBH/DUOk/8M9/8I3/AMIZ8dP7Y/4Wj/wlvk/8Kd8W7f7N/wCE1/tnzvM/s3y932D955W7zd37rZ5v7uvavCf/AAVS+E/jzwtpuuaHp/xu1nRNZtYr/T9QsPgn40uLW+t5UDxTRSppRWSN0ZWVlJDAggkGvYvHXxu8K/DTxx4O8Na5rEFhrvxAvp9N8P2TI7yalPDbS3UqrtUhQkMMjFmwowq53MoPlP7Lvxo+EPwVn8I/s1eFPFOqajq3w30KDwtYG/0+5Md4NLs7eN7f+0BAljPfRwGKSaCF/MQMzGJFU7fSw+HjTso3b5UvlHd/jqfC5xndTG39pFR5qlSr86vKrel4ad9ew/8A4eT/AA7/AOhd+Pv/AIYvxv8A/KmvN/jz+2L4E+LHjb4UXQ8D/G7VtL8GeMD4h1Jbv4HeMNtqiaTqUEE6JLpQMkiXlxaFRGGdDiQALGzr9jUVdanGpHlfdP7nc5MszCpgq/t6e/LOPa3PCUL+q5rrzPAf+Hk/w7/6F34+/wDhi/G//wAqa8G0X9qHSbH9h74T+AZfBnx0XxV4O/4Qr+1rQfB3xaY7f+yr/TZ77bONN8mXy47Wcr5bt5pQCPezoG+96Kzr0I1N+zX32/yOvKc7qYDl5Ip2qU6nzp81l6Pm19D8y/8Agq18Xf8Ahr/4ez6b8P8AwH8b9YvJPC19pKpc/CXxRpgNzNrXh69jTddafEuDBpt42/O0GJVJDyxK5ffF37R+0/8AHPxYvgP43nQfH/in4datoU//AAqXxQHu7bRLu1l1J3i/s/zITEkMhVJVRpsAQiQkA/ppRXn1snp1MRLEOTu7fhGcf/b7/I+3ynxRxeAySjksKEXGlz2ld3fPiMLiH9zw0Y+km90j8Ubfwt4uj+IX7RGpH4ZfGb7H8S/FOsat4df/AIVvr2b22utF8V2ULuv2PdAWn1jT1KTBGUTOzBUhmaM/4J0+FvF37MvxC+DOpeNPhl8ZtMs/A/inxXq2tPB8N9evza22o6LYWVm6rb2cjSl57eZSkQdowoZwiMrH9rqK86lwvShUhUU37rv0/mUv0sfbY/6Q+Y4rA4nAywkEq9NU2+aWiWHqYe687VHL1VtjwH/h5P8ADv8A6F34+/8Ahi/G/wD8qa/LnRfg9rWkfBn4OwJ8KPjMnjjwt4I8d+FvE5/4V34hZITqUGpjRoUb7L5EoabUZN0kBYReafPZFT5f3Eor1MyyqnjHFydrf/JQl/7bb5n5/wABeJOM4WhWp4WmpqrJOV21tRxFGztuv9oc9ftQifij4d8LeLtM/af8YeLJvhl8Zl0HWvj1oXxDs5x8N9eZ5NEtLvWJbi4MQs/MSRUvbYi3ZRO+8hY2KOFqftQfDjxB8Z/BPh+1sPhL8W9U1TQfgb4e8DWzXPwx1yNrLxDZ6taz3UcTy2ahQtmt0BdKfJcM0ays0gRv25ory3wtRdKVJzdnft1bZ+hUvpE5nTzGjmUcLDmpez05pa+zjGOv+JR19WfzseIv2UPi3qf7MHg/wnD8Ifi42vaL4p13VryA+CNVVI7a7tNHit3Epg8tyz2VyCisWTYCwUOhb274Y/DjxBoXxO+Iuta78Jfi28es/A2HwN4duH+GOuXEkfiEaBp2mvGoWzZoBvhvIftTBIShY+aY5VLftzRXNR4OoU5qftG9ui+zFx/W57eafSkzbG4aWGeCpxv7XVSl/wAvasar+7l5fNN3Pww8WfA3xBF/wSi8MfCnQvhv8cLv4nyePn8X+ItLuPhzrkdrZJ9lubNDDdtZLauDCLNiizSPvlk6BWVP0U/aP/bk8JfE/wCHunabonhT483V5beKfDurSJJ8FPGVuFtrLWrG9uX3SaWqkrBbysEB3OVCoGdlU/XdFexgslpYaE4Qb96MY/8AgKav873PzHizxYx+f4nDYrE0op0cRWxC1bu606cuT/DBU1FPe254D/w8n+Hf/Qu/H3/wxfjf/wCVNeZ/td/8FD/h9qfwUN0dH+NNhY+HNe0LxLql7qXwc8X6faafp2m6xZ6hfXMs8+mJGiRWttPIctk7MKGYhT9lV86fHT9oH4M/tSN45/Zv1XxVrEOoeO7DUvAmoT6fpV4ltHcXGnSG4soNUe2bT/7QS1keX7OZHkXaS0RCkV7E6casXR7p/d3/ABPzXLsbLBYuljYq/s5Rlrt7rvZ+tjxP/gnt+1DpP7NvwivdG8Y+DPjppuoz/wBi7I4Pg74tvlP2Xw1o2mz/AD2+myKNt1Y3KDJ+YRq67o3R2Na/ah0m+/Ye+LHgGLwZ8dG8VeMf+E1/sm0Pwd8WiO4/tW/1Kex3TnTfJi8yO6gLeY6+UXIk2MjhfqX4Kfto/DX9of4ga14Y8IeIpNU1fQomuJVfS7y0t72BZ3tnuLK4miSG+gSeN4nltXljR8KzAsoPqVcNPL4Roxgm7cskn3Unv+B9TjONq+IzKePlTSk6tGo1d6OjFpL/ALeUrv5HwR+xr+1DpPwP/sf/AISbwZ8dLH7F8LvB/hKbyvg74tu9upaZ/af22EeTpr5VPtcGJRmKTefLd9j7cn4G/Gnwr8G/2yfFXi+z8BfHTT/BWuX/AIi1OKdfhD4wnkluNUh8LuzmE6c06+Zd6bqpIKAII04RJYN/6G0Uo5dTVOnTv8Dvf53saV+O8XUxuNxnIksVT9nKN3Ze6oqXm0k7X/mZ8iftH/tyeEvif8PdO03RPCnx5ury28U+HdWkST4KeMrcLbWWtWN7cvuk0tVJWC3lYIDucqFQM7Kp73/h5P8ADv8A6F34+/8Ahi/G/wD8qa9+oruUIqo590l91/8AM+TnjZSwcMG1pCU5X/xqCt8uT8T5E+MH7cnhLxr8QvhXqWm+FPjzNZ+EfFM+raq7fBTxlEbe2fRdUsldVfSw0h8+7t12RhmAcsRsR2Xwb9o/4u/8LP8A2/NO+IuieA/jfdeELbwt4d0mS8k+Evii3lW5svGFjq9yn2eTT1nIWxt5ZA4j2uyiNC0rLGf00orixWXwrxcW2ru/4WPqOHONq+UV6denTUnCm6erezqOpf1u7eh+Zfxg+Lv/AAmv/BYD4V/GrTfAfxvm+G/hHwtPpOq6k3wl8URT29y8eqKqLZvp4upBm7t/njiZRvOT8j7T4P8Axd/4Qr4e/FTTdS8B/G+G88XfHqD4h6Ui/CXxRKLjRE1rS71rhmTTyscnkWlw32eQrOSgUR73RW/TSiudZRTU5z5n7zk//AoqP4WPcqeKOLnhcNhfYRtQp0Kad3qqFadZN+cnNp9kj8y/+CUvxd/4ZA+HsGm/EDwH8b9HvI/C1jpLJbfCXxRqYFzDrXiG9kTda6fKuBBqVm2/O0mVlBLxSqne/sa/tQ6T8D/7H/4SbwZ8dLH7F8LvB/hKbyvg74tu9upaZ/af22EeTpr5VPtcGJRmKTefLd9j7fveitMHlkMPTowTb9mmvW5w8T+IeJzrGZnjKtKMXjpQlJJv3eR3su9/M+CP+CY/7UOk/sp/sPeCPAPjrwZ8dNJ8VaD9v+3Wlv8AB3xbqMcXnX9zPHie202SF8xyofkc4JIOGBA+C/8Agpx8E/iL+1Z+3D438feBfhT8YdW8K699g+w3dx4A1nTpJfJsLaCTMFzaxzJiSJx86DIAIypBP710Vx5hw/SxeBpYGUmlDl172Vj6ngrxsx3DnF+P4vo4aE6mL9reDbUY+1qxquzWrs42V+h+R3/BEbWtX/YL/wCFm/8AC0vh18atA/4Sv+yv7M+yfC7xHrHn/Z/tvnbvsVjN5ePPix5m3duO3O1sTfsueG/Dvgf9rz40+N/H3w/+PX/CNfFuTxfpV1Cnws8Uzx3Wkahe6fPYER22nm4iknj/ALTEgJDxCGIOsLOnmfrXRTw3D9GlQo0G7qk21frd3/4BnnvjXmmY5vmmbwpKlPHwpwkoyfuqnBRTi973ipeTSPzL8O/F3+zP2YPGHhObwH8b117WvgLoXw8s4B8JfFDJJrdpaaxFcW5lGn+WiK97bAXDMIH3krIwRyvgvxr8LeLvHfw9+Nmm6X8MvjNPeeO/FPinVtER/hvr0IurbUNa8L3to7M9mFhLwaTfsUlKNGYVVwjywrJ+11Z3i3xbpngLwrqWua3qFnpOjaNay31/fXcyw29nBEheSWR2ICoqqSSTgAE1GLyGjUo8k5tJRavp5u/4muQeNWPy3Mvr9LDRlJ1YVLXlvGMIpfPkX3n8zms/scfF7w7qOk2eofCv4kWN3r101hpkFx4ZvYpNRuFgluGhhVowZJBBBPKVXJCQyNjajEfY3/BVrwt4u/a/+IU+pfD/AOGXxm1izk8U32rK9z8N9e0wm2m0Xw9ZRvturOJsmfTbxdmNwESsQEliZ/0T1P8Aao+Bn7R9rpvxAuPF+uaLD+z3qo8ZXUGraJf6BdQC70jUdOhlms7+1juZbaaDULkwtCmJZolVHco8Z9n+BP7QPhX9pPwVLr/hG+vLuytr2fTLuG/0y60q+0+6hbbLBc2l3HFcW8q8HZLGrFWRgCrKT59PgilSw9XC88ve5W9NVa9vvufoOZfSyzXGZ5gc9lgaalho1oRjzStL2yhe77xVO6S7s/nP/wCGDPjl/wBEY+K//hI6h/8AGq95/wCCY/wT+Iv7Kf7cPgjx946+FPxh0nwroP2/7dd2/gDWdRki86wuYI8QW1rJM+ZJUHyIcAknCgkfvXRWGE4HoYevCuqrfK09l0dz0OJfpe5xnOT4vJ6uX04xxFOpTbUpXSnFxbXmr3PwU+JPwT+Ivij4u/tOazZfCn4wy6d8Vvtn/CMSN4A1mNr/AM3xLp+pJvRrUNb5tbaZ/wB+I8FQhxIyofre3+Lvl/D39ojTT4D+N/2z4l+FtY0nw6n/AAqXxRi9ubrWvFd7Cjt/Z+2ANBrGnsXmKKpmdWKvDMsf6aUV6mE4bpUKkqim3dNffzf/ACR+dcSePOYZxg6ODqYWEVTlTkmnLX2aoJL5+wX/AIEz8jvjdrWr+PP24df8faX8OvjVP4V1H4o+AfFtvdv8LvEcMj6bo1hdQajMYHsVmVo5JowsRQSzAkxJIoJHvXwR/ah0nwH8XdA1nVPBnx0g07Tv+E++0SJ8HfFszJ/bPiW11LTsImmszeZawyO2AfJICS+XIQh+96K7cPk9OlUlUUn7zb++fN/wD5fOvFHF5lgaGBnQjFUacaaab1UcO8Pf1afN66bHwR/wUJ/ah0n9pL4RWWjeDvBnx01LUYP7a3xz/B3xbYqPtXhrWdNg+e402NTuur62Q4PyiRnbbGjuvyR+1T4W8XfF3/gpH8R/ihoHwy+M154J8T+FtT0nTb6T4b69bTT3Nx4Vl0uJGtpbNbiMG8dULvGqqp8xiIwXr9rqKzzHI6eLleUmvejL/wABTVvxO3gXxexnDNL2VDDxqfuK9DVtaVpwm5adYuFkvM/Dv9sv4Pa1+0T4z8U6tYfCj4zanN/YurR+GpZPh34hs9uo3Xja81SPcr2qbQ2jXkrkzDy1aTyiRcKIx718RPEumeP/ABn8MdWufhz8b7qb4feN9f8AFMEp+FXiuP7CL3xtp2qQzBRYjzS+jR6g5jwxRsRMq3DRRn9SqKwp8OUISnLm+NJbLo7p+p62N8ds1xFDCUPYpLDTqTjaUtqtN05Q8o2cm0t3J33Z4D/w8n+Hf/Qu/H3/AMMX43/+VNH/AA8n+Hf/AELvx9/8MX43/wDlTXv1FfSaH4VqeA/8PJ/h3/0Lvx9/8MX43/8AlTXzh+2n8afCv7R3x1+EHinTvAXx01SH4a36amlxL8IfGFm1hcf25oM7uI5NOQzf8S601U4CuMqqgebJArfobRXLjMNDEUnRls7fg7/oe/wxxBXyTMqeZ4fWUFJWu1dThKDV10ak0+60eh+Wvw68S6ZoX7bHhr4oar8OfjeieHta1aSHUF+FXit3g06+v/GV1J+4SxLMX/tXQWx5ZkXzJBhfJuhHrXHxd8z4e/s76aPAfxv+2fDTwto+k+Ik/wCFS+KMWVza614UvZkRv7P2zhYNH1Bg8JdWMKKpZ5oVk/TSivPhk1KNJ003r/8Aa/8AyKPt8V4rY6vj6ePqUlemopK7slFV1Zdk3Xk9Oq82fBH7QP7UOk/Ef9uH9nvx9o/gz46XPhX4bf8ACR/8JDdv8HfFsEln9usI4LbZBJpqzT7pFIPko+wDL7VOa8y/ay/aJ0v4o33jvw3ovhX4vz+IPHGva34l0LTp/hb4ltLrUNO/4QIeHWuVjmsEYImq3drA+4Axi4ilcLCwkP6KfGX4/eDv2fNL0S88Za/ZaDB4k1yy8N6V5+5n1DUbyURW9tEigs7uxzwMKqu7FURmHl3xK+NHwh8P/t5+B4ta8U6pbfEjS9FvvClhZQ6fcy6TENamsbpYry7SBre2u5Tokf2eOa4iaQNIFjkLoRtVyqFbmV3787/NQiuX1tZ99TzMp8RMTlrws40ov6vh5UdW1eMq9Su5vtaU3HtaPe5wv7K37cnhL4RfswfDjwnr/hT482eveGPC2maTqUEfwU8ZXKQXNvaRRSossWltHIA6MA6MytjKkgg0ftH/ALcnhL4n/D3TtN0Twp8ebq8tvFPh3VpEk+CnjK3C21lrVje3L7pNLVSVgt5WCA7nKhUDOyqfadA/bR+Gvij9oK5+F9j4ikn8Y2rXEJh/su8Wxmnt445bi1ivjELSa6ijlR5LeOZpo1JZkAViPUq7Pq8fq6pdHGyfdWtc+X/tup/bLzblXMqvtOXpfm57dz5E/aP/AG5PCXxP+HunabonhT483V5beKfDurSJJ8FPGVuFtrLWrG9uX3SaWqkrBbysEB3OVCoGdlU97/w8n+Hf/Qu/H3/wxfjf/wCVNe/UVooRVRz7pL7r/wCZxTxspYOGDa0hKcr/AONQVvlyfifnl+338afCv7Sfjn4E+JPDHgL46anrXwx+Iena1f3M3wh8YWP2DRRIsl8yrPp0aztvgtCI0DzHZ8ikF8/LP7MXwHi+G/8AwzT/AMJR4F/aAsP+EB8Wa54x8c/Z/hnr9z/ZV232L+y0t/K05/tMUv8AZtr5gt/OZPMl3tFkbP2zorxcVkNCvifrM3209HB/lC3oz9T4d8Zc2ybIo5HhorlippS5ndKdPEwslslGWIdRf3oruz8FP2Tvgn8Rfg78IviBo3iH4U/GGz1HxH5v9nxxeANZuVm3eGvE2mjLxWrKn+larYp85XiVn/1cUrp+tv8Aw8n+Hf8A0Lvx9/8ADF+N/wD5U179RWuTZPTy6l7KEnL+n/mcHip4o4vjjMY5jiqEaTV9IttaxhHr/g/E+RP2j/25PCXxP+HunabonhT483V5beKfDurSJJ8FPGVuFtrLWrG9uX3SaWqkrBbysEB3OVCoGdlU97/w8n+Hf/Qu/H3/AMMX43/+VNe/UV6qhFVHPukvuv8A5n53PGylg4YNrSEpyv8A41BW+XJ+J+R37ZWtav8AHD9nvWPDfhn4dfGq+1i9/wCEw8mGX4XeI7RW/tPxrpms2WZJrFIxvsLSeQ5YeWyCKTZK6Rt6z+3J8V/Df7Tf7QPwR8W6T4R+P9xbfCnVl1h2Hwf8V2gEx1fRJHV0m0wPKgsLbU5QIhnzIIkyXkjjl/RiivIeS0mppt+8oL/wDZn6TT8WMfSlg50qUU8PUxU1q/e+tpRnF+SSsu99T4I+JP7UOk+KPhF+05o1l4M+Okuo/Fb7Z/wjEbfB3xbGt/5vhrT9NTe7aaFt83VtMn78x4ChziNlcn/BTj9qHSf2rP2HvG/gHwL4M+OmreKte+wfYbS4+Dvi3To5fJv7aeTM9zpscKYjic/O4yQAMsQD970V1VcBCpSq0m376a9L83/yR89lvG1fB5jgMxjTTeEqU6iWtpOnGjFJ9k/Yq9v5mfInwf8A25PCXgr4hfFTUtS8KfHmGz8XeKYNW0p1+CnjKU3Fsmi6XZM7Kmlloz59pcLskCsQgYDY6Mx8YP25PCXjX4hfCvUtN8KfHmaz8I+KZ9W1V2+CnjKI29s+i6pZK6q+lhpD593brsjDMA5YjYjsv13RXR7CPJyed/8AybmPE/tup9a+tcqv7P2dvL2Psb+ttfU/Mv8AZw+Lv/CsP2/NR+Iut+A/jfa+ELnwt4i0mO8j+Evii4la5vfGF9q9sn2ePT2nAaxuIpC5j2ozGNysqtGD/gnT8Xf+GZfh78GdN8aeA/jfpl54H8LeK9J1pIPhL4ovxa3Oo61YXtmitb6fIsoeC3mYvEXWMqFco7Kp/TSuP8efH7wd8MfiP4K8Ia7r9lp/if4i3VzZ+HNMfc1xqsltbvcz7FUHCRxISzthAWRS250DefQyaFOcWpNtX/Fwl/7Z+J9vm3ihi8fh69GdCKVTlbd3ooU8VT/LEyb7ci7s+Rf+CVHixde/aA8RaW+leKtF1Lwf8Dfhn4c1W01/w5qGiTxXttc+KlmEaXkMTTRBjgTxB4XIYK7bWx91V84eCf2ivgvL+3b4k/s/xVrcnj7xbYWPgR1m0e9j8P3U+iy6peG0tNRa2Wzmv0OpXnnQR3Mkii2x5aNDLnvfgp+2j8Nf2h/iBrXhjwh4ik1TV9Cia4lV9LvLS3vYFne2e4sriaJIb6BJ43ieW1eWNHwrMCyg+rSp8tOEI6rlVvNJLX0PzrNMc8VjK2LqLlc5uTXZyk9PvdkepUUUVRxhRRRQAUUUUAFFFFABRRRQAUUUUAFFFFABRRRQAV8I/wDBRj9rf4VQfGnWfgNdePfhR8K9c8d+HoF+Ivi/xJrlho95Z+H5DNFHZWhmdXub+VJLkRZzFaJI8z5Z4opvu6ilZNrmV11T2fk/K+/fZ6MpSaT5dH0fbXf17dnr0PzJ+K+u+HfCnxG+J3wdsr+zHjr4hfFz4f8AiTwLpKz+bd6zodvFoBa/tjkvLbW0ej6j5kq5WLyDuI3ru/Taiit5VXKCg+j39Iwgr+doK76tvbYzStotrf53+Wui6d2FFFFYlBRRRQAUUUUAFFFFABRRRQAUUUUAFFFFABRRRQB+cH7RniXx2v8AwUz+DPibxN8E/iE80HxLu9B8L6lFqPh2WwbRk0DV0LW+dSFwjzu73swlhiJit4owHkhjWSH4K+K9O1L47/C/4RQXkEnxU8B/Hrxp4v8AEmjK3+n6Xo06a9NDqMy/fW2ni1bTljlYbZGuFQElWA/SWitaVVwUYvVRXzbumm+m6batq29h1m6nN5q3ytUj66RqWV725VutAooorIQUUUUAFFFFABRRRQAUUUUAFFFFABRRRQAUUUUAFfmb+zJ8SPGXwb+Omj/Dez+KP2zxx4i+Jni6HxN8LZNNsQ+maPdXWq6jDrxdU+3R7t9my3Tz/ZZFuUhWES4NfplRUuKleMtmrP8AD1076X7NPUbb5OVd7r1s1f5Xuvxuro/OP/gmd4z0n4ifE39mvw3oF1BdeIPgZ8HtW8M/ESyhI8/wvqbXGj2q2F6o5inefTb51jfBZYGkAKlWP6OUUV01q7q2ct/eb9ZSlJ+mstPLqT18tLfclq+oUUUVgMKKKKACiiigAooooAKKKKACiiigAooooAK8o/busr3Uv2J/i3b6d4YtfGt/N4P1VLbQLlJXh1mQ2koW2ZYnSRg5wpEbq5zhWVsEer0VFSPNBx7/ANeX5o1o1PZ1I1OzT+4/JGbx3pvj/wALfErxToPxE/4X14P8HQfDPXdc+ICW8cklla6f4ga/1HSWa0VbZ47K1Q3jReX9qjFywuZJm8sr9p/8E8vF2l/Fz4j/ALQnxA8K6hZ634E8Z+PYZNA1ewmWax1lbTQ9Lsbm4tpFJSWL7VbzReYhKs0D4JxX03RXY6+srLR3++Tg32/59q2ndtts5owcYpLy+5K3yd9e3RJK1iiiiuY0CiiigAooooAKKKKACiiigAooooAKKKKACiiigD5R/wCCp/wi8Lav4J8DeNLvw7o134u0j4heCtP0/WZ7NJL2wt5PFGmmSKGUgtErnG8IRv2ruztGPCP2hvFenaR8c/jF8Jrq8gj+KHxK+NHgXxT4S0d2/wBO1fSoBoLTX1uv3ngthpGpebIoKw+Q24jcu79JaK1w1T2LVukub8aUreXvUk7/AN56X1HKTadt7W+auk33Vna3ktT82vgr4r07Uvjv8L/hFBeQSfFTwH8evGni/wASaMrf6fpejTpr00OozL99baeLVtOWOVhtka4VASVYD9JaKKlzvBRfTf1slp2Wm2tu4VG51ZVX1v8AjKU/zm/lb1ZRRRUCCiiigAooooAKKKKACiiigAooooAKKKKACvlH9r74ReFtF/bj/Zp8Z2vh3RoPF2tePbmxv9aWzT+0Lq2i8La55cDT43mJTkiPO0MWOMkk/V1FVCXLJS7B9iUP5oyX3pr8N/kfnv8AD79qH4Pftq/tY6b4U8M/EH4R+EvCfws8T6lJ4Z8K2HiOwtfEPjXxSEuop737DHIJI7GJri8dRs826mLTkLEiG4y/+CZ3jPSfiJ8Tf2a/DegXUF14g+Bnwe1bwz8RLKEjz/C+ptcaParYXqjmKd59NvnWN8FlgaQAqVY/o5RVUKns1p8/N8so3+6bv5KKVlHUm222vl5K97efl5ty1uFFFFZgFFFFABRRRQAUUUUAFFFFABRRRQAUUUUAFFFFABRRRQAUUUUAFFFFABRRRQAUUUUAFFFFABRRRQAUUUUAFFFFABRRRQAUUUUAFFFFABRRRQAUUUUAFFFFABRRRQAUUUUAFFFFABRRRQAUUUUAFFFFABRRRQB8LeO9J8QfCz9s3w/F4a+Jvjnx18S4dS1PxZ49sX1u8j8MaL4Te3vBZ2kmlmWSytpPNWyit2iRLqdre4mZynn1xf8AwTE/aE8beJPjL8IbzXtI+M1onxx+Hl/4p1q88W+KLLV9E1i/jbT7lLvSLaHU7ttNtlW+njEKwWyGOW2DIXj4+lPgF/wT7n/Z38e6zq+l/Gn4sappviXX7zxHreh6pZ+G5rTWrq5yH+0TppKXrIqiNEAuQUjhijBEaBa1v2bv2BvDP7M3jtNa03xB4t1yHSNLm0DwtperSWbWXgvS5rhbiWxsBBbxSmJmit13XMk8gS1iUOAGDa4eSglzdvu92ScV3V3Dd2vGU9JOKJr3lJuO1/8AwL3k032a97ps4wWkbnG/tAftaQfCr9oz4h6vqtzrsfhP4AfDiPxTf6bYyGJNevNSlu0hRskJI8UemukauQge+3NyiMvkWv8A/BQTx3+zj8e/iv4q+MegaP4Ot9C+H3hJtO8P23jtr/w6t5qOsanaRXMt7Na26WgMjQx3M5tz5cdtuBmVVB+g/i3+yhF8RP2k/EN5qWjHXPAfxb8BP4L8YRi8ED2n2WWeSzdfmWTEiX98haI70dYGxyXTGsP+CYPh67bxReeJviJ8UfHGv+JtH0nSBretXmni80k6VeTXunXVqttZwwpcQXE3mBmidXMSGRZCZN802kk35+u807ebunHmuuXl2tY0nZuUVs+X8PZN330vGd7WbfdPTh/hd/wVyj+OPg2x0/wV4e8B+MPiZqXjSXwVa2OiePk1DwlcTRaedUkvI9bitGd7ZbLG7bZGVbg+SYsAy1P4X/bU8VfEnV/hb41udBu/BH/FzdX+FHijw2+rHULaXAuYkukYJGrOt5ZQGN9mfJnlGRvONf8AaV/ZV8T+FvhF4cm0W/8AjR8WvG2jeLl18eJbLxJoVj4r0dntJbVprG3vLeHRGi8lhA9o0UELJNLNh7gbn479lH9iDx54U8GfCTRfE9lqNlaab8QvEXxV8Qzanqdtf34nuJ7xtOsLp4W8t7s/b0nme3VoFksnVHIZGbSCg6nN9lOKf/lPm5dnZx9qterSvsljV5lSsvialb7qnLffaXs7dbK7VtX9x0UUVgaBRRRQAUUUUAFFFFABRRRQAUUUUAFFFFABRRRQAUUUUAFFFFABRRRQAUUUUAFFFFABRRRQAUUUUAFFFFABRRRQAUUUUAFFFFABRRRQAUUUUAFFFFABRRRQAUUUUAFFFFABRRRQAUUUUAFFFFABRRRQAUUUUAFFFFABRRRQAUUUUAFFFFABRRRQAUUUUAFFFFABRRRQAUUUUAFFFFABRRRQAUUUUAFFFFABRRRQAUUUUAFFFFABRRRQAUUUUAFFFFABRRRQAUUUUAFFFFABRRRQAUUUUAFFFFABRRRQAUUUUAFFFFABRRRQAUUUUAFFFFABRRRQAUUUUAFFFFABRRRQAUUUUAFFFFABRRRQAUUUUAFFFFABRRRQAUUUUAFFFFABRRRQAUUUUAFFFFABRRRQAUUUUAFFFFABRRRQAUUUUAFFFFAH/9k=;" parent="1" vertex="1">
          <mxGeometry x="40" y="150" width="751.1" height="390" as="geometry" />
        </mxCell>
        <mxCell id="Saw2sSsg1X3_uLdd9VW2-2" value="&lt;span style=&quot;font-size: 16px;&quot;&gt;200&lt;/span&gt;&lt;span style=&quot;color: rgba(0, 0, 0, 0); font-family: monospace; font-size: 0px; text-align: start; text-wrap: nowrap;&quot;&gt;%3CmxGraphModel%3E%3Croot%3E%3CmxCell%20id%3D%220%22%2F%3E%3CmxCell%20id%3D%221%22%20parent%3D%220%22%2F%3E%3CmxCell%20id%3D%222%22%20value%3D%22%26lt%3Bfont%20style%3D%26quot%3Bfont-size%3A%2016px%3B%26quot%3B%26gt%3B111%26lt%3B%2Ffont%26gt%3B%22%20style%3D%22text%3BstrokeColor%3Dnone%3Balign%3Dcenter%3BfillColor%3Dnone%3Bhtml%3D1%3BverticalAlign%3Dmiddle%3BwhiteSpace%3Dwrap%3Brounded%3D0%3B%22%20vertex%3D%221%22%20parent%3D%221%22%3E%3CmxGeometry%20x%3D%22242%22%20y%3D%22317%22%20width%3D%2260%22%20height%3D%2230%22%20as%3D%22geometry%22%2F%3E%3C%2FmxCell%3E%3C%2Froot%3E%3C%2FmxGraphModel%3E&lt;/span&gt;" style="text;strokeColor=none;align=center;fillColor=none;html=1;verticalAlign=middle;whiteSpace=wrap;rounded=0;" parent="1" vertex="1">
          <mxGeometry x="170" y="151" width="60" height="30" as="geometry" />
        </mxCell>
        <mxCell id="Saw2sSsg1X3_uLdd9VW2-3" value="&lt;span style=&quot;font-size: 16px;&quot;&gt;220&lt;/span&gt;" style="text;strokeColor=none;align=center;fillColor=none;html=1;verticalAlign=middle;whiteSpace=wrap;rounded=0;" parent="1" vertex="1">
          <mxGeometry x="250" y="350" width="60" height="30" as="geometry" />
        </mxCell>
        <mxCell id="Saw2sSsg1X3_uLdd9VW2-4" value="&lt;span style=&quot;font-size: 16px;&quot;&gt;222&lt;/span&gt;" style="text;strokeColor=none;align=center;fillColor=none;html=1;verticalAlign=middle;whiteSpace=wrap;rounded=0;" parent="1" vertex="1">
          <mxGeometry x="310" y="400" width="60" height="30" as="geometry" />
        </mxCell>
        <mxCell id="Saw2sSsg1X3_uLdd9VW2-5" value="&lt;span style=&quot;font-size: 16px;&quot;&gt;400&lt;/span&gt;" style="text;strokeColor=none;align=center;fillColor=none;html=1;verticalAlign=middle;whiteSpace=wrap;rounded=0;" parent="1" vertex="1">
          <mxGeometry x="360" y="390" width="60" height="30" as="geometry" />
        </mxCell>
        <mxCell id="Saw2sSsg1X3_uLdd9VW2-6" value="&lt;span style=&quot;font-size: 16px;&quot;&gt;420&lt;/span&gt;" style="text;strokeColor=none;align=center;fillColor=none;html=1;verticalAlign=middle;whiteSpace=wrap;rounded=0;" parent="1" vertex="1">
          <mxGeometry x="414" y="380" width="60" height="30" as="geometry" />
        </mxCell>
        <mxCell id="Saw2sSsg1X3_uLdd9VW2-7" value="&lt;span style=&quot;font-size: 16px;&quot;&gt;422&lt;/span&gt;" style="text;strokeColor=none;align=center;fillColor=none;html=1;verticalAlign=middle;whiteSpace=wrap;rounded=0;" parent="1" vertex="1">
          <mxGeometry x="460" y="420" width="60" height="30" as="geometry" />
        </mxCell>
        <mxCell id="Saw2sSsg1X3_uLdd9VW2-8" value="&lt;span style=&quot;font-size: 16px;&quot;&gt;442&lt;/span&gt;&lt;div&gt;&lt;span style=&quot;font-size: 16px;&quot;&gt;600&lt;/span&gt;&lt;/div&gt;" style="text;strokeColor=none;align=center;fillColor=none;html=1;verticalAlign=middle;whiteSpace=wrap;rounded=0;" parent="1" vertex="1">
          <mxGeometry x="580" y="420" width="60" height="30" as="geometry" />
        </mxCell>
        <mxCell id="Saw2sSsg1X3_uLdd9VW2-9" value="&lt;span style=&quot;font-size: 16px;&quot;&gt;440&lt;/span&gt;" style="text;strokeColor=none;align=center;fillColor=none;html=1;verticalAlign=middle;whiteSpace=wrap;rounded=0;" parent="1" vertex="1">
          <mxGeometry x="540" y="450" width="60" height="30" as="geometry" />
        </mxCell>
        <mxCell id="Saw2sSsg1X3_uLdd9VW2-10" value="&lt;span style=&quot;font-size: 16px;&quot;&gt;620&lt;/span&gt;" style="text;strokeColor=none;align=center;fillColor=none;html=1;verticalAlign=middle;whiteSpace=wrap;rounded=0;" parent="1" vertex="1">
          <mxGeometry x="626" y="449" width="60" height="30" as="geometry" />
        </mxCell>
        <mxCell id="Saw2sSsg1X3_uLdd9VW2-11" value="&lt;span style=&quot;font-size: 16px;&quot;&gt;622&lt;/span&gt;" style="text;strokeColor=none;align=center;fillColor=none;html=1;verticalAlign=middle;whiteSpace=wrap;rounded=0;" parent="1" vertex="1">
          <mxGeometry x="670" y="449" width="60" height="30" as="geometry" />
        </mxCell>
        <mxCell id="Saw2sSsg1X3_uLdd9VW2-12" value="&lt;span style=&quot;font-size: 16px;&quot;&gt;444&lt;/span&gt;" style="text;strokeColor=none;align=center;fillColor=none;html=1;verticalAlign=middle;whiteSpace=wrap;rounded=0;" parent="1" vertex="1">
          <mxGeometry x="720" y="459" width="60" height="30" as="geometry" />
        </mxCell>
        <mxCell id="dCQeGaIZhU7exJiw2DFm-1" value="" style="shape=image;imageAspect=0;aspect=fixed;verticalLabelPosition=bottom;verticalAlign=top;image=data:image/jpeg,/9j/4AAQSkZJRgABAQEAYABgAAD/2wBDAAIBAQIBAQICAgICAgICAwUDAwMDAwYEBAMFBwYHBwcGBwcICQsJCAgKCAcHCg0KCgsMDAwMBwkODw0MDgsMDAz/2wBDAQICAgMDAwYDAwYMCAcIDAwMDAwMDAwMDAwMDAwMDAwMDAwMDAwMDAwMDAwMDAwMDAwMDAwMDAwMDAwMDAwMDAz/wAARCAHWA4kDASIAAhEBAxEB/8QAHwAAAQUBAQEBAQEAAAAAAAAAAAECAwQFBgcICQoL/8QAtRAAAgEDAwIEAwUFBAQAAAF9AQIDAAQRBRIhMUEGE1FhByJxFDKBkaEII0KxwRVS0fAkM2JyggkKFhcYGRolJicoKSo0NTY3ODk6Q0RFRkdISUpTVFVWV1hZWmNkZWZnaGlqc3R1dnd4eXqDhIWGh4iJipKTlJWWl5iZmqKjpKWmp6ipqrKztLW2t7i5usLDxMXGx8jJytLT1NXW19jZ2uHi4+Tl5ufo6erx8vP09fb3+Pn6/8QAHwEAAwEBAQEBAQEBAQAAAAAAAAECAwQFBgcICQoL/8QAtREAAgECBAQDBAcFBAQAAQJ3AAECAxEEBSExBhJBUQdhcRMiMoEIFEKRobHBCSMzUvAVYnLRChYkNOEl8RcYGRomJygpKjU2Nzg5OkNERUZHSElKU1RVVldYWVpjZGVmZ2hpanN0dXZ3eHl6goOEhYaHiImKkpOUlZaXmJmaoqOkpaanqKmqsrO0tba3uLm6wsPExcbHyMnK0tPU1dbX2Nna4uPk5ebn6Onq8vP09fb3+Pn6/9oADAMBAAIRAxEAPwD97KKKK8c7AooooAKKKKACiiigAooooAK8h/aD/azl+CHxS8J+C9J+G3j/AOJfibxfpWqa3b2fhmXSIfslnp82nw3Es0mpX9mn+s1K1CqjOxy5wAua9erwH4i/8pSPg7/2Svx3/wCnfwbVLcTD/hsX4if9Go/H3/wb+CP/AJoaP+GxfiJ/0aj8ff8Awb+CP/mhr36ii/kB4D/w2L8RP+jUfj7/AODfwR/80NH/AA2L8RP+jUfj7/4N/BH/AM0Ne/UUX8gPAf8AhsX4if8ARqPx9/8ABv4I/wDmho/4bF+In/RqPx9/8G/gj/5oa9+oov5AeA/8Ni/ET/o1H4+/+DfwR/8ANDR/w2L8RP8Ao1H4+/8Ag38Ef/NDXv1FF/IDwH/hsX4if9Go/H3/AMG/gj/5oaP+GxfiJ/0aj8ff/Bv4I/8Amhr36ii/kB4D/wANi/ET/o1H4+/+DfwR/wDNDR/w2L8RP+jUfj7/AODfwR/80Ne/UUX8gPAf+GxfiJ/0aj8ff/Bv4I/+aGj/AIbF+In/AEaj8ff/AAb+CP8A5oa9+oov5AeA/wDDYvxE/wCjUfj7/wCDfwR/80NH/DYvxE/6NR+Pv/g38Ef/ADQ179RRfyA8B/4bF+In/RqPx9/8G/gj/wCaGj/hsX4if9Go/H3/AMG/gj/5oa9+oov5AeA/8Ni/ET/o1H4+/wDg38Ef/NDR/wANi/ET/o1H4+/+DfwR/wDNDXv1FF/IDwH/AIbF+In/AEaj8ff/AAb+CP8A5oaP+GxfiJ/0aj8ff/Bv4I/+aGvfqKL+QHgP/DYvxE/6NR+Pv/g38Ef/ADQ0f8Ni/ET/AKNR+Pv/AIN/BH/zQ179RRfyA8B/4bF+In/RqPx9/wDBv4I/+aGj/hsX4if9Go/H3/wb+CP/AJoa9+oov5AeA/8ADYvxE/6NR+Pv/g38Ef8AzQ0f8Ni/ET/o1H4+/wDg38Ef/NDXv1FF/IDwH/hsX4if9Go/H3/wb+CP/mho/wCGxfiJ/wBGo/H3/wAG/gj/AOaGvfqKL+QHgP8Aw2L8RP8Ao1H4+/8Ag38Ef/NDR/w2L8RP+jUfj7/4N/BH/wA0Ne/UUX8gPAf+GxfiJ/0aj8ff/Bv4I/8Amho/4bF+In/RqPx9/wDBv4I/+aGvfqKL+QHgP/DYvxE/6NR+Pv8A4N/BH/zQ0f8ADYvxE/6NR+Pv/g38Ef8AzQ179RRfyA8B/wCGxfiJ/wBGo/H3/wAG/gj/AOaGj/hsX4if9Go/H3/wb+CP/mhr36ii/kB4D/w2L8RP+jUfj7/4N/BH/wA0NH/DYvxE/wCjUfj7/wCDfwR/80Ne/UUX8gPAf+GxfiJ/0aj8ff8Awb+CP/mho/4bF+In/RqPx9/8G/gj/wCaGvfqKL+QHgP/AA2L8RP+jUfj7/4N/BH/AM0NH/DYvxE/6NR+Pv8A4N/BH/zQ179RRfyA8B/4bF+In/RqPx9/8G/gj/5oaP8AhsX4if8ARqPx9/8ABv4I/wDmhr36ii/kB4D/AMNi/ET/AKNR+Pv/AIN/BH/zQ0f8Ni/ET/o1H4+/+DfwR/8ANDXv1FF/IDwH/hsX4if9Go/H3/wb+CP/AJoaP+GxfiJ/0aj8ff8Awb+CP/mhr36ii/kB4D/w2L8RP+jUfj7/AODfwR/80NH/AA2L8RP+jUfj7/4N/BH/AM0Ne/UUX8gPAf8AhsX4if8ARqPx9/8ABv4I/wDmho/4bF+In/RqPx9/8G/gj/5oa9+oov5AeA/8Ni/ET/o1H4+/+DfwR/8ANDR/w2L8RP8Ao1H4+/8Ag38Ef/NDXv1FF/IDwH/hsX4if9Go/H3/AMG/gj/5oaP+GxfiJ/0aj8ff/Bv4I/8Amhr36ii/kB4D/wANi/ET/o1H4+/+DfwR/wDNDR/w2L8RP+jUfj7/AODfwR/80Ne/UUX8gPAf+GxfiJ/0aj8ff/Bv4I/+aGj/AIbF+In/AEaj8ff/AAb+CP8A5oa9+oov5AeA/wDDYvxE/wCjUfj7/wCDfwR/80NH/DYvxE/6NR+Pv/g38Ef/ADQ179RRfyA8B/4bF+In/RqPx9/8G/gj/wCaGj/hsX4if9Go/H3/AMG/gj/5oa9+oov5AeA/8Ni/ET/o1H4+/wDg38Ef/NDR/wANi/ET/o1H4+/+DfwR/wDNDXv1FF/IDwH/AIbF+In/AEaj8ff/AAb+CP8A5oaP+GxfiJ/0aj8ff/Bv4I/+aGvfqKL+QHgP/DYvxE/6NR+Pv/g38Ef/ADQ0f8Ni/ET/AKNR+Pv/AIN/BH/zQ179RRfyA8B/4bF+In/RqPx9/wDBv4I/+aGj/hsX4if9Go/H3/wb+CP/AJoa9+oov5AeA/8ADYvxE/6NR+Pv/g38Ef8AzQ0f8Ni/ET/o1H4+/wDg38Ef/NDXv1FF/IDwH/hsX4if9Go/H3/wb+CP/mho/wCGxfiJ/wBGo/H3/wAG/gj/AOaGvfqKL+QHgP8Aw2L8RP8Ao1H4+/8Ag38Ef/NDR/w2L8RP+jUfj7/4N/BH/wA0Ne/UUX8gPAf+GxfiJ/0aj8ff/Bv4I/8Amho/4bF+In/RqPx9/wDBv4I/+aGvfqKL+QHgP/DYvxE/6NR+Pv8A4N/BH/zQ0f8ADYvxE/6NR+Pv/g38Ef8AzQ179RRfyA8B/wCGxfiJ/wBGo/H3/wAG/gj/AOaGj/hsX4if9Go/H3/wb+CP/mhr36ii/kB4D/w2L8RP+jUfj7/4N/BH/wA0NH/DYvxE/wCjUfj7/wCDfwR/80Ne/UUX8gPAf+GxfiJ/0aj8ff8Awb+CP/mho/4bF+In/RqPx9/8G/gj/wCaGvfqKL+QHgP/AA2L8RP+jUfj7/4N/BH/AM0NH/DYvxE/6NR+Pv8A4N/BH/zQ179RRfyA8B/4bF+In/RqPx9/8G/gj/5oaP8AhsX4if8ARqPx9/8ABv4I/wDmhr36ii/kB4D/AMNi/ET/AKNR+Pv/AIN/BH/zQ0f8Ni/ET/o1H4+/+DfwR/8ANDXv1FF/IDwH/hsX4if9Go/H3/wb+CP/AJoaP+GxfiJ/0aj8ff8Awb+CP/mhr36ii/kB5D+z5+1nL8b/AIpeLPBerfDbx/8ADTxN4Q0rS9buLPxNLpE32uz1CbUIbeWGTTb+8T/WabdBldkYYQ4IbNevV4D8Ov8AlKR8Yv8AslfgT/07+Mq9+oe4BRRRUjCiiigAooooAKKKKACiiigAooooAK8B+Iv/AClI+Dv/AGSvx3/6d/Bte/V4D8Rf+UpHwd/7JX47/wDTv4Nqo7iZ79RRRUjCiiigAooooAKKKKACiiigAooooAKKKKACiiigAooooAKKKKACiiigAooooAKKKKACiiigAooooAKKKKACiiigAooooAKKKKACiiigAooooAKKKKACiiigAooooAKKKKACiiigAooooAKKKKACiiigAooooAKKKKACiiigAooooAKKKKACiiigAooooAKKKKACiiigAooooAKKKKAOA8Q/tXfC3wjrHh3T9W+JPgHTL/xfqtzoWg2134htIZtb1C2uhaXNnao0gM9xFckQSRRhnSUhGAbiuv8ADXizS/GenSXmj6lYaraQ3VzYST2dwk8aXFtPJb3EJZSQJIp4pYnXqjxurAMpA/Ej/gvF+zZ42/bTn1jQfhath4nvpNf8SaFJez32j+GG8QXEuoeBFSEzHVbOLVo7W7iGkC4a2uDFcWNnYzW5u4otRr27xpoXwQ+Ov7Deg+Ita8N/8LV1/Wfip4+g8GT+GfDcHje+tdDv/iRK2ra1ZWD6fqlrNbw2iW8rXL2cg2vHBFNFJexl9fZqyZHNqfqT4T8WaX488Labrmh6lYazoms2sV/p+oWFwlxa31vKgeKaKVCVkjdGVlZSQwIIJBrP+KHxX8LfA/wLfeKPGniXQPCHhnTPL+2avreoQ6fY2nmSLFH5k8rKibpHRBkjLOoHJAr85f8Ag3h8P/BXXvhb4a8YW2p/AK7/AGgdU8Km71C38C6noEeqWekXsOkzXMN7p+kabpq2/l3sEYMNxDdSWrsUF44lZa3/AIS/s++KfEf7b2pav8NZf2JNW8TaB/a9z4u+JGg/AWYX3h7xC08cDaZLdx+IN8moXEc+ovcqs3nW6wp9oRRfQF1yJOw7n6N1n+LPFml+A/C2pa5rmpWGjaJo1rLf6hqF/cJb2tjbxIXlmllchY40RWZmYgKASSAK4D40+BPi1rPimDUPhv8AEfwh4ZtJLVbe90zxT4Lk8Q2odHdlntmtr+wmikcSFZRLJOjCGDy0gYTNPyH7R3hPzv2UbO1+OvxR8A6D4Zs9VtLnx5ra6d/wjui63p63gePTGW8vp0t7e6k+yWtys8twl1byXcASM3SNDNhnv1FfktF+z27/ALKn7VV54R+Fl/8AC7UfH3w2n8IaN4Y8AfCjUNE0z4im00PxSYtTmtLjTkn0+S7uLyaL7DJtuIJdK09ftl3BqNp9q99+MHwf8e+G/hV498PeNdHv/iH4z8Ua/wCH/EXiHxdoOhXDaf4w8H2niKxl1PQxYB7h7aOz0ua+txo4ef8AtGG4nmi+2Xd5qUUVcgrn3ZRX56fDf4R+GpP2yfhRrXwW+EHi/wCH/wAKNO8aWU97Cvg278IaNFfp4V8cQ3d2NFnsbWa3kIvNHhl1Fw0V0ZbG3Rg9myn9C6lqw07hRXk//CYfHL/onXwo/wDDi6h/8pKP+Ew+OX/ROvhR/wCHF1D/AOUlcn1uHaX/AIDL/I+g/wBW8X/PS/8AB9D/AOWHrFFeT/8ACYfHL/onXwo/8OLqH/ykrW8D+JPitf8Aii1i8SeDPh9pOitv+03emeM7zULqLCMV2QSaXAr5faDmVcAk8kbS1iYN2Sf/AIDL/Izq8P4qnB1JSp2SvpWot6dkqjbfkk2+h6FRRRXQeIFFFFAHgPw6/wCUpHxi/wCyV+BP/Tv4yr36vAfh1/ylI+MX/ZK/An/p38ZV79VS3EFFFFSMKKKKACiiigAooooAKKKKACiiigArwH4i/wDKUj4O/wDZK/Hf/p38G179XgPxF/5SkfB3/slfjv8A9O/g2qjuJnv1FFFSMKKKKACiiigAooooAKKKKACiiigAorzT9jH4mah8af2PPhR4x1a4e71XxZ4N0jWb2d4kiaee4soZpHKIAiks5OFAUZwBivS61rUatGpKjWi4zi2mnumtGn5p6GlamqdSUIyUkm1dbPzV7Oz3Wi0CiiisjMKKKKACiiigAooooAKKKKACiiigAooooAKKKKACiiigAooooAKKKKACiiigAooooAKKKKACiiigAooooAKKKKACiiigAooooAKKKKACiiigAooooAKKKKACiiigAooooAKKKKACiiigAooooAKKKKACiiigAooooAKKKKACiiigD5y8Nf8ABRyw13X5JLr4X/E7RvAqeNLnwCvji8bRW0aTVItak0JFEEOoyaj5c2potujmzABlSSTy4g8i7/wD/bYT9oPUfD91p3wy+J2meCPGlqL/AML+NLy20+bRtft5IDc20wS1vJr2zjntlaVGv7a2AOyKQx3EkUD+I/DX/gj/AP8ACBftBXHjH+1fhDB5/j/UfHX/AAkGjfDD+zfiEftWsz6r9gbxD/aMm63bzvsM4+yDz7AywYj8zeuh8Iv+CVeqfDb42/AvXrzxR8MdT0T9nq1Gi+GLqH4cPbeM7vRodH1DSrTT73WzqUiyRol8Z5RFZxRyzxb1ihDbRo+UnU9e8WftG/FOfxTqWgeFf2evF813BdS29jr/AIn8T6HpXhi7SNz+/ea0u77Uo45EUmIf2azl3iWRIVLvH69beLNLvPFN5ocWpWEut6dawX93p6XCNdWtvO8yQTSRA7ljke2uFRiAGMEoBJRsfIfgr/gjd8GfEHx7vvF3i79nn9nLQ9E0O1vtC8PeHtC8K2N7a6rb3Fxby/2rqXm2MKi82WsMcNvHGwtRJe/6Tci6At/o345fso/C39p7+y/+FlfDXwD8Q/7E83+zv+Em8PWmrf2f5uzzfJ+0Rv5e/wAuPdtxu8tM52ik7D1D9qH45f8ADOXwL1zxXDpf9vatb/Z9P0PRvtP2X+3dXvLiKz03T/PKOsH2m9uLaDznXy4vO3uQisR5DrH/AAVI8N/DvR/idJ8Q/APj/wCGGrfDDwrH4vl0XxBdaFLfeIrN7XWboR6d9i1K5imuPK0HUmMTyRsFgLn5Azr6drPwO0v4N/BzSdL+E3wv+GIu/BV01/4T0C42eHdG0q4mMsdzNDLbWVybSRoLu9y0VuxkM8iMVWV2HgWhf8EsfEGj/s2fFz4eL4+8IQR/GPQLvw7qN1a+D7zy/D1lLpuo2UOn6THPqszWel2z3NrcQWBkkhgc6osIijvoksRcvUWp7d4v/bS8LeFfDvjDV4bDX9a0nwnqtl4aivdPgha38Qa9dXw09NHsZJJUWS4S9ktrWWVzHaQz3Bie4V7a8W25/wAH/wDBQPR9W+Lnh74feJPAnj/wB488R6rb6fBoetjTLiaCC403Wb+2vpJrC9ubf7PKugapCFWVp1lgXfCkciStQ8Y/8E8NLtvBl74V+Hmq2Hw88EPdaZ4h03wvaaKkmjaHr+l6pZ6nY3dpBHJCILOWe0H22xiKJck+bDJZ3El1PdGj/sbePfFfxt8E/EH4ifFOw8Q634L1+HVINM0Lw7caRoBt4tH1/TlWK0n1C7aG8kfXpJJroTMJY7Czi8lDGZWPdsGp9G0UUVBQUV5P/wAMYeEP+gx8WP8Aw6Pib/5Po/4Yw8If9Bj4sf8Ah0fE3/yfXNzYj+Vf+BP/AOROH2mM/wCfcf8AwN//ACB6xRXk/wDwxh4Q/wCgx8WP/Do+Jv8A5PrW8D/syeHPh74ptdYsNS+IVxd2m/y49T8e67qdq25GQ77e5vJIX4Y43ocHDDDAENSr31irer/+RKjPF8y5oRt/if8A8gj0Kiiiug7AooooA8B+HX/KUj4xf9kr8Cf+nfxlXv1eA/Dr/lKR8Yv+yV+BP/Tv4yr36qluIKKKKkYUUUUAFFFFABRRRQAUUUUAFFFFABXgPxF/5SkfB3/slfjv/wBO/g2vfq8B+Iv/AClI+Dv/AGSvx3/6d/BtVHcTPfqKKKkYUUUUAFFFFABRRRQAUUUUAFFFFAHiH/BMv/lG7+z7/wBk18Of+mu2r2+vEP8AgmX/AMo3f2ff+ya+HP8A0121e319Dxd/yPcb/wBfan/pbMcP/Cj6IKKKK+eNgooooAKKKKACiiigAooooAKKKKACiiigAooooAKKKKACiiigAooooAKKKKACiiigAooooAKKKKACiiigAooooAKKKKACiiigAooooAKKKKACiiigAooooAKKKKACiiigAooooAKKKKACiiigAooooAKKKKACiiigAooooAKKKKAPy1+Kv7QPj3RPgJ/wUAvfh34isNc1vwja60Z5JviTcR3Xg23S31xmurJINd15re8ieKMxWxs9BDGPGIzCIrf0/wD4K6/F749/Cn9lv4YeONO1D/hWOraF4qlvPGUvg661HX9O0PT47S9kkuru7XRLtpNP+xRTxMJtGdIb69sLgyKliy3P0boX/BOn4QeHdO+Llnb+Gb9rT452t3YeM4LjxDqdzHqNvdT6jcXEMKyXDCyjefVtRlK2nkgPdyMAGwRv/tL/ALFnwl/bJ07R7X4qfDrwh4+j8PXSXmmNrWmx3Mlg6zwTsI3Ybljke2hEsYOydE8uVXjLIdeZXJs7HyH/AMEVPil8WviT8Y/jXpnxA8b/ABO8SaL4MurQ6fa+IrWRbe0utTD3txZyyX3hnRb43lttWdEQfZYrLWrKJIVEMbk8e/FH4geK/j3D4Q8T+Ff267qPxna6p4js/BVhr/w40K1NhZ3FokqxanpeoW2pwx202oWAUDUVllBCyNPH54b6t/Z9/YB+CH7KHjrXfE3w0+E/gHwLr/iT5b+/0TRILOZojHbxm3jKKPJtz9lgcwRbYmlVpShkd3br/hz8CvDXwr8U+Jtc0m1v31vxhdfatU1DUtVu9UupQHkeO2jluZZGgs4nnnaG0iKW8JuJjHGhlfcnJXugs7HP/Gn41+NvhR4pgi0b4OeL/iXol5aq8d34W1jR4rqzuFdxLHcwaneWSrGUMJikhlnLnzxIkAjjafA+NN58Qv2gf2YoNH8PeGPF/wANPEPxAul0LVJL7VLC31bwTpckrpfaglxY3dxGl59jjl+xPbvcFLu4smmjWJbgxe3Vz/xQ+GunfF/wLfeHdWuNftLDUPL82XRNdvtDvk2SLIPLu7KWG4i+ZAD5ci7lLK2VZlM3GfAmoftO/GjwH+z7+1f4m8PeN/H/AImsPhd4AkK3XxG0rRdK13wJ4qtdG1rUL62jt7DTIrfUPLV/DLqzeZZTR3cssF3cKhjf0/xZ+1z8Qrv4VeN9R1Ca/wDhr46vPGnhPwdD4KvLWwuNQ8C6RrHiK20mHWRMpngvby6t7ue5SZXn0+Ga0S08qaWxv2uffdK/Ym+DOheFotDsvhH8MbPRILV7CPT4PC1jHax27pfo8IiEQURsmq6opUDBGpXgIxcS7uv8afCjwt8SPO/4SLw1oGvfaNKvNCl/tHT4brzdPvPK+12bb1ObefyIPNiPySeTHuB2riuZCsz5TuPiv8QvgH+3D8NvhLc/F2/+IOl69r+nXGpNrulWEWvi1u/D/jacwSvZafa2Qszc+H7KSEwqboSQ3gmfyZIEP2ZXAfC/9lH4W/A/R7HT/Bfw18A+ELDTNVk12zttE8PWmnw2moSWrWkl5GkUahLhrZ3gMoAcxOyE7SRXf1Laew0eIf8ADwXwH/0Afjf/AOGY8Yf/ACso/wCHgvgP/oA/G/8A8Mx4w/8AlZXt9Fe/9ZyL/oGrf+Dof/M5lar3X3f8E8Q/4eC+A/8AoA/G/wD8Mx4w/wDlZW58OP2xPCXxU8Z2eg6ZpHxTtb6+3+VLrHwy8SaNZLsRpD5l1eWEUEfCkDfIu5iqjLMAfU6KzrYjJnTkqWHqqVtG60Gk+ja9grryur90NKrfVr7v+CFFFFeEahRRRQB4D8Ov+UpHxi/7JX4E/wDTv4yr36vAfh1/ylI+MX/ZK/An/p38ZV79VS3EFFFFSMKKKKACiiigAooooAzvFvi3TPAXhXUtc1vULPSdG0a1lvr++u5lht7OCJC8ksjsQFRVUkknAAJryrxv/wAFAvhN8P8A4IeEPiJf+JLyfwt49sV1Tw/Jpug6jqV7qdobb7WbhLK2gkuvKS3HmSO0QES8uVrs/j38IvC3xp+G93pfi/w7o3ifS7Q/2hFZarZpd2wuIlZopTG4Klkb5lJB2sFYYIBHwB8D/jF4V/Zd+EP7FXxI+JGs6d4Z+H8PwIv/AA8+r6lII7KDUp7PQ7uG3Z2+USz29jdiNc5kMRRQWIBS+CpJ7xtb5xqSt6ycFFdm/tXsaRhdxS63/OO3ond/pa7+1Piv+3n8JvgpceGU8QeLokTxdaxajp9xYWF1qVsllLJFFHfXM1tFJHaWbSTxKLq4aODL/f4OLnjH9tH4a+Avjxpnw11TxFJB4u1WW3t44U0u8ms7ae4WVra3ub1ImtbWecQyeVFPKkkuBsVsjP5nXjj9mT9k/XvBXxGVtD8W/Ff9lzw94M8F6Rfrtu9b1mIarbyaRbRty92kuqaeDAmWAk3YwjEenfFnXLXwn8Sfif8ABzVb6Bfi18Qfi78P/EnhjSXk3X2s6bbR6AZ7+3B+d4Lb+x9T82RQRF5DbiN67u76tD6x7K+nNa/f94oWXnFNye+z0S1WEmlG6kn7t79F7kZcz1+FuTS1+y9X0+49A/bR+Gvij9oK5+F9j4ikn8Y2rXEJh/su8Wxmnt445bi1ivjELSa6ijlR5LeOZpo1JZkAViOT+Iv/AClI+Dv/AGSvx3/6d/BtfLHwV8V6dqXx3+F/wigvIJPip4D+PXjTxf4k0ZW/0/S9GnTXpodRmX76208WracscrDbI1wqAkqwHtPhPw58UtA/4KkfDH/hZXjHwD4s834V+Nv7O/4Rnwdd+HvsuNX8Ieb532jU77zt2Y9u3ytmx879w2c6ivZxnfdffondeWtl6FVfdrSprVJv8JSjZ+doqXpJer+vKKKKyGFFFFABRRRQAUUUUAFFFFABXPfFv4k2PwZ+FPibxhqkV3PpvhTSbrWLuK1VWnkht4XmdYwzKpcqhABYDOMkda6GvE/+CllxJaf8E5fj/LE7xSxfDfxE6OhwyMNMuSCD2NduXYCpjsXSwVKXLKpKMU3snJpJv0ua0KlGnUjUxEXKCacktG0t0n0bWwz/AIJl/wDKN39n3/smvhz/ANNdtXt9eIf8Ey/+Ubv7Pv8A2TXw5/6a7avb69Ti7/ke43/r7U/9LZyYf+FH0QUUUV88bBRRRQAUUUUAFFFFABRRRQAUUUUAFFFFABRRRQAUUUUAFFFFABRRRQAUUUUAFFFFABRRRQAUUUUAFFFFABRRRQAUUUUAFFFFABRRRQAUUUUAFFFFABRRRQAUUUUAFFFFABRRRQAUUUUAFFFFABRRRQAUUUUAFFFFABRRRQAUUUUAFFFFABRRRQAUUUUAFFFFABRRRQAUUUUAFFFFABRRRQAUUUUAeA/Dr/lKR8Yv+yV+BP8A07+Mq9+rwH4df8pSPjF/2SvwJ/6d/GVe/VUtxBRRRUjCiiigAooooAKKKKACiiigAooooAK8B+Iv/KUj4O/9kr8d/wDp38G179XgPxF/5SkfB3/slfjv/wBO/g2qjuJnv1FFFSMKKKKACiiigAooooAKKKKACvEP+Cmn/KN39oL/ALJr4j/9NdzXt9eIf8FNP+Ubv7QX/ZNfEf8A6a7mvoeEf+R7gv8Ar9T/APS0Y4j+FL0Yf8Ey/wDlG7+z7/2TXw5/6a7avb68Q/4Jl/8AKN39n3/smvhz/wBNdtXt9HF3/I9xv/X2p/6Www/8KPogooor542CiiigAooooAKKKKACiiigAooooAKKKKACiiigAooooAKKKKACiiigAooooAKKKKACiiigAooooAKKKKACiiigAooooAKKKKACiiigAooooAKKKKACiiigAooooAKKKKACiiigAooooAKKKKACiiigAooooAKKKKACiiigAooooAKKKKACiiigAooooAKKKKACiiigAooooAKKKKACiiigAooooA8B+HX/AClI+MX/AGSvwJ/6d/GVe/V4D8Ov+UpHxi/7JX4E/wDTv4yr36qluIKKKKkYUUUUAFFFFABRRRQAUUUUAFFFFABXgPxF/wCUpHwd/wCyV+O//Tv4Nr36vAfiL/ylI+Dv/ZK/Hf8A6d/BtVHcTPfqKKKkYUUUUAFFFFABRRRQAUUUUAFeIf8ABTT/AJRu/tBf9k18R/8Aprua9vrxD/gpp/yjd/aC/wCya+I//TXc19Dwj/yPcF/1+p/+loxxH8KXow/4Jl/8o3f2ff8Asmvhz/0121e314h/wTL/AOUbv7Pv/ZNfDn/prtq9vo4u/wCR7jf+vtT/ANLYYf8AhR9EFFFFfPGwUUUUAFFFFABRRRQAUUUUAFFFFABRRRQAUUUUAFFFFABRRRQAUUUUAFFFFABRRRQAUUUUAFFFFABRRRQAUUUUAFFFFABRRRQAUUUUAFFFFABRRRQAUUUUAFFFFABRRRQAUUUUAFFFFABRRRQAUUUUAFFFFABRRRQAUUUUAFFFFABRRRQAUUUUAFFFFABRRRQAUUUUAFFFFABRRRQAUUUUAFFFFAHgPw6/5SkfGL/slfgT/wBO/jKvfq8B+HX/AClI+MX/AGSvwJ/6d/GVe/VUtxBRRRUjCiiigAooooAKKKKACiiigAooooAK8B+Iv/KUj4O/9kr8d/8Ap38G179XgPxF/wCUpHwd/wCyV+O//Tv4Nqo7iZ79RRRUjCiiigAooooAKKKKACiiigArxD/gpp/yjd/aC/7Jr4j/APTXc17fXiH/AAU0/wCUbv7QX/ZNfEf/AKa7mvoeEf8Ake4L/r9T/wDS0Y4j+FL0Yf8ABMv/AJRu/s+/9k18Of8Aprtq9vrxD/gmX/yjd/Z9/wCya+HP/TXbV7fRxd/yPcb/ANfan/pbDD/wo+iCiiivnjYKKKKACiiigAooooAKKKKACiiigAooooAKKKKACiiigAooooAKKKKACiiigAooooAKKKKACiiigAooooAKKKKACiiigAooooAKKKKACiiigAooooAKKKKACiiigAooooAKKKKACiiigAooooAKKKKACiiigAooooAKKKKACiiigAooooAKKKKACiiigAooooAKKKKACiiigAooooAKKKKACiiigDwH4df8pSPjF/2SvwJ/6d/GVe/V4D8Ov+UpHxi/7JX4E/8ATv4yr36qluIKKKKkYUUUUAFFFFABRRRQAUUUUAFFFFABXgPxF/5SkfB3/slfjv8A9O/g2vfq8B+Iv/KUj4O/9kr8d/8Ap38G1UdxM9+oooqRhRRRQAUUUUAFFFFABRRRQAV4h/wU0/5Ru/tBf9k18R/+mu5r2+vEP+Cmn/KN39oL/smviP8A9NdzX0PCP/I9wX/X6n/6WjHEfwpejD/gmX/yjd/Z9/7Jr4c/9NdtXt9eIf8ABMv/AJRu/s+/9k18Of8Aprtq9vo4u/5HuN/6+1P/AEthh/4UfRBRRRXzxsFFFFABRRRQAUUUUAFFFFABRRRQAUUUUAFFFFABRRRQAUUUUAFFFFABRRRQAUUUUAFFFFABRRRQAUUUUAFFFFABRRRQAUUUUAFFFFABRRRQAUUUUAFFFFABRRRQAUUUUAFFFFABRRRQAUUUUAFFFFABRRRQAUUUUAFFFFABRRRQAUUUUAFFFFABRRRQAUUUUAFFFFABRRRQAUUUUAFFFFABRRRQB4D8Ov8AlKR8Yv8AslfgT/07+Mq9+rwH4df8pSPjF/2SvwJ/6d/GVe/VUtxBRRRUjCiiigAooooAKKKKACiiigAooooAK8B+Iv8AylI+Dv8A2Svx3/6d/Bte/V4D8Rf+UpHwd/7JX47/APTv4Nqo7iZ79RRRUjCiiigAooooAKKKKACiiigArxD/AIKaf8o3f2gv+ya+I/8A013Ne314h/wU0/5Ru/tBf9k18R/+mu5r6HhH/ke4L/r9T/8AS0Y4j+FL0Yf8Ey/+Ubv7Pv8A2TXw5/6a7avb68Q/4Jl/8o3f2ff+ya+HP/TXbV7fRxd/yPcb/wBfan/pbDD/AMKPogooor542CiiigAooooAKKKKACiiigAooooAKKKKACiiigAooooAKKKKACiiigAooooAKKKKACiiigAooooAKKKKACiiigAooooAKKKKACiiigAooooAKKKKACiiigAooooAKKKKACiiigAooooAKKKKACiiigAooooAKKKKACiiigAooooAKKKKACiiigAooooAKKKKACiiigAooooAKKKKACiiigAooooA8B+HX/KUj4xf9kr8Cf8Ap38ZV79XgPw6/wCUpHxi/wCyV+BP/Tv4yr36qluIKKKKkYUUUUAFFFFABRRRQAUUV5F+0x+0B4r+GHi/wP4U8BeEdA8ZeL/G9xeGO21rxBPodjY2dpB5s9zJcQ2V4/DvbxBRFy1wvzAA0Aeu0V8v/tLf8FAfEn7PepX1nB8ObDxLP4C8I23jj4kNbeJWhi8OabLNLGwsC1oW1CcC1vpVjkW0DR2vLo0ipUnxB/4KJ3HhP413mn6b4Kh1j4a+GvEeieEfE/i0655FxpupaukDWot7LyGFzAhvdPE0rTwlPteVSXy3q405SajHdu348v3N6J7NtWeom7J36K/4J/N2adlrqtNT6crwH4i/8pSPg7/2Svx3/wCnfwbWL4I/4KDXvi79oLS9Fk8Dx2fw28TeKtX8C6D4t/tvzLu+1vTI53njksPICxWrtZX8cU4uHdntRuiRZFatr4i/8pSPg7/2Svx3/wCnfwbQk7KXRr9Pw9HqEtJOD3X6O35pr1TW6Z79RRRUDCiiigAooooAKKKKACiiigArxD/gpp/yjd/aC/7Jr4j/APTXc17fXiH/AAU0/wCUbv7QX/ZNfEf/AKa7mvoeEf8Ake4L/r9T/wDS0Y4j+FL0Yf8ABMv/AJRu/s+/9k18Of8Aprtq9vrxD/gmX/yjd/Z9/wCya+HP/TXbV7fRxd/yPcb/ANfan/pbDD/wo+iCiiivnjYKKKKACiiigAooooAKKKKACiiigAooooAKKKKACiiigAooooAKKKKACiiigAooooAKKKKACiiigAooooAKKKKACiiigAooooAKKKKACiiigAooooAKKKKACiiigAooooAKKKKACiiigAooooAKKKKACiiigAooooAKKKKACiiigAooooAKKKKACiiigAooooAKKKKACiiigAooooAKKKKACiiigDwH4df8pSPjF/2SvwJ/6d/GVe/V4D8Ov+UpHxi/7JX4E/8ATv4yr36qluIKKKKkYV5j8ZP2xvh18CfE6aBrmvT3niqS2W+Xw14f0q88Q+IGtGYoLr+zdPinvPswdSpn8ry1bALAkA+nV8//ALc3jfxN+z74F0bxN4D0HW5Y73xfZXfjNvC3hw6vrN5Ypbup220UE0kzSvBZWjyLGzxW8jsrR+UrpLlZq+zaX3tL9bvd6aJlxjzXtvZv7lf8bWW2vU3fht+3x8Lfid45sfC8Wuat4Z8UawWGlaN4y8N6n4R1HXNqlpPsNvqtvbS3gjVcubdZBGCu/buGfY6+Tf8Agn1cfGfx6niXR/jzBfeIYrbT/D+sGTW9AtLODTtelR7y906x8qGNLmzsWFj5Vw3muJvOBndo8R/WVdFan7N8vX1uv6+9PdOxhCfNqtvT+v0a2eoUUUViaBXzN+3n8DtE+JvjnwfrHiH9miD9oqx0nT9RsYYvt+lyyaLLO9q+Tp2qz29lNHJ9nXM/mtPE0SBI2WR2X6ZopOKe/wDWjXqt+hSk1sfnV8RP2NPjl4C+Fmp+ErTQ5vijrHxc+CmlfCvXvEaazaww+GtStTeQyahd/a5Y57i1aHVZpN0CTTs1ngx/vQR1XxJ/ZL+JMHxV8YfD3R/B9zqngT4l+PvCXjiXxt/adlHa6DBpUemC7tJ7d5lunuHOiQiEwwSRn7cN7x+U2fuuiun6zP2ntvtXu/P31NJ+Skla2tlZt6kSvJavppto+WMbrztFeWm258P/AAs/Zi+JmlfHfwd4K1DwZPZeBPhv8U/EnxLi8atqdk9prdvqKalJbWMNusxu0uVm1mVZTLAkQWxLJI5lUDpPCf7Nnh39nn/gqR8Mf7A1Hx/f/wBr/Cvxt5//AAk3jrW/E/l+Xq/hDb5P9p3dx5GfMbd5WzfhN27YuPryvAfiL/ylI+Dv/ZK/Hf8A6d/BtZqb5VHsvvdrXfnovLyCo3ObqS3f6ycv/SpN/PtY9+ooorMYUUUUAFFFFABRRRQAUUUUAFeIf8FNP+Ubv7QX/ZNfEf8A6a7mvb68Q/4Kaf8AKN39oL/smviP/wBNdzX0PCP/ACPcF/1+p/8ApaMcR/Cl6MP+CZf/ACjd/Z9/7Jr4c/8ATXbV7fXiH/BMv/lG7+z7/wBk18Of+mu2r2+ji7/ke43/AK+1P/S2GH/hR9EFFFFfPGwUUUUAFFFFABRRRQAUUUUAFFFFABRRRQAUUUUAFFFFABRRRQAUUUUAFFFFABRRRQAUUUUAFFFFABRRRQAUUUUAFFFFABRRRQAUUUUAFFFFABRRRQAUUUUAFFFFABRRRQAUUUUAFFFFABRRRQAUUUUAFFFFABRRRQAUUUUAFFFFABRRRQAUUUUAFFFFABRRRQAUUUUAFFFFABRRRQAUUUUAFFFFAHgPw6/5SkfGL/slfgT/ANO/jKvfq8B+HX/KUj4xf9kr8Cf+nfxlXv1VLcQUUUVIwr5+/wCCi+i/ELxD8KPC9n4B0bx54igl8VWR8U6Z4N12z0HWb7RQsrTpDf3F3aG2PmCEloJlmcAxho1kaVPoGvmz9sa6079oTxPovw+8J+JvBF18TvAOv2HjRvAfie/ewh8UWdvyPNURSzG1WSaOWO7igniju7SNSGaN1VWvOKe14t9dE03p1SW66rTS5Suoyt/LLy1aaVn0d2rPo7M4H9kPxb8X/hB8bfE2i3PwL/aHi+FWuS6Wugv4r8c6B4mvNBuD5qahc3F1ca/cXv2Y5t2WFHuSvlSsiqZPKr7Rr5P+BF3/AMM3ftKeLta+KutfDH4f+LfjldafHofw88La9Pq7anc2qtFcaonmW1rPdXMqzQLcPHZhYYLKFpJGVWZPrCtqjbSb+/7tL+X397bLGKSk0v8AL528/wAd1fdlFFFZGgUUUUAFFFFABXgPxF/5SkfB3/slfjv/ANO/g2vfq8B+Iv8AylI+Dv8A2Svx3/6d/BtVHcTPfqKKKkYUUUUAFFFFABRRRQAUUUUAFeIf8FNP+Ubv7QX/AGTXxH/6a7mvb68Q/wCCmn/KN39oL/smviP/ANNdzX0PCP8AyPcF/wBfqf8A6WjHEfwpejD/AIJl/wDKN39n3/smvhz/ANNdtXt9eIf8Ey/+Ubv7Pv8A2TXw5/6a7avb6OLv+R7jf+vtT/0thh/4UfRBRRRXzxsFFFFABRRRQAUUUUAFFFFABRRRQAUUUUAFFFFABRRRQAUUUUAFFFFABRRRQAUUUUAFFFFABRRRQAUUUUAFFFFABRRRQAUUUUAFFFFABRRRQAUUUUAFFFFABRRRQAUUUUAFFFFABRRRQAUUUUAFFFFABRRRQAUUUUAFFFFABRRRQAUUUUAFFFFABRRRQAUUUUAFFFFABRRRQAUUUUAFFFFABRRRQB4D8Ov+UpHxi/7JX4E/9O/jKvfq8B+HX/KUj4xf9kr8Cf8Ap38ZV79VS3EFFFFSMK4X4k/DX4Z/tVaFqnhTxfoHgX4kab4f1KOLUtG1ixtdYg02+EEc8azQSq6xz+RcxSKGUN5dwjD5XBPdV+M//BRD4jfEbwJ8YvH+q+E9S8f+HfiXp/x+1+58Kad4G8NN4th1K8i+D1qumPL5mlT7biXNtG1vhVWK+1FgZlsxe29RgpaMXM1qj9W/gf8AssfDD9mSHUY/ht8OPAfw+j1do2v18NeH7TSRemPcEMogjTeV3NjdnG446mu9r81f2X/FmqeM/wBrXwPeeJNS+J2q+Hofjn8RLCyn1i4eeyTxNbSeLrexhsGuiZRpcXh6K9iuFg/0ZLqPSVtgJV1gD9Kqc731dxRtbQKKKKgoKKKKACiiigArwH4i/wDKUj4O/wDZK/Hf/p38G179XgPxF/5SkfB3/slfjv8A9O/g2qjuJnv1FFFSMKKKKACiiigAooooAKKKKACvEP8Agpp/yjd/aC/7Jr4j/wDTXc17fXiH/BTT/lG7+0F/2TXxH/6a7mvoeEf+R7gv+v1P/wBLRjiP4UvRh/wTL/5Ru/s+/wDZNfDn/prtq9vr56/4JMeONL+IX/BMX4B3+j3X2u0g8CaRpkknlvHtuLS1jtbhMMAfknhlTOMHblSVIJ+haXFjTzzGNbe1qf8ApbNIUp0oqlVTjKOjT0aa3TXRoKKKK+fKCiiigAooooAKKKKACiiigAooooAKKKKACiiigAooooAKKKKACiiigAooooAKKKKACiiigAooooAKKKKACiiigAooooAKKKKACiiigAooooAKKKKACiiigAooooAKKKKACiiigAooooAKKKKACiiigAooooAKKKKACiiigAooooAKKKKACiiigAooooAKKKKACiiigAooooAKKKKACiiigAooooA8B+HX/KUj4xf9kr8Cf+nfxlXv1eA/Dr/lKR8Yv+yV+BP/AE7+Mq9+qpbiCiiipGFfGf7RHwX+Hfw0/aF8ZeLNV/aV8X/CK7vrq2+ImqxNbeFn0bwvcGwtfDUF+b3VdHuTp8l1BD9miElyhuCt8sKsqXAT7Mr8hv2/fDd18eP27NL0L4X/ABZ8A+KvE2hardatPpngbxR4QtfiBf6hD4o8H3lzpF5YX4EM9xp9h4euJra5bY5TSba2uwRbu+o6U1dkyPr34H+NPDfiX46fDeDSv2otA/aDh1X7Xr+nafq2i6Fr+qWkUVvf2I1TTLzQoLNNNtxJ9stJ7y7huYpHIs45LeWYrN9eV+U3/BL3Tl8bfGr4ReKfCv7QP/CwvFlj4q+IE3i3wQ3i3wPq82geE9av9T1H7bOmjRlzcT6nB4aklaC4ljiluJI0WOFmRf1ZpTVmEQoooqCgooooAKKKKACvAfiL/wApSPg7/wBkr8d/+nfwbXv1eA/EX/lKR8Hf+yV+O/8A07+DaqO4me/UUUVIwooooAKKKKACiiigAooooAK8Q/4Kaf8AKN39oL/smviP/wBNdzXt9eIf8FNP+Ubv7QX/AGTXxH/6a7mvoeEf+R7gv+v1P/0tGOI/hS9GVP8Agm1oNj4T/ZmvdI0uytNN0rR/H/jjT7CytIVht7K2h8WavHDBFGoCpGkaqiooAVVAAAAr3qvEP+CfX/JB9e/7KV4+/wDUw1mvb6XFumeY1L/n7U/9LZVKcpU4yk7toKKKK+fNAooooAKKKKACiiigAooooAKKKKACiiigAooooAKKKKACiiigAooooAKKKKACiiigAooooAKKKKACiiigAooooAKKKKACiiigAooooAKKKKACiiigAooooAKKKKACiiigAooooAKKKKACiiigAooooAKKKKACiiigAooooAKKKKACiiigAooooAKKKKACiiigAooooAKKKKACiiigAooooAKKKKAPAfh1/wApSPjF/wBkr8Cf+nfxlXv1eA/Dr/lKR8Yv+yV+BP8A07+Mq9+qpbiCiiipGFeA+LP+Cfmj6t4F8M6RoXjrx/4Kv/CHj/XPiNpet6QdMmvoNQ1eTWHu4it5ZXFu1vt1y9RFaEuqiL5yylm9+op3EeQ/An9i3wt8D/gr8IfBUl/r/i+H4G7P+ET1TW54UvrTy7C60yHzPskVvDL5dheTW43RHK7XbdKPNr16iii9wCiiikMKKKKACiiigArwH4i/8pSPg7/2Svx3/wCnfwbXv1eA/EX/AJSkfB3/ALJX47/9O/g2qjuJnv1FFFSMKKKKACiiigAooooAKKKKACvEP+Cmn/KN39oL/smviP8A9NdzXt9eIf8ABTT/AJRu/tBf9k18R/8Aprua+h4R/wCR7gv+v1P/ANLRjiP4UvRh/wAE+v8Akg+vf9lK8ff+phrNe314h/wT6/5IPr3/AGUrx9/6mGs17fRxd/yPcb/19qf+lsMP/Cj6IKKKK+eNgooooAKKKKACiiigAooooAKKKKACiiigAooooAKKKKACiiigAooooAKKKKACiiigAooooAKKKKACiiigAooooAKKKKACiiigAooooAKKKKACiiigAooooAKKKKACiiigAooooAKKKKACiiigAooooAKKKKACiiigAooooAKKKKACiiigAooooAKKKKACiiigAooooAKKKKACiiigAooooAKKKKAPAfh1/wApSPjF/wBkr8Cf+nfxlXv1eA/Dr/lKR8Yv+yV+BP8A07+Mq9+qpbiCiiipGFFFFABRRRQAUUUUAFFFFABRRRQAV4D8Rf8AlKR8Hf8Aslfjv/07+Da9+rwH4i/8pSPg7/2Svx3/AOnfwbVR3Ez36iiipGFFFFABRRRQAUUUUAFFFFABXiH/AAU0/wCUbv7QX/ZNfEf/AKa7mvb68Q/4Kaf8o3f2gv8AsmviP/013NfQ8I/8j3Bf9fqf/paMcR/Cl6MP+CfX/JB9e/7KV4+/9TDWa9vrxD/gn1/yQfXv+ylePv8A1MNZr2+ji7/ke43/AK+1P/S2GH/hR9EFFFFfPGwUUUUAFFFFABRRRQAUUUUAFFFFABRRRQAUUUUAFFFFABRRRQAUUUUAFFFFABRRRQAUUUUAFFFFABRRRQAUUUUAFFFFABRRRQAUUUUAFFFFABRRRQAUUUUAFFFFABRRRQAUUUUAFFFFABRRRQAUUUUAFFFFABRRRQAUUUUAFFFFABRRRQAUUUUAFFFFABRRRQAUUUUAFFFFABRRRQAUUUUAFFFFAHgPw6/5SkfGL/slfgT/ANO/jKvfq8B+HX/KUj4xf9kr8Cf+nfxlXv1VLcQUUUVIwooooAKKKKACiiigAooooAKKKKACvAfiL/ylI+Dv/ZK/Hf8A6d/Bte/V4D8Rf+UpHwd/7JX47/8ATv4Nqo7iZ79RRRUjCiiigAooooAKKKKACiiigArxD/gpp/yjd/aC/wCya+I//TXc17fXiH/BTT/lG7+0F/2TXxH/AOmu5r6HhH/ke4L/AK/U/wD0tGOI/hS9GH/BPr/kg+vf9lK8ff8AqYazXt9eIf8ABPr/AJIPr3/ZSvH3/qYazXt9HF3/ACPcb/19qf8ApbDD/wAKPogooor542CiiigAooooAKKKKACiiigAooooAKKKKACiiigAooooAKKKKACiiigAooooAKKKKACiiigAooooAKKKKACiiigAooooAKKKKACiiigAooooAKKKKACiiigAooooAKKKKACiiigAooooAKKKKACiiigAooooAKKKKACiiigAooooAKKKKACiiigAooooAKKKKACiiigAooooAKKKKACiiigAooooA8B+HX/KUj4xf9kr8Cf+nfxlXv1eA/Dr/lKR8Yv+yV+BP/Tv4yr36qluIKKKKkYUUUUAFFFFABRRRQAUUUUAFFFFABXgPxF/5SkfB3/slfjv/wBO/g2vfq8B+Iv/AClI+Dv/AGSvx3/6d/BtVHcTPfqKKKkYUUUUAFFFFABRRRQAUUUUAFeIf8FNP+Ubv7QX/ZNfEf8A6a7mvb6+b/8AgrJ8NrH41fsSar4I1SW7g0rxz4o8J+Gb+W0ZVuIba+8S6XaTPEzKyiQRzMVLKwDAZVhkH3+E21nmDcVd+1p/+loOWnL3a0uWL3dr2XV20vZdLq50P/BPr/kg+vf9lK8ff+phrNe314h/wT6/5IPr3/ZSvH3/AKmGs17fVcXf8j3G/wDX2p/6WzHD/wAKPogooor542CiiigAooooAKKKKACvENA/aO/42ReK/hFfaz/zTXRfF+iaT9k/6imrWmo3HnBP+wWmx390X/Wmvb6+If8AnZE/7tr/APdor7LhDLKGOhj4V18GHnNPS6lCUJK107XtZ215W1dXObETcXBrukfb1FFFfGnSFFFFABRRRQAUUUUAFFFFABRRRQAUUUUAFFFFABRRRQAUUUUAFFFFABRRRQAUUUUAFFFFABRRRQAUUUUAFFFFABRRRQAUUUUAFFFFABRRRQAUUUUAFFFFABRRRQAUUUUAFFFFABRRRQAUUUUAFFFFABRRRQAUUUUAFFFFABRRRQAUUUUAFFFFABRRRQAUUUUAeA/Dr/lKR8Yv+yV+BP8A07+Mq9+rwH4df8pSPjF/2SvwJ/6d/GVe/VUtxBRRRUjCiiigAooooAKKKKACiiigAooooAK8B+Iv/KUj4O/9kr8d/wDp38G179XgPxF/5SkfB3/slfjv/wBO/g2qjuJnv1FFFSMKKKKACiiigAooooAKKKKACvEP+Cgv/JB9B/7KV4B/9TDRq9vrxD/goL/yQfQf+yleAf8A1MNGr6HhH/ke4L/r9T/9LRjiP4UvRh/wT6/5IPr3/ZSvH3/qYazXt9eIf8E+v+SD69/2Urx9/wCphrNe30cXf8j3G/8AX2p/6Www/wDCj6IKKKK+eNgooooAKKKKACiiigAr4h/52RP+7a//AHaK+3q+If8AnZE/7tr/APdor9C8Pv8AmZf9glb/ANtOPGfY/wASPt6iiivz07AooooAKKKKACiiigAooooAKKKKACiiigAooooAKKKKACiiigAooooAKKKKACiiigAooooAKKKKACiiigAooooAKKKKACiiigAooooAKKKKACiiigAooooAKKKKACiiigAooooAKKKKACiiigAooooAKKKKACiiigAooooAKKKKACiiigAooooAKKKKACiiigDwH4df8pSPjF/2SvwJ/wCnfxlXv1eA/Dr/AJSkfGL/ALJX4E/9O/jKvfqqW4goooqRhRRRQAUUUUAFFFFABRRRQAUUUUAFeA/EX/lKR8Hf+yV+O/8A07+Da9+rwH4i/wDKUj4O/wDZK/Hf/p38G1UdxM9+oooqRhRRRQAUUUUAFFFFABRRRQAV4h/wUF/5IPoP/ZSvAP8A6mGjV7fXiH/BQX/kg+g/9lK8A/8AqYaNX0PCP/I9wX/X6n/6WjHEfwpejD/gn1/yQfXv+ylePv8A1MNZr2+vEP8Agn1/yQfXv+ylePv/AFMNZr2+ji7/AJHuN/6+1P8A0thh/wCFH0QUUUV88bBRRRQAUUUUAFFFFABXxD/zsif921/+7RX29XxD/wA7In/dtf8A7tFfoXh9/wAzL/sErf8Atpx4z7H+JH29RRRX56dgUUUUAFFFFABRRRQAUUUUAFFFFABRRRQAUUUUAFFcPr/xl/sP9pHwp8Pv7O83/hJ/DWteIvt/2jb9m/s660m38ny9p3eZ/am7duG3yMbW35XuK6a2Fq0YU6lRWVRc0fNc0o38vei1r2vtYlSTbS6BRRRXMUFFFFABXxf/AMHCfiO58Jf8Egvi3qNoUFxbNorLvXcrA63p4II9CCR688EGvtCviH/g45/5Qy/GT/uCf+nzT6+18NcuwuYcXZVl+OpqpRq4mhCcJK8ZQlVjGUZLqmm011Qvr+JwP+3YObhVpe/CUXZxlHWMk+jTSafc+3qKKK+KGFFFFABRRRQAUUUUAFFFFABRRRQAUUUUAFFFFABRRRQAUUUUAFFFFABRRRQAUUUUAFFFFABRRRQAUUUUAFFFFABRRRQAUUUUAFFFFABRRRQAUUUUAFFFFABRRRQAUUUUAeA/Dr/lKR8Yv+yV+BP/AE7+Mq9+rwH4df8AKUj4xf8AZK/An/p38ZV79VS3EFFFFSMKKKKACiiigAooooAKKKKACiiigArwH4i/8pSPg7/2Svx3/wCnfwbXv1eA/EX/AJSkfB3/ALJX47/9O/g2qjuJnv1FFFSMKKKKACiiigAooooAKKKKACvEP+Cgv/JB9B/7KV4B/wDUw0avb68Q/wCCgv8AyQfQf+yleAf/AFMNGr6HhH/ke4L/AK/U/wD0tGOI/hS9GH/BPr/kg+vf9lK8ff8AqYazXt9eIf8ABPr/AJIPr3/ZSvH3/qYazXt9HF3/ACPcb/19qf8ApbDD/wAKPogooor542CiiigAooooAKKKKACvgvx/q+qeCf8Ag4x8Iaqmj/bNB8S/B+38EXF/9rSP+zry4vdc1e3/AHeC8nmRaDeLwAq4yzg7Ef70r4h+OP8Ayma+Hv8A3K//AKY/ijX6D4fq6zL/ALBK3/tpz15qLg5RUtet+qavo1qt10utU1dP7eooor8+OgKKKKACiiigAooooAKK8s8XfEfWdL/ba+H3hGC82eHtc8EeJ9YvbTyUPn3Vnf8Ah6K2k3ld67EvrobVYK3m5YEqpX1Ou3E4KpQp0as2rVYuS9FOUNfO8H30t6Exkm2l0/4cKKKK4igooooAKKKKAPEPHv8Ayki+FH/ZNfGn/p08J17fXiHj3/lJF8KP+ya+NP8A06eE69vr6HOv9zwH/Xp/+n6xjT+Kfr+iCiiivnjYKKKKACviH/g45/5Qy/GT/uCf+nzT6+3q+If+Djn/AJQy/GT/ALgn/p80+v0Lwj/5LrJf+wvDf+noHHmH+61f8MvyZ9vUV55+yP8AF++/aD/ZR+GPj3VLa0s9S8b+E9K1+7t7UMIIJruzindI9xLbA0hAyScAZJr0OvhcVhauGrzw1dWnBuMlo7NOzV1daPs7HZ7v2Xdd+/nrZ/egooornAKKKKACiiigAooooAKKKKACiiigAooooAKKKKACiiigAooooAKKKKACiiigAooooAKKKKACiiigAooooAKKKKACiiigAooooAKKKKACiiigAooooAKKKKACiiigDwH4df8AKUj4xf8AZK/An/p38ZV79XgPw6/5SkfGL/slfgT/ANO/jKvfqqW4goooqRhRRRQAUUUUAFFFFABRRRQAUUUUAFeA/EX/AJSkfB3/ALJX47/9O/g2vfq8B+Iv/KUj4O/9kr8d/wDp38G1UdxM9+oooqRhRRRQAUUUUAFFFFABRRRQAV4h/wAFBf8Akg+g/wDZSvAP/qYaNXt9fMn/AAUV+GH/AAt34k/ss6V9u/s/7J8Z7PWvN8nzd/8AZ+ha3f8AlY3LjzPs3l7s/Lv3YbG0+/ww3DM6eJirujzVbfzexi6vLfpzcnLfW172drFQp0qk40q8+SEmouVr8qbScrLV2TvZb2sdZ/wT6/5IPr3/AGUrx9/6mGs17fXz1/wTi8V/2n8PfiZ4fn03VtL1PwZ8WfGVjexX9v5Bl+163datbTRgncYpLPUrWRGYLuD7lBQq7fQtPixqWd4yS2dWo15pzbT9GtU+q1M4UpU6cYzWtov70mvwYUUUV8+UFFFFABRRRQAUUUUAFfEPjn/is/8AgqL4e8Tf8e39g/ErS/h59m+/5/2LwD4p1v7Zv427/wDhJfJ8rB2/Yt+8+bsj+3q+If8Am/D/ALuU/wDePV+heH3/ADMv+wSt/wC2nHjPsf4kfb1FFFfnp2BRRRQAUUUUAFFFFAHgXxT8T6boP/BTH4K2t9qFjZXWtfD7xtZadDPOscl/Ot94YnMUSkgyOIYZpCq5OyKRsYUke+18Q/t2f8pmv2Dv+6gf+mOCvt6vtOKcDHD5Zk9VO/tcNKT8rYvFQt90E/mctCV51F2l/wC2xYUUUV8WdQUUUUAFFFFAHzN8f/i7pvw2/wCCp/7N2jX0F9LdfEDwj450DTmgRWjhnjbQdRLSksCqeTp8ygqGO9oxjBLL9M18EftO6Hq3i/8A4Lt/s+6lca440P4eacttYaOLSPabnXdH8YtdXJmGJMhPDtmgQ7l5JGw7t/3vX3PGWCpYTB5TSj8bwqlPtedevONv+4coJ/3r77nNQd3N36/dZJa/df0a66BRRRXwx0hRRRQAV8w/8Fh/hRH8ef2DdY8DS3SWMXjPxX4Q0J7l7f7Qtut14o0qAuY9y7wu/O3cM4xkZzX09XiH/BQX/kg+g/8AZSvAP/qYaNX0XCDaz3BNO376nto/jj1WwnXnR/fU/ijqtE9Vrs7p+jVu4f8ABMv/AJRu/s+/9k18Of8Aprtq9vrxD/gmX/yjd/Z9/wCya+HP/TXbV7fS4u/5HuN/6+1P/S2ZYf8AhR9EFFFFfPGwUUUUAFFVNa1+x8N2aXGo3tpYQSTw2qS3MyxI000qwwxgsQC8kroir1ZnVRkkCrdF+hXLLl5raf1/mgooooJCiiigAooooAKKKKACiiigAooooAKKKKACiiigAooooAKKKKACiiigAooooAKKKKACiiigAooooAKKKKACiiigAooooAKKKKACiiigAooooA8B+HX/AClI+MX/AGSvwJ/6d/GVe/V4D8Ov+UpHxi/7JX4E/wDTv4yr36qluIKKKKkYUUUUAFFFFABRRRQAUUUUAFFFFABXgPxF/wCUpHwd/wCyV+O//Tv4Nr36vAfiL/ylI+Dv/ZK/Hf8A6d/BtVHcTPfqKKKkYUUUUAFFFFABRRRQAUUUUAFfN/7YPxJsdL/bO/ZM8HyRXZ1LXfGmuaxBKqr5CQ2fhXWIZVY7twctfwlQFIIV8kYAb6Qr5v8Aj18NrH4if8FOP2dby9lu4pfA/hfxr4msBAyqs1z/AMSTTNkuVOY/J1S4bC7TvSI7sBlb3eHOb63Pk39lX+72NS/4GtH6vzf7Vfls7W/ms+T5c/LfyOh/ZR/5Lx+01/2Uqz/9Q/w1Xt9eIfso/wDJeP2mv+ylWf8A6h/hqvb604n/AN8h/wBecP8A+mKZyUPh+b/NhRRRXzxsFFFFABRRRQAUUUUAFfEP/N+H/dyn/vHq+3q+If8Am/D/ALuU/wDePV+heH3/ADMv+wSt/wC2nHjPsf4kfb1FFFfnp2BRRRQAUUUUAFFFFAHwt+1xNfeNf+C2/wCyxHDb2kOm/DSDVGvJ3uW8+8m8QaLr/kJHEE2hIl8M3JdzJkm5iAU4Yj7pr89f24/FeufD7/gqb4A8QaLpv2+Ow134bWOpyyW8ksFhaak/xA0l5pChHl/NqEccbMdvnSwqQxYI36FV9/x3LloZVhYfDTwkLetSpVrSV+/NVbtuouPkRRoS9lLFaJSnKNk9bwjBN231utdm722sFFFFfAFhRRRQAUUUUAfnr+2x8T/+FRf8Fa/hhqv2H+0Pteu/D/RfK87ytn9oW3xHsPNztbPl/afM24+bZtyudw/QqviH9sj/AJOq8cf90N/9WJqdfb1foHHCdWjgcTfSNGnSt/hpU6vNfz9vy26cl7+9ZZ4epS9k6Sh7/NKTlfdOyUbbLlcZO/Xms/hQUUUV+fmgUUUUAFfN/wDwUj1HxFfaN8FPCnhqwtNRufGfxg8Lw3sczBHisdNum165ljYuqh0i0h3w27cquiqXZK+kK8Q/au/5Lx+zL/2Uq8/9Q/xLXv8ADCtmUK63pKdVecqUJVYp/wB1yglK1m4t2aeqPaqmm3FSunHX+8uW/TVXvHpdK6a0Mn/glHq+qXn/AATw+Fela7o/9g694I0k+CNVsPtaXX2e80SeXSLj94g2NmWydvkLKN2FdwA7fQteIf8ABPr/AJIPr3/ZSvH3/qYazXt9PixWzzGJ/wDP2p/6WyYTU4qcYqKfRXsvJXbdl5tvu2FFFFfPlBRRRQB8gf8ABXf4g6h4EX9mKC0vr61s/EXx/wDCmk6lDbyFVvoWN1KkUoyAyC4igkwf4oVOMqK+v6/Nz/g5y+IGofCb9kz4L+KtJvU03VfDXxm0PVbK8dEdbWeCz1KWOQq4KEKyA4YFTjkEV+kdfX53lOHo5JluYU4WnVVVSdtJclR29ZJSs3vy8q2SOt18TPBxpVJp04znyr7SbjT5vSL05fNSCiiivkDkCiiigAooooAKKKKACiiigAooooAKKKKACiiigAooooA8Z/Zt+LUfjP8AaE/aF8MTayl3qHgzxlp8cemvf+dNp1lceG9HniYQk5hhknN4V4CvIk5GW349mr4h/YT/AOUzX7eP/dP/AP0xz19vV9VxjkmHyrH08LhvhlQwtTr8VbDUq097/bqSt2WistCY4ypiV7Sruvd2S0h7i2t0S13e7u7sKKKK+VKCiiigAooooAKKKKACiiigAooooAKKKKACiiigAooooAKKKKACiiigDwH4df8AKUj4xf8AZK/An/p38ZV79XgPw6/5SkfGL/slfgT/ANO/jKvfqqW4goooqRhRRRQAUUUUAFFFFABRRRQAUUUUAFeA/EX/AJSkfB3/ALJX47/9O/g2vfq8B+Iv/KUj4O/9kr8d/wDp38G1UdxM9+oqpqOv2Oj3lhb3d7aWs+qzm1sopplR7yYRSTGOME5dxFFK+1cnbG7dFJFupuW4ySTa32/L8wooooJCiiigAooooAKKKKACvmS58V654n/4LKWehtpufDXgf4MXF9HqEVvJ8t3rGuQo8M0uSgzHoaNEuFY7bk5cAbPpuvjL/gn74t1T4n/8FEv2tfFl3FrkWi395oejeHV1K7SXFnpMur6Tc+RGksgggOq2WquqEIzeYZGQGTn38oSp4PGYlvlagoQenxTnG8dWvioqstE3a+nVdmCoubqVeVSVOLk077O1NNW6xnOMley0+T7L9lDxXrlj/wAFDf2rvB9/pv2bRRf+FvGOlXclvJHJe/btFTTptrMdskSPogCsg4czKSSuB9N183+HviTY6B/wV48X+D5orttS8WfB/Q9Ys5UVTBHDpmtaxDOshLBg7Nq1sUAUghJclcKH+kKniD361KtF3jKlSs+/LTjTkv8At2cJQ9YsyxMZRqcsqfI7R09YpqX/AG+mp/8AbwUUUV4RgFFFFABRRRQAUUUUAFfm/wDsy+ONU+IX7VOpX+r3X2u7g/bA8SaZHJ5aR7be0+Hd/a26YUAfJBDEmcZO3LEsST+kFfk9+zve6p4i8O+I/ib4K1zSTpmj/tuz6hc3MUiXK3+l6j5XhphbMFeOTzRqcb7sqBE7sjF0Td9xwPUdKpjJS2q0KlCK/mrVEpU4Jd5KnOzfupqzacop+vhsFHFZfUgrKUalGTk9oU/fhJuVnZc06d0rt7qLUW1+sNFFFfDnkBRRRQAUUUUAFFFFAHxD+2R/ydV44/7ob/6sTU6+3q+If2yP+TqvHH/dDf8A1Ymp19vV+h8Yf8i7B/L/ANRcGceH+OX9fakFFFFfnh2BRRRQAUUUUAfEP7ZH/J1Xjj/uhv8A6sTU6+3q/PX9pv4n/wBr/tHftAa1rFj/AMI74a+Hni34K+FpNavJtljd/Z/E1vrNxOZmVUj8qPWoldNzbFRJGYCUKv6FV+gcXTUsuwlvL/1FwaM1hatGb9ot0muq1vJarS9pK63V7OzCiiivz80CiiigArxD9q7/AJLx+zL/ANlKvP8A1D/Ete318h/tp69fD/gqT+xbo0N7drYz3/jLVLqyWZlgmMGgPCkzJnazobxlUkFgJ3xwWr3eHanJipt/8+q6++jURvhsFLFzdKLtZSl/4BFza+ajY9N/4J9f8kH17/spXj7/ANTDWa9vrxD/AIJ9f8kH17/spXj7/wBTDWa9vrTi7/ke43/r7U/9LZxYf+FH0QUUUV88bBRRRQB+fv8AwcNfC7Tf2hP2WdP8HXDXEl14fsvEvxLnhhKo0Vlo3hvUoxcFpFKFV1LUdIiaNf3pW6LIAI5JI/0Cr5s/ag+F2m/HH9sXwl4K1lrhdI8YfB3x/ol80BUSiC5vfC0MhTerLu2ucblYZ6gjiuy/4J5eJ9S8a/sA/A3WdZ1C+1bV9W+H2gXt9fXs7T3N7PJp1u8kssjks7uzFmZiSSSScmv0LO5SrcLZfFbUeb5+2qVdl0t7B373XYyhKzcebq9LbWUNb9b326cvmew0UUV+emoUUUUAFFFFABRRRQAUUUUAFc98TfiTY/Cnw3bapqMV3NBdatpujotsqs4mv76CxhYhmUbBLcIWOchQxAYgKehr5N/4Le/F++/Z8/4Js+L/AB7pdtaXmpeCNe8La/aW90GME81p4k0udEk2kNsLRgHBBwTgivXyDJa+cZphsowztUxFSFOOz96clFbuK3fVpea3Lp1qNKaq4hXhF3krtXS3V0m1p1SbXZ7H1lRXkn7C/wC1PH+2t+yt4U+J0WjpoEXihbp0sUvvtqwrDdzW4Im2JvDeVu+6Mbsc4yfW68aElKKkuvdNP7nqvRnVmWX4jAYurgMUrVKUpQkrp2lFtNXi3F2a3Tae6bQUUUVRxBRRRQB+Lnwz+PN/pP8Awd2+LdM8MaxYz6B45iOiazJbeVcpdpY+GFeS2EnzbGiv7FVk2EOslq0bEYkQ/tHX5I+H/gfY+D/+Cnn7OfxwkuLtLa18afFTwzrzPIrQWcMvjLV9N0t44lXzGeXU/EUMDkFgolicqiRzSD9bq/ZvGetllfF5dLLUr0sNDD1ZJWbrYaU6Hv8A9/2MKLf9yUOjRjh/rSpR9vfld3C+vuuTbt5e09p87rXcKKKK/GTYKKKKAPCP+CnP7VTfsT/sEfE/4lw/bv7Q8P6OYtMe0hilkhv7qRLSzkKy/IUS5nhZ9wb5FbCOcI3q3wy+JNj8VvDdzqmnRXcMFrq2paO63Kqrmawvp7GZgFZhsMtu5U5yVKkhSSo+UP8AguzpcfxO/Yz8PfCWQvbD46/ETwz4E/tBDufSVm1GO6e6WL/lsUSzb5NycMWLAKQZv+CE37YI/bU/YPXxRc2L6d4it/FWtL4ggW2MFqt/eXbas/2YNI7m38vUYtpdt3UHONx+uqZFCpwzSzfDU25wrVIVnrZQlCi8PpslzLEJzSs5csW27Jev9W5cvdSta7lFw2u0/aRqXdrvWNO0G7xXNJRUZOT+yqKKK+RPICiiigArntS+JNjpfxW0XwfJFdnUtd0m/wBYglVV8hIbOayhlVju3By1/CVAUghXyRgBuhr84P8AgpZ+23rPwE/4K8/ATSdMtruTTvCHw98ZeK9Zt4NQ8hNehfSb2eGymxG2xBNogkVjuBbB2Zh59HLMpr5jVnRw8oxcKdWq3K9uWjTlVmrpP3pRg4wVrObjFtXuetkuBWLxHsnCU7ppKPLfnl7lP4pR0VSUOfW6hzSs0mfo/RWT4C8caX8TvA2jeJNDuvtui+IbCDU9PufLeP7RbzRrJE+1wGXKMpwwBGeQDWtXmpqSutjzatKdKbpVU4yi7NPRprdNdGgooopmYUUUUAFFFFABRRRQB4D8Ov8AlKR8Yv8AslfgT/07+Mq9+rwH4df8pSPjF/2SvwJ/6d/GVe/VUtxBRRRUjCiiigAooooAKKKKACiiigAooooAK/Pn/gs/+3VJ/wAE7Pj18GPiDY2Hh7UNWvvDni7w5DHq9y8MaR3D6LNvXa67ttxa2rMOrIroGjLiRZ/hN8RfFc/xt+HPxSn8Y+L7q7+Ivxl8V/DrUtBn1m4fQItHsxrMVmkFgW+zRTRPo1vJ9oSMTSGa4DuyuFDf+CrP7IH/AA25/wAFBf2b/BdxD/xKf+EJ+Il3f3m//kE/u9ChtbvYJI2l8u9mtD5at83Rhs3kZYmH7i7UntpCShK+jtzOM0t1zPlatdeZ9rwBiMswnEdF53CEsPH2nOppyi48tSDfKpQbkpRbppSjJyUWrN2PhE/8FnfGd14t8LeJ7W/16+XTPidq3jx9Jvr6O+tl0y6t4Le2022u5Ud40S3l1OH5IkRRdJIqlwNn058Zf+C9c3wv8W6jpGkaraeK30jVtaeG6stOintLtRc+IoLG2mlDxrJbhf8AhHJlktvmaNbndKznYeG/4KWf8ERPAngP/hQH9ht4S0b+2b/w78KtQ+w+Dre3+3Xcv2nzdbl2SDzJX2rujbLNgZmOK+ZPCv8AwRh1Xx/r3jvw94E1W+1vxB4S1/xJo9lpNvM2mxaodJv9GgkkVnu1igEiavJNs5C/ZdoLmQFPma1DBYSpVp08Zib3Vl9XpPS3li1d/CtI667bP+08DS4E4mwGEzGvg8NTpqNRO9WrH7cvinLCWUItzd3NcqtzSfLdfTo/4LOap49/4J82EviTxjq1v8VdF13VNJv20m4SxvtVt73QtYjsL4RwrBGIoLya1DiMuY2tIpT88kQPoV3/AMHAuh6To/i/7VqWranfzfEkf8I//YuiRrDB4TtrnTt3mfamQ+bd2y3+M7pFlkbP2dfK2/K/7W//AAQl1v8AYx+FXxG8a3XjPxLqegeHLaKPTLyI20cV3M93o0UckkU8lzKFcX2qR7F2YbTo3LbZVU/OHwZ/YZ8c/tDfAX4leMvCWu6peS/DJbW61O1eOwRYrCW3v5prwtIE3CH7Eg8pAzv53GNnOdTCVKeIjh6eZ04c0V/Fp4hTSSabkqVOtHSz1hOd7cy952Xdl/CvhxnWWVM8p4GU8NCs1elPDqkpVJ05Rpx9rKjOMXKcIqM6dLlUvZtciu/1t8Q/8HEXw00yXw3dWdjd6hBN4bi1HXtPht5vPtNTlu7GNrC2nkVEle3t31GV2eNIpTDAqTKXYDW+GP8AwXA8AaF8YNT8JeLfE9prME/iSTSNM1LT7ZFgtlm13WIknuLpmjtTYwafHpDeahZiLhmJlIk8v81/A/8AwRz+N/8AwsPUNB8fT6R4D/s//hH/ADJ/sUGqf8hjW4tKtvlh1D/r8l6n/jz2ts81GrJ+Mn/BKv4t+E/2ufEvwn8DahpHj+78P3+n6Yt9/Zselfabi70qXU0Ty5r4hf3Ftd87yP3HJDOinXkx8bVp5hQ1dkuTFavX7P1e9/dfSyt5nz68N/CjEKrluGp1bxg6kqntsK1GCdNp+2dX2aivbQuubmlGcbt8qt+pP7Mf/Bdr4PeIvA2laX448SatY6/oXhPT77xBr93pixWOo6g0dpHcw20UJM8kouJ3ysduECwzOp8tAx8S1D/gvjpeo/Er4Nsl5q0mgR+LNZ1LxhJcW72Ullpdxd31rplu4t96z/ZrK4juZY1jkDvb222UyCQj84f2e/2M/iP+0h8Lvip4r0K80h7D4VaEmtX3/EvA87MozF892hGLaO9n3Kr5+ybMbpUrof2o/wBgz4q/Ar9pbwl8NLmz8O23ibxfpOhtptjbWpCXN1dQxW8iF21CVVf7ctxGzmRY2ZGdFjiZFXmnLEzw8KizKhy6a8mK197T/mH7xt31fc+hwvhN4dYbOcTgJ4Ss6zU3KnKrhF7NKj79l7VOPuYiNXT3VywaS5Hf9atN/wCC5vgPxz8WLK38LXH9p+Gl0L+3tStJNIuI9Yt0ttJ12/1GBWd1tzLE1lpSLhmRjczbXcfPF6F8U/8Agrv8JtA8L/FXS9H8WaTp/wASvh5Ya4sOieIYZLSO6v8AT3mhjiWQlYp/OlRCkUU3muj/AHVYME/GbXv+CbPx9+D37M3i34r6ldx+FdP8NawfDd0+n/Z/Pmge4vNL1LEi3jkKlxGloyGJxKt4zDMaMT4j4i+E+p6v4bt/GniGXWdftfEuqXtq+pavq0t9Jqt9AtvNdNMkkjFn/wBMgkLuuGaXKklW29sszw+Cw/NmGOUpz1UaNGrJqO3NL231dRV9I8rnfW6iuVy+HxXglw9mWYw/1ZwFatQo2pyl9ZwaTrwtN03ac+d+zd6iUYtae+2pRj9peAv+Di74saR8OV+HkLade620EenS+M2g/tO68LW6xWVsLr7PK6re3oEF9N5dxNia4ukLNHDCYpPrf/g20+D3jHwN8E/FXiHWba7j8F6/aabYeEJZtQS4T7PZ3OqLcRRx72eFEuJnbDKoZpXYbtzGvlL4Uf8ABFvX9X8dJ4E17UbHwu03iPSPDo1QaeLuXTrx/C13rl5ZJFFeLEUhxbQs5UiQmN4pECSxP+q3wP8A2X/iV+zf8LtM8F+C/GPwn0bw1o3m/Y7P/hA9VuPJ82V5n+eXXnc5kkc8scZwMAAVvQzLEYtUMPRoSp4fD828k6lSq/dcqrtFWjG6pwStTT0c5Tqzn+feLPFXDWV5Ri8uyPAv61mTozm1Gj7KFCF6kPYuOIm1OU7c7bfPafNGmlTjH4S/4OffhBqnhPWPgv8AHHwtYXdvrnhW/l0q61iyuil5Ft/0izigUSKySKDfyrJGM7o1DHPlCvMdP/4OK/iI3wEtrHwzaaNdeINaW9vbvX76OWcabPc3+pTNHaRvM4aKGGawSETcQm2ljeOVShX7u/4KVfsy+PPjN+xv41k8d+Kfhlr+m+DdJvvE9pBa+C9TsJ47q1sbjZJHKutMocK7geZHJHlgWjfGK+Yv22v+Dd/WfGvhL4h+NfDWtaP4l+KHivxHN4jkXR9MufD9zevdXBM1sskurNZrDGZ5Z1aWF5iUCGUg7a9TFV447D/VcXKrRlS/h1KcYVP3c25SpzhzwdlPmq05wcp806kXGXNB0/L4A4/yCjlOX4LP8q+tL2k42qzpwj7SLjyT9o6jXLyTjTqxqKFJRp0mmlGpz++/sC/8FufA3xz+Fz2fj1tW8OeJfA3hM6z4q1y+jtxpd15EsFs0sRiIcyzyTxMsCQD55DGm8hN54G/4Lo+D/Fmjm4h0r7XaW/xJs/B97rFzONI0u20vULnUjZamrSmSRvLs7FHmSZYBvdsFVGB+VFj/AMEl/jz4u/aG+J3gTwBa3Hi9/hpqg06+m1a3s9MlaN5J/st0sclxB8lxFF5qgGQbSpDEMCeT/bf/AGevGP7EX7RHiz4SweL7Dxdpej3NhdXZ+wz6RDqEjWImilMQnuFDxC8kRSdx2vJgrvIrw3DGU6UeXMMPK3u3arw5pWb5earQhTTTi4tuSje95JNM/ZsB4V+Hmc4+pToYPEU61eMa6oc9CboUrw5pSjh8RVmlKNaMoRvdxceWEuSZ+7f7MH/BV/4TftQ3WuW2l6v9ku9Fv4LQJJHJ/piXery6bYyRIyLM3mE2Ukn7rZB/aMCPJuD7ee0b/gr78NNZ0n4y3mneJPD2uv8AD/ST4m0K2haazTWNM/s3TpEElzIjRJcPqN29p5WBKrbEMJdTn8B/h9ZfEFpdR8R+HLCztZ/A8EOuz39rrj28+mKLu3t4p428pX3i4uLcDy8sCwbgKSO28H/s4/GN/A2kavDpekaJ4a+JGha9fWVy/iN1h1u00SNr29heOKFn+WSzTYsyKrSpEwOF3rnTln84Rivq7avdrE4bW/up/wAayV2l6+tjqxn0fPDzCYqvWq4rERpycVCEqNa8XFKrUjf2PNKXsoTkkrSVNt7R53+/Pxe/4KIeA/CfivR/COheJdJn8c6vrunafBpd9a3EX2m3bxJHol+YmYIryxOl7tVXJ/0cybXiBJ1dA/4KA/DKz+Gvw31nxp4v8KeA9W+JGhWOuWuk6nrMSyWyXNo1yC7tsxEPLljE7qiM6BAd7qh/nj8R/F/4v/tH/HbVPF9jZ2zeKoZdV8W2kWneIJrYaMsL3esXP2JpVBhWNvtMyKJN28kgl2ycLX/FXj34l+Bh4k1bT/FuuaL4Q+weGIrm+1S2n/sxJY7qS0s4le5LLFstroqqDYm0/dLLnolUzhfvY/V2ndL/AGrDdLNtr211o/T1szy6f0buFvZU8JicTXhNWlN/V67mnU5oQgn7FQcXNK11zOSkk1zI/pE8O/t7fCzW/hTqHjC48UWmkabofhvSvFWtRXv+v0S11OFprOOcR71+0SKuBAjPIS0eFPmxl+Jl/wCCt/wVT4O/DzxuniDfpPxF12Lw9DC01tDdaJcEAzvfRyzL5MVtuj86RS4UTQuu9JUZv5+PA/xB+K3xb8SQeBPDg8SXUvj2XTdEl0++8RC2ttXeFooNOtpAJHR1iOxYvNwkQQYKgcbNh8A/jV4ki0jw5D4bs7iCfVtHttPsG8Sr5C33iC0W4sCqlNiPdW9tGWfjaIUWUqVUUSlnsoxdNYd3X/QVhnrfyrae6tnr12seBjfBnw8ynGVMNm+LxqlFxnaOBxsoqk6dn70cK0/30tJc1lFKD9+5+vv7VX/BbnwF8AfjX8NtaWHxTquian4D/tnUtKtrq3jWyXVJ9LuLZrpPOKrdW9jBeSBGH/L1CqyBJ3kTxrXNH8TfBH/g1T0zVf8ASNF1+1i07xzYvb3nlzW0dx4sh1i1eOaIko/kyxMrDDKxGQjAgfmRpnwR+Jv7QmqeEp75mv4PGOsJ4Q0K3S+jmfU7m1j0+JLOSacgpEkdzaxhSscYjkVQ5CMF/fa28FT+Iv2PPD/wY8afs/8AxY8WeGtK0LTNFvP+Jn4esP7R+wrBsl/da2HjzJAj7RIcdCWGc/TcP5+srs5yjiKqqU6zjBz9nD2afLSlNQ96U+ZuUqUpwikuWUnJ8v5/4m4bhbIaGWYfA08RSpqp+8dTD1VVqRpzlzThTqKKUYOcoRhVUKk5aTUIw1peG/8Aguj+zZ4o1XUkg8b3EWmabbNd/wBqz6ZOlteR5s1TyE2+fKztdsAiRFgLO5dgsapJJ734S/ay+GXj3xzp/hvRPHvhTVta1iwGp6ZbWmpRS/2rbmS6jZ7VlJW42PZ3IcRFjH5R3hQVz/NHqH7HXxU+E3xb0D4eDRbSfVvEt/JpmjaXealEsqzrqM2meStwjSRlFvLW5iHmbcBAdxQqx7X9oPQf2i/2GPiP4M0vxhps/gzxP4X0Qjw+dF8TQi/stNuLy8ZzFPbADLTT3uQ8oYhyudm0V5NX69LEynl9SjWwza5Zyq06Ekm9I1IVqkHCaXxXvC+sJzg1M+kq+FfAGMVDL8JiMbQx04y9yWExNaEnGNvaQnSwrU6ftPilePLB+/GnOEov+gbUP+CgfwY0u88YwT/ETw9G/gPSbXXdYPmMUSxuoopbeeBgu26SRZ4Av2cyZa4hT78iK3b6r8dfB+ieOYvDd34j0mDWpd6/ZnnA8t1ksI/Kdvuxys+qaeEich5PtcWxWBr+YTxX4q8e+H9H02/1XT/Fq2njjQolt5H1S2k/tPS7a5NrFE4FyT5UU+mhEikAC/ZIiqhVjNe2/tD/ALVHxu+J3jnxjrC+HvFvhr7DfyfE6eS28RW732n6frEmhPYRtcLdL5sUPlaL5KIgeJlViq+WBFzU6+aOEnNULq1v9pw+zu9f338tvxex72P+jVkccTQpYXHVuSSmpylQq6TiqcEor2KbvWc4tWbV4Qb5tZf0HeBPjr4P+J2sXNh4f8R6Tq13bYby7ecN9oQ21ldebCek0XkajYuZYiyD7TGC244rJ8e/tZfDL4Y+BtZ8Sa5498KWWi+Hr+fSdQuf7Sik+z38MbSS2O1CWa7CKx+zqDKccITX8/nizx/+0h/wTO+P3hX/AISjT/HHh/xFpcFtq9npc3ia2u7S9sVeGAQTC1vipt5F0y3heLeuY7SFcBUjx4jr/wC0B438VaFe6Zqk3jjUtN1LVn167tLrVY5oLrUXUq97IjXBVrhlJBlILkEgmiviMzppwlGgpq+jxWGVu1/31/U5cH9HHh+pFZlPNJvA8sJe1jQrNNXam1P2XIlZLlequ7O9tf6fLX9obwpcfFbxN4POqWkOpeEoNIk1KWW5hWCCbVJp4bO1J37luHaFSI2UFhc2+3d5gAt+CPjr4P8AiX458R+G/D3iPSdc1rwh5S61bWM4n/sx5ZJ41ilZcqsu+2mDRE702jcqhlz/ADm/s9/t2fFnwx4m8Q+M9Ot/Hfja61SXSbzXZdZ0vV9UQzaZcR6tavcuh5eKPSpxudzttku9pUAutT9mP/goF8V/2Tviz/wszwxb+MNZXWr25bUpNXW7j0nxNeCJ/MF15k0Bu5oftizcsxRp43J+fnpjTz+E08VgJ0qab551F7OEVzWX7yo4093FfF7z0V7o8zOfADh/CYLE14Z3RdSEKfsoqalzVHCDmpxXNOKbVTlulZOLeikj7R1b/gpBN+0HYftZfHCLSLuTw54C1b4SzaNpN1NFDLFY6b4pmvGilmjQhHkLSTuW8zyhc43OiKT+pfw0/aq8KfEfU/iKI9Y8PQab8PJ7WSfUF1eGWCbTrjSrXUYtRZuFit2WeZVckowtXYP1C/kt/wAE/P2ebPT/APglr+074A+Inw4+JVv8UviNc3EEmk2XhDXrh4Ht9LtZ9IgkkhgaGKVLiTzfnKbhMpcNEUz8L/Bv9tL4h/ByPWrW71PxPI/iDw9J4b1iFpLu80/WbRrCfTYi6wNhvs8EhaBJVAhIjwpVcH63P8di8TgKOGwMo4mrh3FVIU5KUpN0KVOUqUVrVhCpRanKndRjySXuSUj5/IeCOCeLM3zLC5XiY4dJ/wCztyXK6a9lKPO1NqEpU/aOLqWc5TfM+eDiv6XPAn7Vvw6+J/xRufBnh3xbpOteJbSwGqSWdm7S4tDFZTJcBwNjRPHqFqUcMVk3uELGKUJ1nivx7ofgP+zf7c1nSdG/tm/i0vT/ALddx2/267lz5VvFvI8yV9rbUXLNg4BxX81/wk/4KY+LPgl8Yj440C2NrrTaFovhxsaRqSRvaaWdM8tTsKsfOTS4Y5hu2uk06hVDjbrfE3/grd8Sfi7+zr4P+Hmuahq93/whGur4j0/xM9nq0niJ7tGuTEz3bu2fL+0sEKqrKIosN8vPx1N8Qezlz5ZX5tbWo1Lb6L4d7an1mM+jRgPrlFYTN6HsWoKblWpuSbg3OUbNLljO0VHWTTvfQ/fiz/bL8H3/AO0BqPwziGrN4q0nXbXQbuL7MBDE9zo1zq8E/mFsGJoLS4j4y4ljwUCMsh1vB37Vvw68d/8ACUf2f4t0lf8AhC7/AFLTta+2O1l9hl07yftzHzwm6KD7RBvmXMS+anz8iv5uvFv7fXjvxV8TG8YR+J/HGjeIpoNOjnvtMGqW891NY6cNOiupJOXa4aAzB5C2SbmfG1ZCtM+Mn7dniD4uaXr8V1b39lF4g8R6z4o1C30rS7+AX02pyWM09swclWgWXTrZ40c/K67mZiFK401xNKTissrN8ztelNKzfu3bVlbq3p6HsVfo0cOt0W84pQj7OHO1VhJxqKN6rUd5xlLSnGLTS3bP6XvD/wAevA3izwvd65pfjPwpqWi6fYHVLrULTV7ea1trQPOhuHlVyqxb7a5XeTtzbyjOUbHxJ+1B/wAFvvhlL+zd8PfEvhTUtW+3+JvFmnz3+i295FFr2kaXYakk1408UMjovnx24hWGSaMTR3hbJVZFr8ivhB+3r8Rfgr8NfEfhPStO1ifRfE9g+l3UF3dqyx2jWmqW5t0VbtVEW/V7m52FSv2hIpMZDB/P/hV4E8SfHf4neGfCMFm2kjxXrEGj77aaO41JVnlEK+TGzwwCYllK77hUBI3MBkjOp/aNeEU62HpRek5fWKE3G+t4whUlUnomkoxbu0t2jn4c8JuB8srV80xVfEY6lRqRlS9hh8RO6UJNxrOFKUafvOMnKbjHlhvZs/Q79mX4beK/jN/wbo/tLX1zLdiZ/EU/ibS7nWGm23dj4fttGykblWLxr/Y01vGFO0eUse6Padn0B4n/AODhjwvH+zRpXiXRLjRL/wAc6rrXiCFvDgsZpZtL0+KfWINJe62T+XFOz2+lvcR+eXMVxK8cYV4iPdbfwn4mtf2A0+BC/Bv4qmzj+H48BDU3fwy6mMad9h88wHWzkY+byzJ7b+9fgd8Zv2KPip+wJ45fwn440S0tdQ1mAa7BHd6rFJcGKSSSLc0luZ0bLQN1KtlWJXBFfoGb5vl+N4bxGDwtT2WJpSp/V/ark56SjClyOpJqnCcKcIylzzXtH8Dk00/zDw8xWQcUcWzr59SqVKE61arKnQo16jTnFtyVOFF1Z05zStyU06VveUVJH9E/gH/gpz8HvEHw1+HGua9458KeGrv4iWBmit5NUWe10y7itLe5urK4uwohhlhFzEpWcxMxdQF3MFroPCf7d3w48afG288CWOuWj6lZwJdC7+2WpsriGWPSGtZI3EpZkum1m2jgbbiWSKdVztXf/Ob4r034m+Hvg7bWOu+E9UtvDXhy9stTEKXemyLa3WvabFdwMGWbzHE9pp8bYPEfk4YRu5Vq/h749/EvwJZzeILC18cWKa7BBoSav50G9106WwuYYILlpi0b2zW+nMvlMrRqsI4RgD+fSqZzSn7Or9X03tisNrbR/wDL63xbNaWP2v8A4lt4TxVOVfAYuu+fm5V7Cu4xcpKdNr9zzaUGm4Su3LXm5Xp/Qf4f/wCCrPwY8Q/tLaz8Kxr93Y+ItBn1S2vbm+s2ttOhbToVmui1w+FVFUXXzvtX/QZySFaBpuTP/Baj4MaF8M5fE2v6ld6ZBcQXF9olvDC1xP4jtl1HVrK3a2jKpIryDSmd/OSOOE3UCPLls1+HVl8fviH4++L3xN+KOl+CoJ9U1Cy1jUdfWa4ggsNPttaZtMuJUH2hpcI+qqIwvmMCULBlV6wf7f8AiD8fLPwx4cs/Dvh2d/AvhvUIbZYdVeJ3sbeXUNYuZZGkj2s6LNcnC4ysaKFZ/vZyeecvPGWG1clFfWcNr8NtPb3767N6dGceN8E+AMuqwpY769yxjSdWUMJi6nI1GpKqnKnhJQjf91pLWMG5LRpn73fEL/gsf8HvB/wu1/xHZar/AGl/Zf8Ab9pYo0ix2+sahpctnELSGZPM8z7T9vtZYpIlkQQNJI5TynUfGv8AwSi+J+s/8FKf+Cx3jj44+IdJRLL4e+FHtNPt01R5YvDM19JHDZW8alwzlrS31J5PkEZkmaTYjSIB8A+IP2Pv2g7jw94J0aXQbPTdN8YT6Xc+HkOvQ3sby69HMljLFAWRI5Ln+zWDNIV2i1QSgfuwf0q/4N3/ABvrXwm/Yv8AFdlpPw5+IHjxb3xzeXtxqenXujpH5rWNgvlsLu+tnDKqJwkewKVAJO4D2sqxLwdV180rQdZwkqdKk/aWclyTqVJQUqfL7N1IxjGo6inKM5RjFJv4LjHB8KZBwnjZcJUsRVlVlGnVr1qGIpJUpT51SpxlThJScow5pSgoSjGUFKfvROe/Zo/4Ka3X/BPv/got8ffg98Wri4g8CXfxB1PXtPu5rs3X/CKwah5+qo6QQRSySJdtdwYjDIIiWYrvM2f0A/Zu/wCCg/wy/ax+MXjjwX4I1n+1L/wN5TTXW6IWuroxZZJbIhy88UUgCPLsCZkiKs6yKx/JH/gv/wDs0+MdT/aAtvjtp3w/174d6br9lZ6Bqcmv6lp92NY1OOO5MW6C0vrjy1FtDEFdNoBifKkvlvmf4U+Lvjf+yvceOLnw5ozaNe3Hg6wu9W1HR/EPlalpGkXt1pV3bXVvIrQ/NK8thGyhmYR3UgZBhimubYrEYvHLE4CtTlGSUqkatSFGrGah+8bdZ0ozVWcZVYOm52UuSVpLlOvJ+DeDeKsgoYr2eIw+PqwhThKnhsRPCyl7SEeb93SqckqcZRozU5wUnyzScpOT/oG/Y0/4KD/DL9ujwub3wXrPk6tD5rXXh7U2ig1izSN0UyvArvmI+ZERKjMmZApYOGRdbS/27vgrrviiLRrD4r/D7UL+awu9T22mvW08cdvaoslw7yI5SPZGxkw7AlI5XAKxSFf5uvgF+1X43/Zn8aXev+D7PxFpWpXuk32jyywXscBMN1A8JbMVyjb42ZJoyThZoInwdgFdD+z7b+NdG+GvxB+Jfh3wdq99aeCrD+xdYedtP+y2lprdpe6Y0rE3yTGUGUCNY4pFyxaQoqBZfEw+IzeUIQ/2dy15v9qw2y1ul7btdv0Pts6+jTwzh8TisSsXiKeHfIqCeHrX9pUbhGnKTo7Obpxi7XlzWeup/RfpP7Zfws8QaF/amneOvD2p6a/iS08IQXdlcfaYLzVrpYGhtIHTKzuVuIyTEWVAJC5XypNnJ+K/+Ci3w08P/BnwN8S4NctJ/hx4z1a70069ciazSzW3stRnaQQyRCWR2m08wLEFDO0q7Nx2q/8APN8HrD4o+PP7B/4Q7RfFrf2Z4ssNO0f7PrNna/Ydc1Hd9laHddL5Usv9n8zLgL9mj3OuErrPBv7Unj34yfsyeH/2b7Lwfq+tfbvHVpq3hqSTUrZJLa4mimtTYqJLjylikluVkUgxhHaZm3eblKjWzea19grrT/acO7yTWn8bbdPrtqjKv9G7hnD1LQxdeqoTj7VOhVi6dGUZ3m/3XxxfJUjdqPKpRcZ6N/r98Bv29fDv7ZX/AAV/tdD8IRWmoeHfAHwu1e5ttetb4zJqy6ndeGZwGhMatbvG0EsZR2Lbo5AQjIyir/wQG+PXgaz/AOCW/wAIfDEvjPwpF4l07T5vtekvq9ut9a+fq0sUG+EvvXzJLm3RMgbmniAyXUH5w/4NwfEGmfBP4afFDxt4jXxvcan411LT9KGmaL4J1bW7XTIrCCSVSbyytpY2kd9Qk3RttZAin5ldTXwz8UPiT4q/Yu/4KDeOr/wt4X1HSNJ0jxvLrehaQ1hJo0DaauprqVhZXNhK1vJHbqI7R0iwoCLCQEKDH3GNzVSyeOApYijOrS9le9WnCL1rSqqFSUlTm6VStyLlk/aQi6kHOKcz8cocOcI43iTM+HKOJeHoU+R05N80pTpR5L1IfxIe1TlOXupUqjVOSp3jBfvd4t/4KNfCzw/8dNI+H1p4s8Pajrsmrajp+ur9v8pPDcNhpc1/c3M7lTGEjKRRNudQGeYbi1tMi+3a1r9j4bs0uNRvbSwgknhtUluZliRpppVhhjBYgF5JXRFXqzOqjJIFfy1+M/2hfEHxR8e+LviedP8AEuj3XibVLqbV7jTdHv4bazm1QXLyWZkCttWWP7UgjaRt8aSjLgMa+kfFX/BdH4gax4J8AWLXGr6/f6Bv1PXJta0e/Mep6oPEcWsQOEiZUMUUdlZwxjYhiSa7jQKrRsvyNCnxHGVWOKy2vo3y2pTaa2tdJ373Wj1t0P0fiL6OeTuOAeRZrRldKOIU6sOaMmpTclskrWgouzT5W73bP3t8KfFfw7428JeFtc07VrR9N8bQQ3OhSTE276osts10gjjkCuXMCPJs27gsbkgbWxz3hj9qDwf4s8Q+LLK31HyLTwTYf2hq2p3gFrY2yLe6nYzAySFSPJn0m7DsyhNoRlZlJI/nx/Z2/wCCt3xJ/Zzn0H7PqGr+LLTwtfwX2j2XiWz1a/tdK8nT7/T1hgjDoIojBqEmVTHMEHIVCrcR4h/b68d+IPDcOljxP44sIJNJn0fVWsxqkT+JIZr6/vpG1A8i5dpdSugS4wVfBBJZmhy4h5IyWV1763XsanZW15e936I0p/Rmy36zWoyzmh7O8OSftYbOUnO8b3bUVCK2TlJu1kf0+a9r9j4V0K91TVL2003TdNge6u7u6mWGC1hRSzySOxCqiqCSxIAAJNcRq37UHg/TfjTZfD+LUf7R8VT39vp93aWgEn9kvcWGoX8BuWJATfBptwQo3ON0JKhJFevwP8Cf8FQvGHi/9mr4qeC/GfxR8SKJPDNxNpsuv6zfQXery3Or6BDPaK9zIBMqWkN0REg3CO5vSco74zPhh/wVavNL/an/AOFgeI/EtmU134haT4116XTdRb7akNn9rhaxtTJccW5tL+4gEMjEGNYk3BAwborUuIk6TWV4iMZ2d3RqbXknb3e6tf17HkYD6O+A9ljfb5vQqVKKnGKjVgk58tKVNu7u04Tm2lZ8yir6s/pFrJ8H+PdD+IWnNd6BrOk65aJ5W6fT7uO5jXzYIriPLISPngmhlX1SWNh8rAn+fH4gf8FtfG/jL9mvSPCdv8TNU0rxLDrq31/rNl4iuILh7S30qxsLWFJxdFz5skV3c3Ksu155EkUgs6jJ+CH/AAV41r4F/staz4H0jxkIdauddS+stTTVpFkW0k0O50iWGSVbhW/0dBp0lqqrtje2DE4jjSqf9t+0UVlmI5bXb9lU+74Tkp/Rul9RnWqZthva86jGKqQ2vZyb5tuqt01P6Oqqadr9jrF5f29pe2l1PpU4tb2KGZXezmMUcwjkAOUcxSxPtbB2yI3RgT/Ob8Qf+Cx/jjxP+zl8PvDNt8WfGdn4n8JajqqXupaZ4ju/tWvWt09o9oJ3jnaW4mil+1oMqFSIwhcneazNe/4Kh/GX4p6xrX9h+IviHo1/rOu6t4x1D/hGI9at5pfNtrfzUfYzE2lpbWC+UGz5MQkyxUfK5xz5RUo5ViWna37mpq7JtL3d43V/+Ci8L9GyE7/WM8wkLOd71I+6ozahNrm+GpGLku11fZn9F8vxX8O2/wARW8JS6taQeIhBbXKWUxMbzrcC8MIjLALI7Lp962xCWVbd2YBcE/E//Bfvx1bfFj/gnf4x+FPha3u9e8ceOvG/h/4eadYQhIQusSz2WrRwvJM0aBGtVVvMUsqmRdxULIU/LP4Y/wDBSTx38LPFWpv451X4nalqWpaTJdWOqahbapNrenzPoOsW2lSW80xDR2+7XDcblydpWSP0f2/9hv8AbV+Jv7Un/BWPwX8RvF+g+O7Hwc0174vvbDQtA1a50qV49DuNBjvrfTk86dxvYQPchGAdHTcBkL9LwRmub5TnGGzvF4SdD6rUVZOtFwg3S9+nFuXLdzqKEOWL5mnJpaNr5/jjwVyrIcFiMZVzOjWoqimnCrG86rtdRtey5VUlFvROME2+ZJ/Wn/Bt7+1J4e/4dh+FfB3iTWdB8P654M8TXnhOKC/1qEXGpTXV3PdWqpGxUhpDJPDHGu7f9jkKk4Kr9aaz/wAFB/hlD4G8A+JND1n/AITHRfiJ4s07wbp9zoTRT/Y7+9jMkS3Su6NBtTaZEYeam9cx5Nfg/wD8FB7nxd+zx+3z8T59B/4WBa+H/F/ipPiDodw9hdeG5vOlMkqzC0uzDKr21zLeRx3AX5mMrLsLsK810T9tXxv4e+C+l/DfSLLXdK0zRPFj+NoZbSGOC8j1IW0EEM63fmgL5SIfLETBgzyFs7Y9nDxdmea5tnmMzLCxoSjWlOu+StQSpqq1U5ZRdX92qfP7OTnopJK92k/oOHvC3gLM8BRzKnmrs1DmjLndkouM5uSp3m5T5Zx5UtJO6S+H+kDx5+3L8JvhxPpial430mT+2LC/1O0fT1k1GOW3stPj1K5cvbrIq7bKaGdQxBkSWMoH3DJ8Kf22Ph18YZ/Ddnpet7da8T2GmX0OlSRM11Z/2jp91qNrDcGPfHFK1rZXMhUvwEU5xLEX/nm8c/tra3c/EKx1TQtB8RPptn4Mg8MLYanLbmCCaXwvbaDqFxHGl1tV3WElHzlhFAXU7dgqeJPF3xu/Zv1iTULr/hYfhm/07Xbnw01zZ+JLdZodQ0e2S0eEPDdk/wCjW18sCODsEU7pGxXeK+XdfNOdyX1dwT1ticNt3v7bdu9j6vCfRy4dxOX0XDGV1Wr0lOm3QqtSm7ytGKo3cI03Fyacm3qmoux/QHef8FJvhJpfxF1bw/eeJbS1TRYIry51VriCTTktpxo32a5MkcjMtvO2t2ypMyiM+RdEsqRbm8+/bo/4K9+AP2TPhT4e1HSzd+JNd+IfhubXfCiW9ujwRq0KtZz30Mk0NxFbyvIMYXcRFMBhkxX4OfCnwl8Q/wBrP4u6T4U8OeGPEXijxbqsAtbCC51OxR5IbS1O2MSz3KoqRW8G1VLABY1VegFJ4g8D/Gf49/B+18WaobpvC3h2wbS/7RuPEH2250iws5LGFrS3jkwY1jk1axRQmVX7SzIDscq6EM2rxlKtVw9GlfWp9Yoz5FvJ8lOpOpPlj0hCUrtLeUU+zHeCvAWQY3C/XamLxNRKPNQjhcRepKScaauqNqaqVIytKpKEJRhKKvyza/XPU/jD4i+HH/BBzRPi14q0K0Os3/jzSvig2mWtwIoLuC/+IVvrVuI3zKYklguIiA254xIA43qy19D3n/BYj4H6X4S0vxBd67dx6FfQaRJd31vHHfpos2pW2o3ENrdpaySyR3CDTZUljVGKNNB1UuycZ+1b8LvFXxY/YQj+CXgL4G/ELwnY6ZHoNjokupzeGtWtdIttMvrKaIvBPq7i78uK1GIpyVmKhJG2uzV+EC2PxF0X4RWd/PY2CeF/EOqSW2ItakS2vr+whiZ2MHlkhoo9RXazjgXLhWPz19bxfn1bH03UyuUF+/r1HGtOFJ8tT2fI71JQjLWLU1GTcXb+ZM/FvCDhnhDiSjiHn0cTCopxUfq2GxVb3Wm3G1KjW5GoqbpOSfNad7qDP6KPhr/wVF+FnxFXUNUbWrTQvCUOk2WrWWrarP8AZnvobjXL/RTN5BG+K3S4tICZnICrfRGUQ4Neg/tN/tTeHf2T9J8M6v4tuLTTfDutatNpt7qVzcGNNNVNNvr0SBArNM7tZrCsS4ZmnXbubCN/Nvpvh74y623gvw5Y6c123xF0+PTPDemp4nKx6paSatMiWoDII44m1OCV9kpRBKvmnGQ57rxH+218aP2yfBfhP4P6pY+IvF895q2n22lvqOqpPe3d8J9QWEtNcXpjDyHVTEzkL+7tbQEgREt8lTlm/sL1PYcz+H/asLrJWbTXtr2aas/XVvb9Uj4GcJ5hmHt8qr4lYanKXto1MJjKUoUmnGM4yq4eF5wnCo57w5ly8qSaf7sWv/BUj4Ja7+zr40+J+h+L/wDhIPDXgLy01aOzsZ0vo5ZWVLeMW8yRv++kdUSRgsRYPlwI5Ctr9kD9vrwp+1teeNbezuvD2nz+GPGd54U06KHXob19fhiiaaC9hACnZPFFcuirvBW1mYOwRiv87cXiPxf4O+AK3llb+OLHw7451a50rUrCG8tItO1NtOSzuI/MVbzdM8bXobEsKqmUKO7M4iZZ+Pvix+zl4rit9H/t7wRevbafrsTweI/sUri5sWltZ1No0g3fY75sEsHVbqVCBucVjTqZ1zxnU+r8sUuZfWsKr32tet2adt9G9lp7mb/R74Mw+W4r6piMVKrKb9i/qmLqyjGHJGSlTo0Lyaqc6lJQaSlD4Xq/2C+In/BRr4Tf8FCf2+/2cPhZ4UsdW8R6ToHjufxbLrdwklhay3Fj4d1Sa1EEZ2zvtuHDN5ixjNsF2ypISOs/YV0z/hh7/goF8U/g54m8T/brPX/BPgvxH4fuWl+z2Cpa2dv4Yk8yOR8Q3l1d2kAWOPzN6eSpkLhUr4K/4N/vhTq+o/tT678UL3wPrvjab4d6d9l0nTfDs9iv9nXWoI8X2yaa9vrQMwghu4VRYpBtuXJZCqbu3/4L++JfG/h79o34cfEzQdA+Inw11vW/D83h69i1TXdPtor2LTr+DULOS3bTZ7mQPFcXLu/msq7ktWQbo2avuMPmlOWVqlWrUniPq7hzKVqSl9Z9t7N1Xam3yrlUuZw9o0lO2p+J5xl+Sw4zfBWT08ZDAz5eZTw1edfnVFyVZUVT9qvsyko04P2ad6dkfe3hX/gt58BPE/wSk8ctq/iHTbOz1ax0e/0+60aU3unTXclwImk8vfEyeTa3E5MUjkRxEYMrJE3q/gX9vv4SePfglF4/t/HHh630KODTJtUEmoQSz+Hm1CSOK3iv1hdxbP5smxy5CoUkJYKjMP5rdUvfGfg3wHoyaj4f1+x0fxpbR67b2sWo2sltfCCe7slnKCf70cqXsamRVcBnIAWTLXvDn7Rvinwn8HfFPgew0bV7fRfGV/p19qvl3EKSXP2EXPkwttuArRb7kyMrq3zwwsCpTn4ONbO6U/Z4h4Z2T2xWG31s7qu009NtLarof0HmP0aODcVRdXKK2LV6sd6FZ2p80VUh/AVpw/eW5k3dRjLVSv8A0iXH7ePw0XSfCGo22sXd9pvjTxJpvhSxu4dPmVI77UdNTUrISK6q4SWCa3+YK21rhA+zbIUP2V/24vAH7Wcuu2XhzxF4eudd8P6tqVhPpdrqaXM8lta3bQRX0Ywpkt5omt5RLGGjBnEe9mU1/P58Xfiz8brD4a/DrxpqWmeLfDvg/wAQ/ZpvCg0zXLeO1lu9BtLXSft6QLeM0N2iW8IMzKjEklMLgDiPAXxI+JfwK0Kz8ceFU8ceEYNdnvNCh1TR9agsp7lrdbSe4gYxXKybALi0Y7htYlcZKHbu62bQrLmVDlWr/wBpwydnazX777r9/Q8Ol9G3hrE5ZL6vjKyryfLB+wryj7SDmqkJWoq7i1KMlH3oum9rSv8A0NWH/BTn4PaTdXWn+LfHPhTwlr9pruq6LJplxqiyzQfY9XOmpLNhR5Hm5hnCyBdsTyPlo4JZV+Bv2ofAniP/AIKi6x+1tcWHgHUf+E1+HF9ofwu8Ja1ojS289w8Wua3DfxxznARJNJ1eKO8jZ2hMcpkfYpVY/wA/LqHxz+1544+InxEbwZqn+l3up63qh0+SwWG3vZbLU9WWJUmvVcQlbC6JcGRo44yQssnlxSfqx/wQYuNe+A/7AFnc2Xws+JXi658deINS8Q3+oafqOgf2f5olFikdsLi+tpwiQWMCt5sW4yiVgSjLX1PDOa5pltPEY6denTk4qNJ0qtKrUc41aVTn5acqnLGHJfmklHmaiub3rfnXijwfwtwLhsPicHTrYjESqwdWFShXjRpxcZydJ1OSF/axvBwlKUp0+afu2TfpX/BMb9vfwH4a/wCCcPwrsPGl/wD8IX4j8EaLP4M1fQ72C4e/s7vw9pvmX4aHyhJmO1t1mkAQiJ5VgLGXCt7Jf/t3eFLH9s+D4UXOueHtHnt4Ly1vItUvIbe7utRK6JNYR2oMuWSeLU7hQpTfJJayBOI2Lfir+3R8Jvjf+zl+0D8WvHen2GpWHw/1bxzrVpFDrt/Yxz6NqHiLTjd39l9nt5ruJvMsrlV+0IclVjyySIqR8P8AHn4D/tNfCmzg+MfjzS7qGc+JH0SLxPc+NReaiNWsJZ4NokTfcB4XsJVWT7o8hdrYKE8vFOJzDFZpicVgJUalOVR1FJ1qVN8knzNThUnCcZJvlleKjzJ8rlFqTx4Y4G4CxOFw2JxmIxVKWIpShGn9SxlVfWJK8VSlTw0o1IRg+dLnlUacXJRaaP3N+F//AAVQ+Enxb+BGueP9L1O7hsdGgv5o9LvfItdV1ZrDTINSvYrS3eUGZ4IpwjkHaHRiGMZWRvYvA/x68DfE7UbW08N+M/CniG7vbB9UtoNM1e3u5Li0SdrdrhFjclohOrRFx8odSudwxX8zPgTx78T/AIReDdP8SQaVpE/hrVP+Ei8PWEV3rUslqlxdaXDZ6i6QrGCkotr21PmEAMVizvEZUHwl/ay+LHwQg1T/AIRu+Gm3eoaF/wAI5bXsHiG8hutGtDqEOoMtpJGimHfPE24D5SLif5dz7h8/QxOaRssR7Dz/ANqwy6J/8/uv+TPoc58GOE66qSyWrj173u82W5jJfFKLjJrCJ3hZOVrXbnGysj+i/wCJ37dPgD4M/H66+Hnie8u9H1Kz8GXHjl72ZENpJYwPKJo4wrmeW4VIJpvLjib93E7AnaRVTS/+CinwevdAi1K48a6Tp1pP9rmjknmWSM2lvrS6L9vaSIvGlpLePGI5nZVZGL8LHL5f84vi/wDaH+LHxC8ULrmv+IdU1zWksJdLXUNQ8U3lzdLaSpKkluJXiLeU6TTKyZ2kSyAjDHOV/wALK8d/2P8A2f54+wfYP7L+zf29ceT9k+0/a/s+zyceV9p/f7MbfN+fG7mspYzNeaXL9Xtra+Kw3la/771Pt8D9GHh3EYPD1KuIxKk1BzthcTG+kua0Z0OaDd4u01dNNNI/df8Abz/4Lf8Agn9mTw34Y/4QGG0+I2r+I52ulaOWSHTk063vprS4kWfbiR5JbW5ihaMOnyGY7kEaT+x/CH/gqZ8CvjV451jw1pXj/SbfWtD/ALRkuIr5vs9vJb2Ukiy3MV0f9GliMUZuFMcrHyMuyqEkCfhl8Cf2F/jZ+1Z+zJ4w+Jlh/wAIlH4K+E9hdx41bxJc+YyW8UmoXFtZxJaybdvnGQh/LRnushiTIV5P44fs4/GP9jrUYbzWNL0jTbTVr/XfDlhqumeI3Meq/YZ5NO1FUCwiZYiWeMiVE8xJCNpUkUKlxJCX1qaoezaTt9Zw1ktm0/bdX1d+htPwV8LcXR/1fwmMrxx9KVSPMqVZynNpTjCcXR5X7OmruFNRlbmk3oz+lDx18aND+HvxA8E+GL+f/idePr+5sdKto3j8xvs9nPdzTMjMG8pEhCMyBsPPCCAHyOe8W/th/DjwrK1vH4u8PazqUPiTTvCU+m6ZqlrcXtrqN9di1igki8wMrqwmd0PziO2nYK3lkV/P54a+P37TuieMvB3xWv8AVdU8TyeBbAeNNKn1zxrdXscennVF0qbKt+8EU90gtpYkKvIhJI8v5qydF8M/tGPo/gfUrOzH/F9PFkeqeHdR/wCEnT7dreuWFzNapcfaCnnwSx3F/KN8jRhml3kttDL3SqZo7+zjR7/7zhtItJJ/xesn+XU+Qw/0dMjp8v13Mpe77rtQrpSqxlUnUhrTuuTDxUmvivGUnaKbX7QfsTftM6H+1P8A8FN/2lNW8KvDqPhrwx4T8FeGLTWbaVpbXWJYLrxLcTyRMUUYSS7Mfyl1YRrIrFZFr7Gr8jf+DZLwz4m8DfGf9oXSfE1pHp1w3hzwNq9vaw332qLyL2PWrqGYEABWkgkhYjG4DaGwQVH65V6OE+seyX1rl5+vLJSj8pRbTsuqbP528RMoyzK+IcTl+TOUsPTcVFzTUpe5G8mmlbmleS0Wj0SQUUUV0HxYUUUUAFFFFABRRRQAUUUUAFFFFAHg/g//AIJ9+FvBn7Rn/CwIfEXjK6tLXWNQ8SaX4SuLm2OgaLq9/D5N5qFuiwC586VXuDtkuHiVry4ZI0Z8jxvxp+2v4Y1b9vb4a+NLfwf8fZPDOgeAPFmiX95/wpHxmPIvL3UfDU1rF5Z0ve2+PT7s7lUqvk4YqWQN9uUVSlZKPRKy9P6/DQTV5OXV6v8AP8Xq+7be7Z4D/wAPJ/h3/wBC78ff/DF+N/8A5U0f8PJ/h3/0Lvx9/wDDF+N//lTXv1FGgangP/Dyf4d/9C78ff8Awxfjf/5U14N+0P8AtQ6T8S/+F7/2N4M+Olz/AMLC+F1r4S0HzPg74tg+16lH/bu+F/M01fJUf2hafvZtkR8xsOfLk2fe9eRftBft1fDD9l3xJFpPjTX7+wvDYjVbr7FoWoapFo9iZDEL2/ltIJY7C1Lq4E900UR8qXDYjfbz4ihGslT6u9v/AAFr8rv5HuZDnVXLKzxFOKl8O/8AdqU6i+9wS+Z4l8Of+Ch/w+8Q/tHeNPG+m6P8adT8LapoOl+Gre+svg54vuQdR0vUtcTULZkTTC6PBJcRxtvUDzBIgJeKRUv+Hf25PCWmftP+MPFk3hT48roOteFtC0mznHwU8ZM8lzaXesS3CGIaX5iBUvbYh2UK+8hSxRwvbfDf45fBz9lPx5a/B+28W6hPrvinxFqOvR+dY3F3awXuvalf6uttNfwQfY7ZpZZrgW0M8iSyokYXzWO5voWmsPFJNXspSfz1uvlcmrnk6jqpxV6lKnT9FD2dpfP2Xpq7bH5z/sY/Ffw3+zF+17+0b4qn8I/H9PBvxT1bTtY0G8l+D/iu5nu5iLua/VoYdM82BI7m6ZEE8aFkClTJgucP9s34u/8AC8f2n/BXizwz4D+N99oOheKfA+rXs8vwl8UWjxW2k3evy37iKbT0kcxpqNmVRFLS+YwjEhjkCfppRXnvKaX1dYdNpKTl97bt8rn2FLxLxsc7lnlSmpVJUaVJ3b19nTpU+b1l7JSfS7Z8X/tuftWfD79p/wDZI+IPgS38FfHnV9T8QaLPHpNpJ8GPGtkkuoxjzbLdM+mRogF1HCxMjrH8vznZurV/ap/bk8JfF39mD4j+E9A8KfHm817xP4W1PSdNgk+CnjK2Se5uLSWKJGll0tY4wXdQXdlVc5YgAmvruiu2phoTc31lHl+6/wDmfKYHiCvhoYWktY4erKqld25peyvp0v7KN2tX8keA/wDDyf4d/wDQu/H3/wAMX43/APlTR/w8n+Hf/Qu/H3/wxfjf/wCVNe/UV1aHganyJ+1T+3J4S+Lv7MHxH8J6B4U+PN5r3ifwtqek6bBJ8FPGVsk9zcWksUSNLLpaxxgu6gu7Kq5yxABNd7/w8n+Hf/Qu/H3/AMMX43/+VNe/UVmoRVRz7pL7r/5ndPGylg4YNrSEpyv/AI1BW+XJ+J8ieHf25PCWmftP+MPFk3hT48roOteFtC0mznHwU8ZM8lzaXesS3CGIaX5iBUvbYh2UK+8hSxRwvnH7UH7QXhv44/tifAjxVH8P/jTrfgLwRB4ntfFgvfgv4rCLDqOnJawxm1m00SXSSMHRlijkCry+1Tmv0CormrYOFSl7J7cyl90+e36Hu5ZxXXwWYf2jTiub2M6O7VlPDSw3NfulLmXnpsflr+zZ4l0z4Ef8E6/i18Kofhz8b9N8SeNtFlj06wX4VeK7mK61G48MafZ3W65+wvDEG1SK8GZJFjCgOpEDRsfsHXv+ChPwt8VaFe6XqnhD45alpupQPa3dpdfAXxrNBdQupV45EbSCrIykgqQQQSDX0TRSweBp4eHs47Wt+Lf6mnFPGGLzzFPGV1yzc5VL3bfNKNOLd3rf92nfe7Z+Zf7DHxd/4UB8QvDmpeK/Afxv0+z0zws+k3Lw/CXxReFLk6L4OsggWDT3Zh5+iaku9QVxAjZ2TwNJ3v8AwU4/ah0n9qz9h7xv4B8C+DPjpq3irXvsH2G0uPg74t06OXyb+2nkzPc6bHCmI4nPzuMkADLEA/e9FYRyuEcJUwl3aaav6qx6uI8Q8TV4kwXEbpR58LKnJRu7S9nU9ok3vq9GfjxHoL+F/wDgpN8SfiR4f+GPxqt/hz4tv9D1Oyuz8MvExmuLiLX9C1XU3a2kszcx/wDHlqMgDxqGKKkQJkhRvpD/AIah0n/hoT/hJP8AhDPjp/Y//C0f+Et87/hTvi3d/Zv/AAhX9jed5f8AZvmbvt/7vytvm7f3uzyv3lfe9FZUMmpUm+V7z5vxbt+J6Oc+K2OzKnCNekrxw/1du7ba9nSpubv9p+yTfm2fBH/DUOk/8M9/8I3/AMIZ8dP7Y/4Wj/wlvk/8Kd8W7f7N/wCE1/tnzvM/s3y932D955W7zd37rZ5v7uvavCf/AAVS+E/jzwtpuuaHp/xu1nRNZtYr/T9QsPgn40uLW+t5UDxTRSppRWSN0ZWVlJDAggkGvYvHXxu8K/DTxx4O8Na5rEFhrvxAvp9N8P2TI7yalPDbS3UqrtUhQkMMjFmwowq53MoPlP7Lvxo+EPwVn8I/s1eFPFOqajq3w30KDwtYG/0+5Md4NLs7eN7f+0BAljPfRwGKSaCF/MQMzGJFU7fSw+HjTso3b5UvlHd/jqfC5xndTG39pFR5qlSr86vKrel4ad9ew/8A4eT/AA7/AOhd+Pv/AIYvxv8A/KmvN/jz+2L4E+LHjb4UXQ8D/G7VtL8GeMD4h1Jbv4HeMNtqiaTqUEE6JLpQMkiXlxaFRGGdDiQALGzr9jUVdanGpHlfdP7nc5MszCpgq/t6e/LOPa3PCUL+q5rrzPAf+Hk/w7/6F34+/wDhi/G//wAqa8G0X9qHSbH9h74T+AZfBnx0XxV4O/4Qr+1rQfB3xaY7f+yr/TZ77bONN8mXy47Wcr5bt5pQCPezoG+96Kzr0I1N+zX32/yOvKc7qYDl5Ip2qU6nzp81l6Pm19D8y/8Agq18Xf8Ahr/4ez6b8P8AwH8b9YvJPC19pKpc/CXxRpgNzNrXh69jTddafEuDBpt42/O0GJVJDyxK5ffF37R+0/8AHPxYvgP43nQfH/in4datoU//AAqXxQHu7bRLu1l1J3i/s/zITEkMhVJVRpsAQiQkA/ppRXn1snp1MRLEOTu7fhGcf/b7/I+3ynxRxeAySjksKEXGlz2ld3fPiMLiH9zw0Y+km90j8Ubfwt4uj+IX7RGpH4ZfGb7H8S/FOsat4df/AIVvr2b22utF8V2ULuv2PdAWn1jT1KTBGUTOzBUhmaM/4J0+FvF37MvxC+DOpeNPhl8ZtMs/A/inxXq2tPB8N9evza22o6LYWVm6rb2cjSl57eZSkQdowoZwiMrH9rqK86lwvShUhUU37rv0/mUv0sfbY/6Q+Y4rA4nAywkEq9NU2+aWiWHqYe687VHL1VtjwH/h5P8ADv8A6F34+/8Ahi/G/wD8qa/LnRfg9rWkfBn4OwJ8KPjMnjjwt4I8d+FvE5/4V34hZITqUGpjRoUb7L5EoabUZN0kBYReafPZFT5f3Eor1MyyqnjHFydrf/JQl/7bb5n5/wABeJOM4WhWp4WmpqrJOV21tRxFGztuv9oc9ftQifij4d8LeLtM/af8YeLJvhl8Zl0HWvj1oXxDs5x8N9eZ5NEtLvWJbi4MQs/MSRUvbYi3ZRO+8hY2KOFqftQfDjxB8Z/BPh+1sPhL8W9U1TQfgb4e8DWzXPwx1yNrLxDZ6taz3UcTy2ahQtmt0BdKfJcM0ays0gRv25ory3wtRdKVJzdnft1bZ+hUvpE5nTzGjmUcLDmpez05pa+zjGOv+JR19WfzseIv2UPi3qf7MHg/wnD8Ifi42vaL4p13VryA+CNVVI7a7tNHit3Epg8tyz2VyCisWTYCwUOhb274Y/DjxBoXxO+Iuta78Jfi28es/A2HwN4duH+GOuXEkfiEaBp2mvGoWzZoBvhvIftTBIShY+aY5VLftzRXNR4OoU5qftG9ui+zFx/W57eafSkzbG4aWGeCpxv7XVSl/wAvasar+7l5fNN3Pww8WfA3xBF/wSi8MfCnQvhv8cLv4nyePn8X+ItLuPhzrkdrZJ9lubNDDdtZLauDCLNiizSPvlk6BWVP0U/aP/bk8JfE/wCHunabonhT483V5beKfDurSJJ8FPGVuFtrLWrG9uX3SaWqkrBbysEB3OVCoGdlU/XdFexgslpYaE4Qb96MY/8AgKav873PzHizxYx+f4nDYrE0op0cRWxC1bu606cuT/DBU1FPe254D/w8n+Hf/Qu/H3/wxfjf/wCVNeZ/td/8FD/h9qfwUN0dH+NNhY+HNe0LxLql7qXwc8X6faafp2m6xZ6hfXMs8+mJGiRWttPIctk7MKGYhT9lV86fHT9oH4M/tSN45/Zv1XxVrEOoeO7DUvAmoT6fpV4ltHcXGnSG4soNUe2bT/7QS1keX7OZHkXaS0RCkV7E6casXR7p/d3/ABPzXLsbLBYuljYq/s5Rlrt7rvZ+tjxP/gnt+1DpP7NvwivdG8Y+DPjppuoz/wBi7I4Pg74tvlP2Xw1o2mz/AD2+myKNt1Y3KDJ+YRq67o3R2Na/ah0m+/Ye+LHgGLwZ8dG8VeMf+E1/sm0Pwd8WiO4/tW/1Kex3TnTfJi8yO6gLeY6+UXIk2MjhfqX4Kfto/DX9of4ga14Y8IeIpNU1fQomuJVfS7y0t72BZ3tnuLK4miSG+gSeN4nltXljR8KzAsoPqVcNPL4Roxgm7cskn3Unv+B9TjONq+IzKePlTSk6tGo1d6OjFpL/ALeUrv5HwR+xr+1DpPwP/sf/AISbwZ8dLH7F8LvB/hKbyvg74tu9upaZ/af22EeTpr5VPtcGJRmKTefLd9j7cn4G/Gnwr8G/2yfFXi+z8BfHTT/BWuX/AIi1OKdfhD4wnkluNUh8LuzmE6c06+Zd6bqpIKAII04RJYN/6G0Uo5dTVOnTv8Dvf53saV+O8XUxuNxnIksVT9nKN3Ze6oqXm0k7X/mZ8iftH/tyeEvif8PdO03RPCnx5ury28U+HdWkST4KeMrcLbWWtWN7cvuk0tVJWC3lYIDucqFQM7Kp73/h5P8ADv8A6F34+/8Ahi/G/wD8qa9+oruUIqo590l91/8AM+TnjZSwcMG1pCU5X/xqCt8uT8T5E+MH7cnhLxr8QvhXqWm+FPjzNZ+EfFM+raq7fBTxlEbe2fRdUsldVfSw0h8+7t12RhmAcsRsR2Xwb9o/4u/8LP8A2/NO+IuieA/jfdeELbwt4d0mS8k+Evii3lW5svGFjq9yn2eTT1nIWxt5ZA4j2uyiNC0rLGf00orixWXwrxcW2ru/4WPqOHONq+UV6denTUnCm6erezqOpf1u7eh+Zfxg+Lv/AAmv/BYD4V/GrTfAfxvm+G/hHwtPpOq6k3wl8URT29y8eqKqLZvp4upBm7t/njiZRvOT8j7T4P8Axd/4Qr4e/FTTdS8B/G+G88XfHqD4h6Ui/CXxRKLjRE1rS71rhmTTyscnkWlw32eQrOSgUR73RW/TSiudZRTU5z5n7zk//AoqP4WPcqeKOLnhcNhfYRtQp0Kad3qqFadZN+cnNp9kj8y/+CUvxd/4ZA+HsGm/EDwH8b9HvI/C1jpLJbfCXxRqYFzDrXiG9kTda6fKuBBqVm2/O0mVlBLxSqne/sa/tQ6T8D/7H/4SbwZ8dLH7F8LvB/hKbyvg74tu9upaZ/af22EeTpr5VPtcGJRmKTefLd9j7fveitMHlkMPTowTb9mmvW5w8T+IeJzrGZnjKtKMXjpQlJJv3eR3su9/M+CP+CY/7UOk/sp/sPeCPAPjrwZ8dNJ8VaD9v+3Wlv8AB3xbqMcXnX9zPHie202SF8xyofkc4JIOGBA+C/8Agpx8E/iL+1Z+3D438feBfhT8YdW8K699g+w3dx4A1nTpJfJsLaCTMFzaxzJiSJx86DIAIypBP710Vx5hw/SxeBpYGUmlDl172Vj6ngrxsx3DnF+P4vo4aE6mL9reDbUY+1qxquzWrs42V+h+R3/BEbWtX/YL/wCFm/8AC0vh18atA/4Sv+yv7M+yfC7xHrHn/Z/tvnbvsVjN5ePPix5m3duO3O1sTfsueG/Dvgf9rz40+N/H3w/+PX/CNfFuTxfpV1Cnws8Uzx3Wkahe6fPYER22nm4iknj/ALTEgJDxCGIOsLOnmfrXRTw3D9GlQo0G7qk21frd3/4BnnvjXmmY5vmmbwpKlPHwpwkoyfuqnBRTi973ipeTSPzL8O/F3+zP2YPGHhObwH8b117WvgLoXw8s4B8JfFDJJrdpaaxFcW5lGn+WiK97bAXDMIH3krIwRyvgvxr8LeLvHfw9+Nmm6X8MvjNPeeO/FPinVtER/hvr0IurbUNa8L3to7M9mFhLwaTfsUlKNGYVVwjywrJ+11Z3i3xbpngLwrqWua3qFnpOjaNay31/fXcyw29nBEheSWR2ICoqqSSTgAE1GLyGjUo8k5tJRavp5u/4muQeNWPy3Mvr9LDRlJ1YVLXlvGMIpfPkX3n8zms/scfF7w7qOk2eofCv4kWN3r101hpkFx4ZvYpNRuFgluGhhVowZJBBBPKVXJCQyNjajEfY3/BVrwt4u/a/+IU+pfD/AOGXxm1izk8U32rK9z8N9e0wm2m0Xw9ZRvturOJsmfTbxdmNwESsQEliZ/0T1P8Aao+Bn7R9rpvxAuPF+uaLD+z3qo8ZXUGraJf6BdQC70jUdOhlms7+1juZbaaDULkwtCmJZolVHco8Z9n+BP7QPhX9pPwVLr/hG+vLuytr2fTLuG/0y60q+0+6hbbLBc2l3HFcW8q8HZLGrFWRgCrKT59PgilSw9XC88ve5W9NVa9vvufoOZfSyzXGZ5gc9lgaalho1oRjzStL2yhe77xVO6S7s/nP/wCGDPjl/wBEY+K//hI6h/8AGq95/wCCY/wT+Iv7Kf7cPgjx946+FPxh0nwroP2/7dd2/gDWdRki86wuYI8QW1rJM+ZJUHyIcAknCgkfvXRWGE4HoYevCuqrfK09l0dz0OJfpe5xnOT4vJ6uX04xxFOpTbUpXSnFxbXmr3PwU+JPwT+Ivij4u/tOazZfCn4wy6d8Vvtn/CMSN4A1mNr/AM3xLp+pJvRrUNb5tbaZ/wB+I8FQhxIyofre3+Lvl/D39ojTT4D+N/2z4l+FtY0nw6n/AAqXxRi9ubrWvFd7Cjt/Z+2ANBrGnsXmKKpmdWKvDMsf6aUV6mE4bpUKkqim3dNffzf/ACR+dcSePOYZxg6ODqYWEVTlTkmnLX2aoJL5+wX/AIEz8jvjdrWr+PP24df8faX8OvjVP4V1H4o+AfFtvdv8LvEcMj6bo1hdQajMYHsVmVo5JowsRQSzAkxJIoJHvXwR/ah0nwH8XdA1nVPBnx0g07Tv+E++0SJ8HfFszJ/bPiW11LTsImmszeZawyO2AfJICS+XIQh+96K7cPk9OlUlUUn7zb++fN/wD5fOvFHF5lgaGBnQjFUacaaab1UcO8Pf1afN66bHwR/wUJ/ah0n9pL4RWWjeDvBnx01LUYP7a3xz/B3xbYqPtXhrWdNg+e402NTuur62Q4PyiRnbbGjuvyR+1T4W8XfF3/gpH8R/ihoHwy+M154J8T+FtT0nTb6T4b69bTT3Nx4Vl0uJGtpbNbiMG8dULvGqqp8xiIwXr9rqKzzHI6eLleUmvejL/wABTVvxO3gXxexnDNL2VDDxqfuK9DVtaVpwm5adYuFkvM/Dv9sv4Pa1+0T4z8U6tYfCj4zanN/YurR+GpZPh34hs9uo3Xja81SPcr2qbQ2jXkrkzDy1aTyiRcKIx718RPEumeP/ABn8MdWufhz8b7qb4feN9f8AFMEp+FXiuP7CL3xtp2qQzBRYjzS+jR6g5jwxRsRMq3DRRn9SqKwp8OUISnLm+NJbLo7p+p62N8ds1xFDCUPYpLDTqTjaUtqtN05Q8o2cm0t3J33Z4D/w8n+Hf/Qu/H3/AMMX43/+VNH/AA8n+Hf/AELvx9/8MX43/wDlTXv1FfSaH4VqeA/8PJ/h3/0Lvx9/8MX43/8AlTXzh+2n8afCv7R3x1+EHinTvAXx01SH4a36amlxL8IfGFm1hcf25oM7uI5NOQzf8S601U4CuMqqgebJArfobRXLjMNDEUnRls7fg7/oe/wxxBXyTMqeZ4fWUFJWu1dThKDV10ak0+60eh+Wvw68S6ZoX7bHhr4oar8OfjeieHta1aSHUF+FXit3g06+v/GV1J+4SxLMX/tXQWx5ZkXzJBhfJuhHrXHxd8z4e/s76aPAfxv+2fDTwto+k+Ik/wCFS+KMWVza614UvZkRv7P2zhYNH1Bg8JdWMKKpZ5oVk/TSivPhk1KNJ003r/8Aa/8AyKPt8V4rY6vj6ePqUlemopK7slFV1Zdk3Xk9Oq82fBH7QP7UOk/Ef9uH9nvx9o/gz46XPhX4bf8ACR/8JDdv8HfFsEln9usI4LbZBJpqzT7pFIPko+wDL7VOa8y/ay/aJ0v4o33jvw3ovhX4vz+IPHGva34l0LTp/hb4ltLrUNO/4QIeHWuVjmsEYImq3drA+4Axi4ilcLCwkP6KfGX4/eDv2fNL0S88Za/ZaDB4k1yy8N6V5+5n1DUbyURW9tEigs7uxzwMKqu7FURmHl3xK+NHwh8P/t5+B4ta8U6pbfEjS9FvvClhZQ6fcy6TENamsbpYry7SBre2u5Tokf2eOa4iaQNIFjkLoRtVyqFbmV3787/NQiuX1tZ99TzMp8RMTlrws40ov6vh5UdW1eMq9Su5vtaU3HtaPe5wv7K37cnhL4RfswfDjwnr/hT482eveGPC2maTqUEfwU8ZXKQXNvaRRSossWltHIA6MA6MytjKkgg0ftH/ALcnhL4n/D3TtN0Twp8ebq8tvFPh3VpEk+CnjK3C21lrVje3L7pNLVSVgt5WCA7nKhUDOyqfadA/bR+Gvij9oK5+F9j4ikn8Y2rXEJh/su8Wxmnt445bi1ivjELSa6ijlR5LeOZpo1JZkAViPUq7Pq8fq6pdHGyfdWtc+X/tup/bLzblXMqvtOXpfm57dz5E/aP/AG5PCXxP+HunabonhT483V5beKfDurSJJ8FPGVuFtrLWrG9uX3SaWqkrBbysEB3OVCoGdlU97/w8n+Hf/Qu/H3/wxfjf/wCVNe/UVooRVRz7pL7r/wCZxTxspYOGDa0hKcr/AONQVvlyfifnl+338afCv7Sfjn4E+JPDHgL46anrXwx+Iena1f3M3wh8YWP2DRRIsl8yrPp0aztvgtCI0DzHZ8ikF8/LP7MXwHi+G/8AwzT/AMJR4F/aAsP+EB8Wa54x8c/Z/hnr9z/ZV232L+y0t/K05/tMUv8AZtr5gt/OZPMl3tFkbP2zorxcVkNCvifrM3209HB/lC3oz9T4d8Zc2ybIo5HhorlippS5ndKdPEwslslGWIdRf3oruz8FP2Tvgn8Rfg78IviBo3iH4U/GGz1HxH5v9nxxeANZuVm3eGvE2mjLxWrKn+larYp85XiVn/1cUrp+tv8Aw8n+Hf8A0Lvx9/8ADF+N/wD5U179RWuTZPTy6l7KEnL+n/mcHip4o4vjjMY5jiqEaTV9IttaxhHr/g/E+RP2j/25PCXxP+HunabonhT483V5beKfDurSJJ8FPGVuFtrLWrG9uX3SaWqkrBbysEB3OVCoGdlU97/w8n+Hf/Qu/H3/AMMX43/+VNe/UV6qhFVHPukvuv8A5n53PGylg4YNrSEpyv8A41BW+XJ+J+R37ZWtav8AHD9nvWPDfhn4dfGq+1i9/wCEw8mGX4XeI7RW/tPxrpms2WZJrFIxvsLSeQ5YeWyCKTZK6Rt6z+3J8V/Df7Tf7QPwR8W6T4R+P9xbfCnVl1h2Hwf8V2gEx1fRJHV0m0wPKgsLbU5QIhnzIIkyXkjjl/RiivIeS0mppt+8oL/wDZn6TT8WMfSlg50qUU8PUxU1q/e+tpRnF+SSsu99T4I+JP7UOk+KPhF+05o1l4M+Okuo/Fb7Z/wjEbfB3xbGt/5vhrT9NTe7aaFt83VtMn78x4ChziNlcn/BTj9qHSf2rP2HvG/gHwL4M+OmreKte+wfYbS4+Dvi3To5fJv7aeTM9zpscKYjic/O4yQAMsQD970V1VcBCpSq0m376a9L83/yR89lvG1fB5jgMxjTTeEqU6iWtpOnGjFJ9k/Yq9v5mfInwf8A25PCXgr4hfFTUtS8KfHmGz8XeKYNW0p1+CnjKU3Fsmi6XZM7Kmlloz59pcLskCsQgYDY6Mx8YP25PCXjX4hfCvUtN8KfHmaz8I+KZ9W1V2+CnjKI29s+i6pZK6q+lhpD593brsjDMA5YjYjsv13RXR7CPJyed/8AybmPE/tup9a+tcqv7P2dvL2Psb+ttfU/Mv8AZw+Lv/CsP2/NR+Iut+A/jfa+ELnwt4i0mO8j+Evii4la5vfGF9q9sn2ePT2nAaxuIpC5j2ozGNysqtGD/gnT8Xf+GZfh78GdN8aeA/jfpl54H8LeK9J1pIPhL4ovxa3Oo61YXtmitb6fIsoeC3mYvEXWMqFco7Kp/TSuP8efH7wd8MfiP4K8Ia7r9lp/if4i3VzZ+HNMfc1xqsltbvcz7FUHCRxISzthAWRS250DefQyaFOcWpNtX/Fwl/7Z+J9vm3ihi8fh69GdCKVTlbd3ooU8VT/LEyb7ci7s+Rf+CVHixde/aA8RaW+leKtF1Lwf8Dfhn4c1W01/w5qGiTxXttc+KlmEaXkMTTRBjgTxB4XIYK7bWx91V84eCf2ivgvL+3b4k/s/xVrcnj7xbYWPgR1m0e9j8P3U+iy6peG0tNRa2Wzmv0OpXnnQR3Mkii2x5aNDLnvfgp+2j8Nf2h/iBrXhjwh4ik1TV9Cia4lV9LvLS3vYFne2e4sriaJIb6BJ43ieW1eWNHwrMCyg+rSp8tOEI6rlVvNJLX0PzrNMc8VjK2LqLlc5uTXZyk9PvdkepUUUVRxhRRRQAUUUUAFFFFABRRRQAUUUUAFFFFABRRRQAV8I/wDBRj9rf4VQfGnWfgNdePfhR8K9c8d+HoF+Ivi/xJrlho95Z+H5DNFHZWhmdXub+VJLkRZzFaJI8z5Z4opvu6ilZNrmV11T2fk/K+/fZ6MpSaT5dH0fbXf17dnr0PzJ+K+u+HfCnxG+J3wdsr+zHjr4hfFz4f8AiTwLpKz+bd6zodvFoBa/tjkvLbW0ej6j5kq5WLyDuI3ru/Taiit5VXKCg+j39Iwgr+doK76tvbYzStotrf53+Wui6d2FFFFYlBRRRQAUUUUAFFFFABRRRQAUUUUAFFFFABRRRQB+cH7RniXx2v8AwUz+DPibxN8E/iE80HxLu9B8L6lFqPh2WwbRk0DV0LW+dSFwjzu73swlhiJit4owHkhjWSH4K+K9O1L47/C/4RQXkEnxU8B/Hrxp4v8AEmjK3+n6Xo06a9NDqMy/fW2ni1bTljlYbZGuFQElWA/SWitaVVwUYvVRXzbumm+m6batq29h1m6nN5q3ytUj66RqWV725VutAooorIQUUUUAFFFFABRRRQAUUUUAFFFFABRRRQAUUUUAFfmb+zJ8SPGXwb+Omj/Dez+KP2zxx4i+Jni6HxN8LZNNsQ+maPdXWq6jDrxdU+3R7t9my3Tz/ZZFuUhWES4NfplRUuKleMtmrP8AD1076X7NPUbb5OVd7r1s1f5Xuvxuro/OP/gmd4z0n4ifE39mvw3oF1BdeIPgZ8HtW8M/ESyhI8/wvqbXGj2q2F6o5inefTb51jfBZYGkAKlWP6OUUV01q7q2ct/eb9ZSlJ+mstPLqT18tLfclq+oUUUVgMKKKKACiiigAooooAKKKKACiiigAooooAK8o/busr3Uv2J/i3b6d4YtfGt/N4P1VLbQLlJXh1mQ2koW2ZYnSRg5wpEbq5zhWVsEer0VFSPNBx7/ANeX5o1o1PZ1I1OzT+4/JGbx3pvj/wALfErxToPxE/4X14P8HQfDPXdc+ICW8cklla6f4ga/1HSWa0VbZ47K1Q3jReX9qjFywuZJm8sr9p/8E8vF2l/Fz4j/ALQnxA8K6hZ634E8Z+PYZNA1ewmWax1lbTQ9Lsbm4tpFJSWL7VbzReYhKs0D4JxX03RXY6+srLR3++Tg32/59q2ndtts5owcYpLy+5K3yd9e3RJK1iiiiuY0CiiigAooooAKKKKACiiigAooooAKKKKACiiigD5R/wCCp/wi8Lav4J8DeNLvw7o134u0j4heCtP0/WZ7NJL2wt5PFGmmSKGUgtErnG8IRv2ruztGPCP2hvFenaR8c/jF8Jrq8gj+KHxK+NHgXxT4S0d2/wBO1fSoBoLTX1uv3ngthpGpebIoKw+Q24jcu79JaK1w1T2LVukub8aUreXvUk7/AN56X1HKTadt7W+auk33Vna3ktT82vgr4r07Uvjv8L/hFBeQSfFTwH8evGni/wASaMrf6fpejTpr00OozL99baeLVtOWOVhtka4VASVYD9JaKKlzvBRfTf1slp2Wm2tu4VG51ZVX1v8AjKU/zm/lb1ZRRRUCCiiigAooooAKKKKACiiigAooooAKKKKACvlH9r74ReFtF/bj/Zp8Z2vh3RoPF2tePbmxv9aWzT+0Lq2i8La55cDT43mJTkiPO0MWOMkk/V1FVCXLJS7B9iUP5oyX3pr8N/kfnv8AD79qH4Pftq/tY6b4U8M/EH4R+EvCfws8T6lJ4Z8K2HiOwtfEPjXxSEuop737DHIJI7GJri8dRs826mLTkLEiG4y/+CZ3jPSfiJ8Tf2a/DegXUF14g+Bnwe1bwz8RLKEjz/C+ptcaParYXqjmKd59NvnWN8FlgaQAqVY/o5RVUKns1p8/N8so3+6bv5KKVlHUm222vl5K97efl5ty1uFFFFZgFFFFABRRRQAUUUUAFFFFABRRRQAUUUUAFFFFABRRRQAUUUUAFFFFABRRRQAUUUUAFFFFABRRRQAUUUUAFFFFABRRRQAUUUUAFFFFABRRRQAUUUUAFFFFABRRRQAUUUUAFFFFABRRRQAUUUUAFFFFABRRRQB8LeO9J8QfCz9s3w/F4a+Jvjnx18S4dS1PxZ49sX1u8j8MaL4Te3vBZ2kmlmWSytpPNWyit2iRLqdre4mZynn1xf8AwTE/aE8beJPjL8IbzXtI+M1onxx+Hl/4p1q88W+KLLV9E1i/jbT7lLvSLaHU7ttNtlW+njEKwWyGOW2DIXj4+lPgF/wT7n/Z38e6zq+l/Gn4sappviXX7zxHreh6pZ+G5rTWrq5yH+0TppKXrIqiNEAuQUjhijBEaBa1v2bv2BvDP7M3jtNa03xB4t1yHSNLm0DwtperSWbWXgvS5rhbiWxsBBbxSmJmit13XMk8gS1iUOAGDa4eSglzdvu92ScV3V3Dd2vGU9JOKJr3lJuO1/8AwL3k032a97ps4wWkbnG/tAftaQfCr9oz4h6vqtzrsfhP4AfDiPxTf6bYyGJNevNSlu0hRskJI8UemukauQge+3NyiMvkWv8A/BQTx3+zj8e/iv4q+MegaP4Ot9C+H3hJtO8P23jtr/w6t5qOsanaRXMt7Na26WgMjQx3M5tz5cdtuBmVVB+g/i3+yhF8RP2k/EN5qWjHXPAfxb8BP4L8YRi8ED2n2WWeSzdfmWTEiX98haI70dYGxyXTGsP+CYPh67bxReeJviJ8UfHGv+JtH0nSBretXmni80k6VeTXunXVqttZwwpcQXE3mBmidXMSGRZCZN802kk35+u807ebunHmuuXl2tY0nZuUVs+X8PZN330vGd7WbfdPTh/hd/wVyj+OPg2x0/wV4e8B+MPiZqXjSXwVa2OiePk1DwlcTRaedUkvI9bitGd7ZbLG7bZGVbg+SYsAy1P4X/bU8VfEnV/hb41udBu/BH/FzdX+FHijw2+rHULaXAuYkukYJGrOt5ZQGN9mfJnlGRvONf8AaV/ZV8T+FvhF4cm0W/8AjR8WvG2jeLl18eJbLxJoVj4r0dntJbVprG3vLeHRGi8lhA9o0UELJNLNh7gbn479lH9iDx54U8GfCTRfE9lqNlaab8QvEXxV8Qzanqdtf34nuJ7xtOsLp4W8t7s/b0nme3VoFksnVHIZGbSCg6nN9lOKf/lPm5dnZx9qterSvsljV5lSsvialb7qnLffaXs7dbK7VtX9x0UUVgaBRRRQAUUUUAFFFFABRRRQAUUUUAFFFFABRRRQAUUUUAFFFFABRRRQAUUUUAFFFFABRRRQAUUUUAFFFFABRRRQAUUUUAFFFFABRRRQAUUUUAFFFFABRRRQAUUUUAFFFFABRRRQAUUUUAFFFFABRRRQAUUUUAFFFFABRRRQAUUUUAFFFFABRRRQAUUUUAFFFFABRRRQAUUUUAFFFFABRRRQAUUUUAFFFFABRRRQAUUUUAFFFFABRRRQAUUUUAFFFFABRRRQAUUUUAFFFFABRRRQAUUUUAFFFFABRRRQAUUUUAFFFFABRRRQAUUUUAFFFFABRRRQAUUUUAFFFFABRRRQAUUUUAFFFFABRRRQAUUUUAFFFFABRRRQAUUUUAFFFFABRRRQAUUUUAFFFFABRRRQAUUUUAFFFFABRRRQAUUUUAFFFFAH/9k=;clipPath=inset(2.56% 3.67% 81.41% 76.33%);" vertex="1" parent="1">
          <mxGeometry x="490" y="160" width="271.1" height="112.96" as="geometry" />
        </mxCell>
      </root>
    </mxGraphModel>
  </diagram>
</mxfile>
